<svg width="19" height="22" viewBox="0 0 19 22" fill="none" xmlns="http://www.w3.org/2000/svg">
<path d="M10.2266 3.25391C9.43359 3.25391 8.82292 3.5 8.39453 3.99219C7.96615 4.48438 7.75195 5.13151 7.75195 5.93359C7.75195 6.92708 8.03451 7.8431 8.59961 8.68164C9.93945 7.99805 10.8464 7.39193 11.3203 6.86328C11.8034 6.32552 12.0449 5.74674 12.0449 5.12695C12.0449 4.52539 11.8809 4.0651 11.5527 3.74609C11.2246 3.41797 10.7826 3.25391 10.2266 3.25391ZM6.94531 18.5938C7.64714 18.5938 8.31706 18.4707 8.95508 18.2246C9.5931 17.9785 10.2493 17.6048 10.9238 17.1035L7.31445 11.8945C6.10221 12.569 5.27279 13.2161 4.82617 13.8359C4.38867 14.4466 4.16992 15.1439 4.16992 15.9277C4.16992 16.7116 4.42513 17.3542 4.93555 17.8555C5.44596 18.3477 6.11589 18.5938 6.94531 18.5938ZM0.902344 16.2148C0.902344 14.875 1.28971 13.7174 2.06445 12.7422C2.84831 11.7669 4.15625 10.8327 5.98828 9.93945C5.1862 8.56315 4.78516 7.27344 4.78516 6.07031C4.78516 4.42969 5.29557 3.1263 6.31641 2.16016C7.34635 1.1849 8.70443 0.697266 10.3906 0.697266C11.849 0.697266 12.9974 1.06641 13.8359 1.80469C14.6745 2.54297 15.0938 3.53646 15.0938 4.78516C15.0938 5.96094 14.6836 7.00911 13.8633 7.92969C13.0521 8.85026 11.7168 9.72526 9.85742 10.5547L13.0703 15.0117C14.0638 13.9909 14.8887 12.6465 15.5449 10.9785H18.7305C17.7005 13.4395 16.347 15.5085 14.6699 17.1855L17.4727 21H13.6855L12.4004 19.209C11.4342 19.9382 10.4727 20.4668 9.51562 20.7949C8.55859 21.1139 7.51497 21.2734 6.38477 21.2734C4.65299 21.2734 3.30404 20.8314 2.33789 19.9473C1.38086 19.054 0.902344 17.8099 0.902344 16.2148Z" fill="#BDBDBD"/>
</svg>
