<svg width="102" height="20" viewBox="0 0 102 20" fill="none" xmlns="http://www.w3.org/2000/svg">
<path d="M8.02344 2.51953C7.02083 2.51953 6.12565 2.80924 5.33789 3.38867C4.55013 3.9681 3.91862 4.81445 3.44336 5.92773C2.97461 7.03451 2.74023 8.25195 2.74023 9.58008C2.74023 10.752 3.00716 11.6504 3.54102 12.2754C4.08138 12.8939 4.87565 13.2031 5.92383 13.2031C6.8418 13.2031 7.91276 12.9818 9.13672 12.5391V14.541C7.96484 14.9772 6.7474 15.1953 5.48438 15.1953C3.86979 15.1953 2.60352 14.7135 1.68555 13.75C0.774089 12.7799 0.318359 11.4225 0.318359 9.67773C0.318359 7.98503 0.660156 6.41276 1.34375 4.96094C2.03385 3.50911 2.95182 2.4056 4.09766 1.65039C5.24349 0.895182 6.55208 0.517578 8.02344 0.517578C9.4362 0.517578 10.7025 0.817057 11.8223 1.41602L10.9043 3.32031C10.4941 3.09896 10.0579 2.91016 9.5957 2.75391C9.13346 2.59766 8.60938 2.51953 8.02344 2.51953ZM19.1953 8.14453C19.1953 7.44792 19.0358 6.9043 18.7168 6.51367C18.3978 6.11654 17.9421 5.91797 17.3496 5.91797C16.7441 5.91797 16.2005 6.15234 15.7188 6.62109C15.2435 7.08333 14.8724 7.71484 14.6055 8.51562C14.3451 9.3099 14.2148 10.1595 14.2148 11.0645C14.2148 11.7871 14.3743 12.3405 14.6934 12.7246C15.0189 13.1087 15.4974 13.3008 16.1289 13.3008C16.7148 13.3008 17.2422 13.0794 17.7109 12.6367C18.1797 12.194 18.5443 11.5755 18.8047 10.7812C19.0651 9.98047 19.1953 9.10156 19.1953 8.14453ZM21.5098 8.24219C21.5098 9.55729 21.2721 10.7552 20.7969 11.8359C20.3216 12.9102 19.6673 13.737 18.834 14.3164C18.0072 14.8893 17.0534 15.1758 15.9727 15.1758C14.7227 15.1758 13.7298 14.8047 12.9941 14.0625C12.2585 13.3138 11.8906 12.2982 11.8906 11.0156C11.8906 9.72005 12.1217 8.5319 12.584 7.45117C13.0527 6.37044 13.707 5.5306 14.5469 4.93164C15.3867 4.32617 16.3568 4.02344 17.457 4.02344C18.7266 4.02344 19.7194 4.40104 20.4355 5.15625C21.1517 5.91146 21.5098 6.9401 21.5098 8.24219ZM29.293 15L30.6797 8.4375C30.7969 7.85156 30.8555 7.42513 30.8555 7.1582C30.8555 6.30534 30.4355 5.87891 29.5957 5.87891C29.127 5.87891 28.6647 6.06445 28.209 6.43555C27.7533 6.80664 27.3431 7.34375 26.9785 8.04688C26.6139 8.74349 26.3405 9.53451 26.1582 10.4199L25.2012 15H22.8965L25.2012 4.19922H26.998L26.793 6.20117H26.8809C27.4212 5.43294 27.9779 4.8763 28.5508 4.53125C29.1237 4.17969 29.7454 4.00391 30.416 4.00391C31.2884 4.00391 31.9622 4.2513 32.4375 4.74609C32.9193 5.24089 33.1602 5.94401 33.1602 6.85547C33.1602 7.30469 33.0853 7.89388 32.9355 8.62305L31.5977 15H29.293ZM41.0898 15L42.4766 8.4375C42.5938 7.85156 42.6523 7.42513 42.6523 7.1582C42.6523 6.30534 42.2324 5.87891 41.3926 5.87891C40.9238 5.87891 40.4616 6.06445 40.0059 6.43555C39.5501 6.80664 39.14 7.34375 38.7754 8.04688C38.4108 8.74349 38.1374 9.53451 37.9551 10.4199L36.998 15H34.6934L36.998 4.19922H38.7949L38.5898 6.20117H38.6777C39.2181 5.43294 39.7747 4.8763 40.3477 4.53125C40.9206 4.17969 41.5423 4.00391 42.2129 4.00391C43.0853 4.00391 43.7591 4.2513 44.2344 4.74609C44.7161 5.24089 44.957 5.94401 44.957 6.85547C44.957 7.30469 44.8822 7.89388 44.7324 8.62305L43.3945 15H41.0898ZM52.5156 5.76172C51.8906 5.76172 51.3014 6.04167 50.748 6.60156C50.2012 7.16146 49.8073 7.90039 49.5664 8.81836H49.8496C51.0736 8.81836 52.0306 8.64583 52.7207 8.30078C53.4108 7.94922 53.7559 7.45443 53.7559 6.81641C53.7559 6.48438 53.6517 6.22721 53.4434 6.04492C53.235 5.85612 52.9258 5.76172 52.5156 5.76172ZM51.0312 15.1953C49.7487 15.1953 48.7461 14.834 48.0234 14.1113C47.3073 13.3887 46.9492 12.3796 46.9492 11.084C46.9492 9.79492 47.1999 8.59701 47.7012 7.49023C48.209 6.37695 48.8926 5.51758 49.752 4.91211C50.6178 4.30664 51.5846 4.00391 52.6523 4.00391C53.7005 4.00391 54.5143 4.24154 55.0938 4.7168C55.6797 5.18555 55.9727 5.85286 55.9727 6.71875C55.9727 7.90365 55.429 8.83138 54.3418 9.50195C53.2611 10.166 51.7181 10.498 49.7129 10.498H49.293L49.2734 10.8008V11.084C49.2734 11.8066 49.4557 12.373 49.8203 12.7832C50.1914 13.1934 50.7415 13.3984 51.4707 13.3984C51.9395 13.3984 52.4049 13.3366 52.8672 13.2129C53.3294 13.0892 53.8763 12.8776 54.5078 12.5781V14.4043C53.8828 14.6908 53.3066 14.8926 52.7793 15.0098C52.2585 15.1335 51.6758 15.1953 51.0312 15.1953ZM61.4805 15.1953C60.2044 15.1953 59.2148 14.8503 58.5117 14.1602C57.8086 13.4701 57.457 12.4837 57.457 11.2012C57.457 9.85352 57.6947 8.62956 58.1699 7.5293C58.6517 6.42253 59.3255 5.5599 60.1914 4.94141C61.0573 4.31641 62.0404 4.00391 63.1406 4.00391C64.2083 4.00391 65.1751 4.20247 66.041 4.59961L65.3574 6.39648C64.5632 6.05143 63.8438 5.87891 63.1992 5.87891C62.2227 5.87891 61.4089 6.38021 60.7578 7.38281C60.1068 8.37891 59.7812 9.61263 59.7812 11.084C59.7812 11.8066 59.9635 12.3633 60.3281 12.7539C60.6927 13.1445 61.1973 13.3398 61.8418 13.3398C62.3236 13.3398 62.7728 13.2682 63.1895 13.125C63.6126 12.9818 64.0358 12.806 64.459 12.5977V14.502C63.5475 14.9642 62.5547 15.1953 61.4805 15.1953ZM70.2988 13.3398C70.7415 13.3398 71.2331 13.2389 71.7734 13.0371V14.7754C71.5456 14.8861 71.2363 14.9837 70.8457 15.0684C70.4551 15.153 70.0645 15.1953 69.6738 15.1953C67.89 15.1953 66.998 14.3913 66.998 12.7832C66.998 12.4121 67.0501 11.9857 67.1543 11.5039L68.3359 5.9375H66.7539L66.959 4.86328L68.8145 4.0625L70.0742 1.79688H71.5L70.9922 4.19922H73.7168L73.3359 5.9375H70.6309L69.4395 11.5234C69.3548 11.8815 69.3125 12.181 69.3125 12.4219C69.3125 12.7018 69.3939 12.9264 69.5566 13.0957C69.7194 13.2585 69.9668 13.3398 70.2988 13.3398ZM76.4219 1.54297C76.4219 1.10026 76.5488 0.742188 76.8027 0.46875C77.0566 0.195312 77.4147 0.0585938 77.877 0.0585938C78.222 0.0585938 78.502 0.146484 78.7168 0.322266C78.9316 0.491536 79.0391 0.751953 79.0391 1.10352C79.0391 1.56576 78.9089 1.93034 78.6484 2.19727C78.388 2.46419 78.0462 2.59766 77.623 2.59766C77.278 2.59766 76.9915 2.51302 76.7637 2.34375C76.5358 2.17448 76.4219 1.90755 76.4219 1.54297ZM75.9629 15H73.6582L75.9629 4.19922H78.2578L75.9629 15ZM85.5625 15L86.9492 8.4375C87.0664 7.85156 87.125 7.42513 87.125 7.1582C87.125 6.30534 86.7051 5.87891 85.8652 5.87891C85.3965 5.87891 84.9342 6.06445 84.4785 6.43555C84.0228 6.80664 83.6126 7.34375 83.248 8.04688C82.8835 8.74349 82.61 9.53451 82.4277 10.4199L81.4707 15H79.166L81.4707 4.19922H83.2676L83.0625 6.20117H83.1504C83.6908 5.43294 84.2474 4.8763 84.8203 4.53125C85.3932 4.17969 86.015 4.00391 86.6855 4.00391C87.5579 4.00391 88.2318 4.2513 88.707 4.74609C89.1888 5.24089 89.4297 5.94401 89.4297 6.85547C89.4297 7.30469 89.3548 7.89388 89.2051 8.62305L87.8672 15H85.5625ZM101.666 4.19922L101.363 5.53711L99.4883 5.85938C99.6706 6.23698 99.7617 6.68294 99.7617 7.19727C99.7617 8.45378 99.3743 9.45312 98.5996 10.1953C97.8249 10.931 96.7865 11.2988 95.4844 11.2988C95.1458 11.2988 94.8464 11.2728 94.5859 11.2207C93.8633 11.4811 93.502 11.8197 93.502 12.2363C93.502 12.4837 93.6029 12.653 93.8047 12.7441C94.013 12.8353 94.3125 12.9069 94.7031 12.959L95.9434 13.1152C97.0892 13.2585 97.9095 13.5449 98.4043 13.9746C98.8991 14.3978 99.1465 15.0065 99.1465 15.8008C99.1465 17.0768 98.6549 18.0632 97.6719 18.7598C96.6888 19.4564 95.2923 19.8047 93.4824 19.8047C92.1608 19.8047 91.1387 19.5605 90.416 19.0723C89.6868 18.584 89.3223 17.9134 89.3223 17.0605C89.3223 16.39 89.5501 15.8105 90.0059 15.3223C90.4551 14.834 91.181 14.4206 92.1836 14.082C91.6888 13.7891 91.4414 13.3757 91.4414 12.8418C91.4414 12.3926 91.5911 12.0052 91.8906 11.6797C92.1966 11.3477 92.6751 11.0286 93.3262 10.7227C92.4473 10.1953 92.0078 9.375 92.0078 8.26172C92.0078 6.98568 92.4049 5.95703 93.1992 5.17578C94 4.39453 95.0547 4.00391 96.3633 4.00391C96.8841 4.00391 97.4049 4.06901 97.9258 4.19922H101.666ZM93.668 14.8242C92.9388 14.9414 92.3789 15.1725 91.9883 15.5176C91.5977 15.8626 91.4023 16.2891 91.4023 16.7969C91.4023 17.2201 91.5814 17.5553 91.9395 17.8027C92.304 18.0566 92.8574 18.1836 93.5996 18.1836C94.6608 18.1836 95.4909 18.0078 96.0898 17.6562C96.6888 17.3047 96.9883 16.8001 96.9883 16.1426C96.9883 15.8105 96.8418 15.5501 96.5488 15.3613C96.2559 15.1725 95.7415 15.0391 95.0059 14.9609L93.668 14.8242ZM96.3047 5.53711C95.8815 5.53711 95.5104 5.66406 95.1914 5.91797C94.8724 6.16536 94.625 6.50716 94.4492 6.94336C94.2734 7.37305 94.1855 7.84505 94.1855 8.35938C94.1855 8.82161 94.2995 9.17969 94.5273 9.43359C94.7617 9.68099 95.0938 9.80469 95.5234 9.80469C95.9466 9.80469 96.3112 9.67773 96.6172 9.42383C96.9297 9.16992 97.1706 8.82161 97.3398 8.37891C97.5156 7.9362 97.6035 7.45117 97.6035 6.92383C97.6035 5.99935 97.1706 5.53711 96.3047 5.53711Z" fill="#6F6C6C"/>
</svg>
