<svg width="202" height="39" viewBox="0 0 202 39" fill="none" xmlns="http://www.w3.org/2000/svg">
<path d="M19.8345 29.1714C19.8345 32.1701 18.8376 34.4749 16.8438 36.0859C14.8659 37.681 12.1064 38.4785 8.56543 38.4785C6.85872 38.4785 5.36735 38.3589 4.09131 38.1196C2.83122 37.8804 1.65088 37.4816 0.550293 36.9233V30.9897C3.05452 32.4253 5.59863 33.1431 8.18262 33.1431C9.45866 33.1431 10.5034 32.8879 11.3169 32.3774C12.1304 31.8511 12.5371 31.1413 12.5371 30.248C12.5371 29.5622 12.242 28.9481 11.6519 28.4058C11.0617 27.8634 10.0169 27.1776 8.51758 26.3481C6.58757 25.2635 5.23975 24.1868 4.47412 23.1182C3.7085 22.0335 3.32568 20.7575 3.32568 19.29C3.32568 16.5785 4.20296 14.481 5.95752 12.9976C7.72803 11.4982 10.2482 10.7485 13.5181 10.7485C16.7241 10.7485 19.6191 11.5062 22.2031 13.0215L19.8345 18.1655C17.6014 16.8257 15.5438 16.1558 13.6616 16.1558C12.7524 16.1558 12.0187 16.3631 11.4604 16.7778C10.9022 17.1766 10.623 17.7189 10.623 18.4048C10.623 19.0269 10.8783 19.5771 11.3887 20.0557C11.8991 20.5182 12.8561 21.1084 14.2598 21.8262C16.2217 22.8311 17.6413 23.9237 18.5186 25.104C19.3958 26.2843 19.8345 27.6401 19.8345 29.1714ZM35.5059 32.6646C36.5426 32.6646 37.8346 32.3854 39.3818 31.8271V37.2104C37.6113 38.0558 35.4899 38.4785 33.0176 38.4785C30.625 38.4785 28.8625 37.9761 27.73 36.9712C26.6134 35.9663 26.0552 34.4111 26.0552 32.3057C26.0552 31.5081 26.1509 30.6149 26.3423 29.626L29.0938 16.73H25.457L26.1509 13.2129L30.8403 11.2031L33.9985 5.55664H38.6401L37.4678 11.251H44.2388L43.0425 16.73H36.2954L33.5439 29.626C33.4482 30.1045 33.4004 30.5272 33.4004 30.894C33.4004 32.0744 34.1022 32.6646 35.5059 32.6646ZM49.5742 11.251H56.7759L53.498 26.8745C53.2428 27.9591 53.1152 28.9082 53.1152 29.7217C53.1152 31.6836 53.9766 32.6646 55.6992 32.6646C57.1667 32.6646 58.4985 31.7554 59.6948 29.937C60.8911 28.1187 61.8322 25.5825 62.5181 22.3286L64.8628 11.251H72.0645L66.394 38H60.8911L61.3936 33.0474H61.25C58.9372 36.6681 56.106 38.4785 52.7563 38.4785C50.5552 38.4785 48.8724 37.8245 47.708 36.5166C46.5436 35.1927 45.9614 33.2866 45.9614 30.7983C45.9614 29.3149 46.1528 27.6162 46.5356 25.7021L49.5742 11.251ZM82.6396 38.4785C80.2949 38.4785 78.4447 37.6252 77.0889 35.9185C75.749 34.2118 75.0791 31.8192 75.0791 28.7407C75.0791 25.6144 75.6453 22.6317 76.7778 19.7925C77.9263 16.9373 79.4336 14.7202 81.2998 13.1411C83.166 11.5461 85.2236 10.7485 87.4727 10.7485C88.7806 10.7485 89.9051 11.0436 90.8462 11.6338C91.8032 12.224 92.7044 13.2368 93.5498 14.6724H93.7412L93.7891 14.0024C93.8848 12.2479 94.0841 10.6927 94.3872 9.33691L96.2056 0.771484H103.407L95.5117 38H90.0327L90.3677 34.5308H90.272C89.1395 35.9185 87.9512 36.9233 86.707 37.5454C85.4788 38.1675 84.123 38.4785 82.6396 38.4785ZM85.6543 32.6646C86.707 32.6646 87.7279 32.1222 88.7168 31.0376C89.7217 29.937 90.5272 28.4775 91.1333 26.6592C91.7394 24.8408 92.0425 22.8869 92.0425 20.7974C92.0425 19.5213 91.7394 18.5005 91.1333 17.7349C90.5431 16.9692 89.7297 16.5864 88.6929 16.5864C87.6082 16.5864 86.5715 17.1606 85.5825 18.3091C84.6095 19.4575 83.828 20.9728 83.2378 22.855C82.6636 24.7371 82.3765 26.6034 82.3765 28.4536C82.3765 31.2609 83.4691 32.6646 85.6543 32.6646ZM118.72 15.9404C117.316 15.9404 115.992 16.5785 114.748 17.8545C113.504 19.1305 112.69 20.6857 112.308 22.52H113.384C115.857 22.52 117.779 22.1372 119.15 21.3716C120.538 20.59 121.232 19.5373 121.232 18.2134C121.232 16.6981 120.395 15.9404 118.72 15.9404ZM114.796 38.4785C111.446 38.4785 108.846 37.5773 106.996 35.7749C105.146 33.9725 104.221 31.4284 104.221 28.1426C104.221 24.8408 104.875 21.8341 106.183 19.1226C107.507 16.395 109.293 14.3215 111.542 12.9019C113.791 11.4663 116.335 10.7485 119.174 10.7485C121.998 10.7485 124.199 11.4025 125.778 12.7104C127.357 14.0024 128.146 15.7809 128.146 18.0459C128.146 21.0286 126.815 23.3335 124.151 24.9604C121.487 26.5715 117.683 27.377 112.738 27.377H111.518L111.47 27.8794V28.3579C111.47 29.8094 111.877 30.9578 112.69 31.8032C113.52 32.6326 114.7 33.0474 116.231 33.0474C117.619 33.0474 118.879 32.8958 120.012 32.5928C121.144 32.2897 122.516 31.7554 124.127 30.9897V36.4209C121.383 37.7926 118.273 38.4785 114.796 38.4785ZM152.766 38H145.564L148.842 22.3765C149.097 21.2918 149.225 20.3428 149.225 19.5293C149.225 17.5674 148.364 16.5864 146.641 16.5864C145.174 16.5864 143.842 17.4956 142.646 19.314C141.449 21.1323 140.508 23.6685 139.822 26.9224L137.478 38H130.276L135.946 11.251H141.449L140.947 16.2036H141.09C143.419 12.5669 146.25 10.7485 149.584 10.7485C151.785 10.7485 153.484 11.4185 154.68 12.7583C155.892 14.0822 156.499 15.9803 156.499 18.4526C156.499 19.617 156.315 21.0526 155.948 22.7593L152.766 38ZM171.309 32.6646C172.345 32.6646 173.637 32.3854 175.185 31.8271V37.2104C173.414 38.0558 171.293 38.4785 168.82 38.4785C166.428 38.4785 164.665 37.9761 163.533 36.9712C162.416 35.9663 161.858 34.4111 161.858 32.3057C161.858 31.5081 161.954 30.6149 162.145 29.626L164.896 16.73H161.26L161.954 13.2129L166.643 11.2031L169.801 5.55664H174.443L173.271 11.251H180.042L178.845 16.73H172.098L169.347 29.626C169.251 30.1045 169.203 30.5272 169.203 30.894C169.203 32.0744 169.905 32.6646 171.309 32.6646ZM198.943 29.1714C198.943 32.1701 197.946 34.4749 195.952 36.0859C193.974 37.681 191.215 38.4785 187.674 38.4785C185.967 38.4785 184.476 38.3589 183.2 38.1196C181.94 37.8804 180.759 37.4816 179.659 36.9233V30.9897C182.163 32.4253 184.707 33.1431 187.291 33.1431C188.567 33.1431 189.612 32.8879 190.425 32.3774C191.239 31.8511 191.646 31.1413 191.646 30.248C191.646 29.5622 191.35 28.9481 190.76 28.4058C190.17 27.8634 189.125 27.1776 187.626 26.3481C185.696 25.2635 184.348 24.1868 183.583 23.1182C182.817 22.0335 182.434 20.7575 182.434 19.29C182.434 16.5785 183.311 14.481 185.066 12.9976C186.836 11.4982 189.357 10.7485 192.626 10.7485C195.833 10.7485 198.728 11.5062 201.312 13.0215L198.943 18.1655C196.71 16.8257 194.652 16.1558 192.77 16.1558C191.861 16.1558 191.127 16.3631 190.569 16.7778C190.011 17.1766 189.731 17.7189 189.731 18.4048C189.731 19.0269 189.987 19.5771 190.497 20.0557C191.007 20.5182 191.965 21.1084 193.368 21.8262C195.33 22.8311 196.75 23.9237 197.627 25.104C198.504 26.2843 198.943 27.6401 198.943 29.1714Z" fill="#4F4F4F"/>
</svg>
