<svg width="199" height="39" viewBox="0 0 199 39" fill="none" xmlns="http://www.w3.org/2000/svg">
<path d="M10.2979 32.6646C11.3346 32.6646 12.6266 32.3854 14.1738 31.8271V37.2104C12.4033 38.0558 10.2819 38.4785 7.80957 38.4785C5.41699 38.4785 3.65446 37.9761 2.52197 36.9712C1.40544 35.9663 0.847168 34.4111 0.847168 32.3057C0.847168 31.5081 0.942871 30.6149 1.13428 29.626L3.88574 16.73H0.249023L0.942871 13.2129L5.63232 11.2031L8.79053 5.55664H13.4321L12.2598 11.251H19.0308L17.8345 16.73H11.0874L8.33594 29.626C8.24023 30.1045 8.19238 30.5272 8.19238 30.894C8.19238 32.0744 8.89421 32.6646 10.2979 32.6646ZM34.75 15.9404C33.3464 15.9404 32.0225 16.5785 30.7783 17.8545C29.5342 19.1305 28.7207 20.6857 28.3379 22.52H29.4146C31.8869 22.52 33.8089 22.1372 35.1807 21.3716C36.5684 20.59 37.2622 19.5373 37.2622 18.2134C37.2622 16.6981 36.4248 15.9404 34.75 15.9404ZM30.8262 38.4785C27.4766 38.4785 24.8766 37.5773 23.0264 35.7749C21.1761 33.9725 20.251 31.4284 20.251 28.1426C20.251 24.8408 20.9049 21.8341 22.2129 19.1226C23.5368 16.395 25.3232 14.3215 27.5723 12.9019C29.8213 11.4663 32.3654 10.7485 35.2046 10.7485C38.0278 10.7485 40.229 11.4025 41.8081 12.7104C43.3872 14.0024 44.1768 15.7809 44.1768 18.0459C44.1768 21.0286 42.8449 23.3335 40.1812 24.9604C37.5174 26.5715 33.7132 27.377 28.7686 27.377H27.5483L27.5005 27.8794V28.3579C27.5005 29.8094 27.9072 30.9578 28.7207 31.8032C29.5501 32.6326 30.7305 33.0474 32.2617 33.0474C33.6494 33.0474 34.9095 32.8958 36.042 32.5928C37.1745 32.2897 38.5462 31.7554 40.1572 30.9897V36.4209C37.4137 37.7926 34.3034 38.4785 30.8262 38.4785ZM55.1348 38.4785C52.79 38.4785 50.9398 37.6331 49.584 35.9424C48.2441 34.2357 47.5742 31.8511 47.5742 28.7886C47.5742 25.6304 48.1484 22.6237 49.2969 19.7686C50.4453 16.8975 51.9526 14.6803 53.8188 13.1172C55.6851 11.5381 57.7347 10.7485 59.9678 10.7485C61.515 10.7485 62.8468 11.0835 63.9634 11.7534C65.0959 12.4233 65.9731 13.3963 66.5952 14.6724H66.7866L68.1504 11.251H73.7012L68.0068 38H62.5278L62.8628 34.5308H62.7671C60.6297 37.1626 58.0856 38.4785 55.1348 38.4785ZM57.958 32.6646C59.0586 32.6646 60.1193 32.1302 61.1401 31.0615C62.161 29.9928 62.9824 28.5493 63.6045 26.731C64.2266 24.8966 64.5376 22.8231 64.5376 20.5103C64.5376 19.3778 64.2266 18.4447 63.6045 17.7109C62.9984 16.9613 62.1929 16.5864 61.188 16.5864C60.1034 16.5864 59.0666 17.1606 58.0776 18.3091C57.1047 19.4575 56.3231 20.9728 55.7329 22.855C55.1587 24.7371 54.8716 26.6034 54.8716 28.4536C54.8716 29.8573 55.1348 30.91 55.6611 31.6118C56.2035 32.3136 56.9691 32.6646 57.958 32.6646ZM86.6689 38.4785C83.4629 38.4785 80.9985 37.6252 79.2759 35.9185C77.5692 34.1958 76.7158 31.7713 76.7158 28.645C76.7158 25.2635 77.306 22.193 78.4863 19.4336C79.6826 16.6582 81.3574 14.5208 83.5107 13.0215C85.6641 11.5062 88.1204 10.7485 90.8799 10.7485C93.7829 10.7485 96.3988 11.3228 98.7275 12.4712L96.5264 17.9502C95.665 17.5833 94.8197 17.2643 93.9902 16.9932C93.1608 16.722 92.2197 16.5864 91.167 16.5864C89.8112 16.5864 88.583 17.0968 87.4824 18.1177C86.3978 19.1385 85.5444 20.5422 84.9224 22.3286C84.3162 24.0991 84.0132 26.0052 84.0132 28.0469C84.0132 29.5781 84.3721 30.7345 85.0898 31.5161C85.8236 32.2817 86.8364 32.6646 88.1284 32.6646C89.3407 32.6646 90.4652 32.4811 91.502 32.1143C92.5387 31.7314 93.6074 31.2609 94.708 30.7026V36.5884C92.2835 37.8485 89.6038 38.4785 86.6689 38.4785ZM121.625 38H114.423L117.701 22.3765C117.956 21.2918 118.083 20.3428 118.083 19.5293C118.083 17.5674 117.222 16.5864 115.5 16.5864C114.032 16.5864 112.7 17.4956 111.504 19.314C110.308 21.1323 109.367 23.6685 108.681 26.9224L106.336 38H99.1343L107.03 0.771484H114.231C113.609 3.65853 113.131 5.87565 112.796 7.42285C112.461 8.97005 111.775 11.4344 110.738 14.8159H110.93C111.919 13.5877 113.019 12.6068 114.231 11.873C115.444 11.1234 116.847 10.7485 118.442 10.7485C120.644 10.7485 122.342 11.4185 123.539 12.7583C124.751 14.0822 125.357 15.9803 125.357 18.4526C125.357 19.617 125.174 21.0526 124.807 22.7593L121.625 38ZM144.521 15.9404C143.118 15.9404 141.794 16.5785 140.55 17.8545C139.306 19.1305 138.492 20.6857 138.109 22.52H139.186C141.658 22.52 143.58 22.1372 144.952 21.3716C146.34 20.59 147.034 19.5373 147.034 18.2134C147.034 16.6981 146.196 15.9404 144.521 15.9404ZM140.598 38.4785C137.248 38.4785 134.648 37.5773 132.798 35.7749C130.948 33.9725 130.022 31.4284 130.022 28.1426C130.022 24.8408 130.676 21.8341 131.984 19.1226C133.308 16.395 135.095 14.3215 137.344 12.9019C139.593 11.4663 142.137 10.7485 144.976 10.7485C147.799 10.7485 150 11.4025 151.58 12.7104C153.159 14.0024 153.948 15.7809 153.948 18.0459C153.948 21.0286 152.616 23.3335 149.953 24.9604C147.289 26.5715 143.485 27.377 138.54 27.377H137.32L137.272 27.8794V28.3579C137.272 29.8094 137.679 30.9578 138.492 31.8032C139.322 32.6326 140.502 33.0474 142.033 33.0474C143.421 33.0474 144.681 32.8958 145.813 32.5928C146.946 32.2897 148.318 31.7554 149.929 30.9897V36.4209C147.185 37.7926 144.075 38.4785 140.598 38.4785ZM175.338 10.7485C176.279 10.7485 177.045 10.8363 177.635 11.0117L176.056 17.9502C175.338 17.695 174.54 17.5674 173.663 17.5674C171.813 17.5674 170.186 18.3011 168.782 19.7686C167.395 21.2201 166.406 23.3096 165.815 26.0371L163.279 38H156.078L161.748 11.251H167.251L166.749 16.2036H166.892C169.237 12.5669 172.052 10.7485 175.338 10.7485ZM195.651 29.1714C195.651 32.1701 194.654 34.4749 192.66 36.0859C190.682 37.681 187.923 38.4785 184.382 38.4785C182.675 38.4785 181.184 38.3589 179.908 38.1196C178.648 37.8804 177.467 37.4816 176.367 36.9233V30.9897C178.871 32.4253 181.415 33.1431 183.999 33.1431C185.275 33.1431 186.32 32.8879 187.133 32.3774C187.947 31.8511 188.354 31.1413 188.354 30.248C188.354 29.5622 188.058 28.9481 187.468 28.4058C186.878 27.8634 185.833 27.1776 184.334 26.3481C182.404 25.2635 181.056 24.1868 180.291 23.1182C179.525 22.0335 179.142 20.7575 179.142 19.29C179.142 16.5785 180.019 14.481 181.774 12.9976C183.544 11.4982 186.065 10.7485 189.334 10.7485C192.541 10.7485 195.436 11.5062 198.02 13.0215L195.651 18.1655C193.418 16.8257 191.36 16.1558 189.478 16.1558C188.569 16.1558 187.835 16.3631 187.277 16.7778C186.719 17.1766 186.439 17.7189 186.439 18.4048C186.439 19.0269 186.695 19.5771 187.205 20.0557C187.715 20.5182 188.673 21.1084 190.076 21.8262C192.038 22.8311 193.458 23.9237 194.335 25.104C195.212 26.2843 195.651 27.6401 195.651 29.1714Z" fill="#4F4F4F"/>
</svg>
