<svg width="63" height="34" viewBox="0 0 63 34" fill="none" xmlns="http://www.w3.org/2000/svg">
<path fill-rule="evenodd" clip-rule="evenodd" d="M0.802485 2.29863C1.13482 3.12908 1.4884 3.93941 1.86216 4.73001L5.47842 3.02045C5.13945 2.3034 4.81833 1.56758 4.51615 0.812469L0.802485 2.29863ZM4.42427 9.37613C5.38915 10.8923 6.43418 12.32 7.54798 13.6638L10.6276 11.1111C9.61794 9.89305 8.67186 8.60029 7.79885 7.22852L4.42427 9.37613ZM11.1699 17.5282C12.459 18.7485 13.8085 19.882 15.2055 20.9342L17.612 17.7391C16.329 16.7727 15.0947 15.7355 13.9196 14.6233L11.1699 17.5282ZM19.5666 23.8765C21.0709 24.7848 22.6112 25.615 24.1745 26.3727L25.9191 22.7732C24.4595 22.0657 23.0274 21.2936 21.6342 20.4523L19.5666 23.8765ZM28.9647 28.4515C30.5984 29.0832 32.2436 29.6457 33.8867 30.1448L35.0493 26.3175C33.4952 25.8454 31.9437 25.3148 30.4075 24.7207L28.9647 28.4515ZM59.4963 33.5888C60.4065 33.5617 61.2758 33.5169 62.0983 33.4565L61.8055 29.4673C61.0437 29.5232 60.2325 29.5651 59.3773 29.5906L59.4963 33.5888ZM49.1242 33.1795C50.9156 33.3649 52.6473 33.4867 54.2969 33.5541L54.4601 29.5574C52.8924 29.4934 51.2436 29.3775 49.5361 29.2008L49.1242 33.1795ZM38.9026 31.4826C40.6205 31.8799 42.3222 32.2134 43.9918 32.4899L44.6452 28.5436C43.0548 28.2803 41.4359 27.9629 39.8039 27.5854L38.9026 31.4826Z" fill="#BDBDBD"/>
</svg>
