<svg width="202" height="180" viewBox="0 0 202 180" fill="none" xmlns="http://www.w3.org/2000/svg">
<path d="M19.8345 63.1714C19.8345 66.1701 18.8376 68.4749 16.8438 70.0859C14.8659 71.681 12.1064 72.4785 8.56543 72.4785C6.85872 72.4785 5.36735 72.3589 4.09131 72.1196C2.83122 71.8804 1.65088 71.4816 0.550293 70.9233V64.9897C3.05452 66.4253 5.59863 67.1431 8.18262 67.1431C9.45866 67.1431 10.5034 66.8879 11.3169 66.3774C12.1304 65.8511 12.5371 65.1413 12.5371 64.248C12.5371 63.5622 12.242 62.9481 11.6519 62.4058C11.0617 61.8634 10.0169 61.1776 8.51758 60.3481C6.58757 59.2635 5.23975 58.1868 4.47412 57.1182C3.7085 56.0335 3.32568 54.7575 3.32568 53.29C3.32568 50.5785 4.20296 48.481 5.95752 46.9976C7.72803 45.4982 10.2482 44.7485 13.5181 44.7485C16.7241 44.7485 19.6191 45.5062 22.2031 47.0215L19.8345 52.1655C17.6014 50.8257 15.5438 50.1558 13.6616 50.1558C12.7524 50.1558 12.0187 50.3631 11.4604 50.7778C10.9022 51.1766 10.623 51.7189 10.623 52.4048C10.623 53.0269 10.8783 53.5771 11.3887 54.0557C11.8991 54.5182 12.8561 55.1084 14.2598 55.8262C16.2217 56.8311 17.6413 57.9237 18.5186 59.104C19.3958 60.2843 19.8345 61.6401 19.8345 63.1714ZM35.5059 66.6646C36.5426 66.6646 37.8346 66.3854 39.3818 65.8271V71.2104C37.6113 72.0558 35.4899 72.4785 33.0176 72.4785C30.625 72.4785 28.8625 71.9761 27.73 70.9712C26.6134 69.9663 26.0552 68.4111 26.0552 66.3057C26.0552 65.5081 26.1509 64.6149 26.3423 63.626L29.0938 50.73H25.457L26.1509 47.2129L30.8403 45.2031L33.9985 39.5566H38.6401L37.4678 45.251H44.2388L43.0425 50.73H36.2954L33.5439 63.626C33.4482 64.1045 33.4004 64.5272 33.4004 64.894C33.4004 66.0744 34.1022 66.6646 35.5059 66.6646ZM49.5742 45.251H56.7759L53.498 60.8745C53.2428 61.9591 53.1152 62.9082 53.1152 63.7217C53.1152 65.6836 53.9766 66.6646 55.6992 66.6646C57.1667 66.6646 58.4985 65.7554 59.6948 63.937C60.8911 62.1187 61.8322 59.5825 62.5181 56.3286L64.8628 45.251H72.0645L66.394 72H60.8911L61.3936 67.0474H61.25C58.9372 70.6681 56.106 72.4785 52.7563 72.4785C50.5552 72.4785 48.8724 71.8245 47.708 70.5166C46.5436 69.1927 45.9614 67.2866 45.9614 64.7983C45.9614 63.3149 46.1528 61.6162 46.5356 59.7021L49.5742 45.251ZM82.6396 72.4785C80.2949 72.4785 78.4447 71.6252 77.0889 69.9185C75.749 68.2118 75.0791 65.8192 75.0791 62.7407C75.0791 59.6144 75.6453 56.6317 76.7778 53.7925C77.9263 50.9373 79.4336 48.7202 81.2998 47.1411C83.166 45.5461 85.2236 44.7485 87.4727 44.7485C88.7806 44.7485 89.9051 45.0436 90.8462 45.6338C91.8032 46.224 92.7044 47.2368 93.5498 48.6724H93.7412L93.7891 48.0024C93.8848 46.2479 94.0841 44.6927 94.3872 43.3369L96.2056 34.7715H103.407L95.5117 72H90.0327L90.3677 68.5308H90.272C89.1395 69.9185 87.9512 70.9233 86.707 71.5454C85.4788 72.1675 84.123 72.4785 82.6396 72.4785ZM85.6543 66.6646C86.707 66.6646 87.7279 66.1222 88.7168 65.0376C89.7217 63.937 90.5272 62.4775 91.1333 60.6592C91.7394 58.8408 92.0425 56.8869 92.0425 54.7974C92.0425 53.5213 91.7394 52.5005 91.1333 51.7349C90.5431 50.9692 89.7297 50.5864 88.6929 50.5864C87.6082 50.5864 86.5715 51.1606 85.5825 52.3091C84.6095 53.4575 83.828 54.9728 83.2378 56.855C82.6636 58.7371 82.3765 60.6034 82.3765 62.4536C82.3765 65.2609 83.4691 66.6646 85.6543 66.6646ZM118.72 49.9404C117.316 49.9404 115.992 50.5785 114.748 51.8545C113.504 53.1305 112.69 54.6857 112.308 56.52H113.384C115.857 56.52 117.779 56.1372 119.15 55.3716C120.538 54.59 121.232 53.5373 121.232 52.2134C121.232 50.6981 120.395 49.9404 118.72 49.9404ZM114.796 72.4785C111.446 72.4785 108.846 71.5773 106.996 69.7749C105.146 67.9725 104.221 65.4284 104.221 62.1426C104.221 58.8408 104.875 55.8341 106.183 53.1226C107.507 50.395 109.293 48.3215 111.542 46.9019C113.791 45.4663 116.335 44.7485 119.174 44.7485C121.998 44.7485 124.199 45.4025 125.778 46.7104C127.357 48.0024 128.146 49.7809 128.146 52.0459C128.146 55.0286 126.815 57.3335 124.151 58.9604C121.487 60.5715 117.683 61.377 112.738 61.377H111.518L111.47 61.8794V62.3579C111.47 63.8094 111.877 64.9578 112.69 65.8032C113.52 66.6326 114.7 67.0474 116.231 67.0474C117.619 67.0474 118.879 66.8958 120.012 66.5928C121.144 66.2897 122.516 65.7554 124.127 64.9897V70.4209C121.383 71.7926 118.273 72.4785 114.796 72.4785ZM152.766 72H145.564L148.842 56.3765C149.097 55.2918 149.225 54.3428 149.225 53.5293C149.225 51.5674 148.364 50.5864 146.641 50.5864C145.174 50.5864 143.842 51.4956 142.646 53.314C141.449 55.1323 140.508 57.6685 139.822 60.9224L137.478 72H130.276L135.946 45.251H141.449L140.947 50.2036H141.09C143.419 46.5669 146.25 44.7485 149.584 44.7485C151.785 44.7485 153.484 45.4185 154.68 46.7583C155.892 48.0822 156.499 49.9803 156.499 52.4526C156.499 53.617 156.315 55.0526 155.948 56.7593L152.766 72ZM171.309 66.6646C172.345 66.6646 173.637 66.3854 175.185 65.8271V71.2104C173.414 72.0558 171.293 72.4785 168.82 72.4785C166.428 72.4785 164.665 71.9761 163.533 70.9712C162.416 69.9663 161.858 68.4111 161.858 66.3057C161.858 65.5081 161.954 64.6149 162.145 63.626L164.896 50.73H161.26L161.954 47.2129L166.643 45.2031L169.801 39.5566H174.443L173.271 45.251H180.042L178.845 50.73H172.098L169.347 63.626C169.251 64.1045 169.203 64.5272 169.203 64.894C169.203 66.0744 169.905 66.6646 171.309 66.6646ZM198.943 63.1714C198.943 66.1701 197.946 68.4749 195.952 70.0859C193.974 71.681 191.215 72.4785 187.674 72.4785C185.967 72.4785 184.476 72.3589 183.2 72.1196C181.94 71.8804 180.759 71.4816 179.659 70.9233V64.9897C182.163 66.4253 184.707 67.1431 187.291 67.1431C188.567 67.1431 189.612 66.8879 190.425 66.3774C191.239 65.8511 191.646 65.1413 191.646 64.248C191.646 63.5622 191.35 62.9481 190.76 62.4058C190.17 61.8634 189.125 61.1776 187.626 60.3481C185.696 59.2635 184.348 58.1868 183.583 57.1182C182.817 56.0335 182.434 54.7575 182.434 53.29C182.434 50.5785 183.311 48.481 185.066 46.9976C186.836 45.4982 189.357 44.7485 192.626 44.7485C195.833 44.7485 198.728 45.5062 201.312 47.0215L198.943 52.1655C196.71 50.8257 194.652 50.1558 192.77 50.1558C191.861 50.1558 191.127 50.3631 190.569 50.7778C190.011 51.1766 189.731 51.7189 189.731 52.4048C189.731 53.0269 189.987 53.5771 190.497 54.0557C191.007 54.5182 191.965 55.1084 193.368 55.8262C195.33 56.8311 196.75 57.9237 197.627 59.104C198.504 60.2843 198.943 61.6401 198.943 63.1714Z" fill="#4F4F4F"/>
<path d="M12.2979 173.665C13.3346 173.665 14.6266 173.385 16.1738 172.827V178.21C14.4033 179.056 12.2819 179.479 9.80957 179.479C7.41699 179.479 5.65446 178.976 4.52197 177.971C3.40544 176.966 2.84717 175.411 2.84717 173.306C2.84717 172.508 2.94287 171.615 3.13428 170.626L5.88574 157.73H2.24902L2.94287 154.213L7.63232 152.203L10.7905 146.557H15.4321L14.2598 152.251H21.0308L19.8345 157.73H13.0874L10.3359 170.626C10.2402 171.104 10.1924 171.527 10.1924 171.894C10.1924 173.074 10.8942 173.665 12.2979 173.665ZM36.75 156.94C35.3464 156.94 34.0225 157.578 32.7783 158.854C31.5342 160.131 30.7207 161.686 30.3379 163.52H31.4146C33.8869 163.52 35.8089 163.137 37.1807 162.372C38.5684 161.59 39.2622 160.537 39.2622 159.213C39.2622 157.698 38.4248 156.94 36.75 156.94ZM32.8262 179.479C29.4766 179.479 26.8766 178.577 25.0264 176.775C23.1761 174.972 22.251 172.428 22.251 169.143C22.251 165.841 22.9049 162.834 24.2129 160.123C25.5368 157.395 27.3232 155.321 29.5723 153.902C31.8213 152.466 34.3654 151.749 37.2046 151.749C40.0278 151.749 42.229 152.403 43.8081 153.71C45.3872 155.002 46.1768 156.781 46.1768 159.046C46.1768 162.029 44.8449 164.333 42.1812 165.96C39.5174 167.571 35.7132 168.377 30.7686 168.377H29.5483L29.5005 168.879V169.358C29.5005 170.809 29.9072 171.958 30.7207 172.803C31.5501 173.633 32.7305 174.047 34.2617 174.047C35.6494 174.047 36.9095 173.896 38.042 173.593C39.1745 173.29 40.5462 172.755 42.1572 171.99V177.421C39.4137 178.793 36.3034 179.479 32.8262 179.479ZM57.1348 179.479C54.79 179.479 52.9398 178.633 51.584 176.942C50.2441 175.236 49.5742 172.851 49.5742 169.789C49.5742 166.63 50.1484 163.624 51.2969 160.769C52.4453 157.897 53.9526 155.68 55.8188 154.117C57.6851 152.538 59.7347 151.749 61.9678 151.749C63.515 151.749 64.8468 152.083 65.9634 152.753C67.0959 153.423 67.9731 154.396 68.5952 155.672H68.7866L70.1504 152.251H75.7012L70.0068 179H64.5278L64.8628 175.531H64.7671C62.6297 178.163 60.0856 179.479 57.1348 179.479ZM59.958 173.665C61.0586 173.665 62.1193 173.13 63.1401 172.062C64.161 170.993 64.9824 169.549 65.6045 167.731C66.2266 165.897 66.5376 163.823 66.5376 161.51C66.5376 160.378 66.2266 159.445 65.6045 158.711C64.9984 157.961 64.1929 157.586 63.188 157.586C62.1034 157.586 61.0666 158.161 60.0776 159.309C59.1047 160.458 58.3231 161.973 57.7329 163.855C57.1587 165.737 56.8716 167.603 56.8716 169.454C56.8716 170.857 57.1348 171.91 57.6611 172.612C58.2035 173.314 58.9691 173.665 59.958 173.665ZM88.6689 179.479C85.4629 179.479 82.9985 178.625 81.2759 176.918C79.5692 175.196 78.7158 172.771 78.7158 169.645C78.7158 166.264 79.306 163.193 80.4863 160.434C81.6826 157.658 83.3574 155.521 85.5107 154.021C87.6641 152.506 90.1204 151.749 92.8799 151.749C95.7829 151.749 98.3988 152.323 100.728 153.471L98.5264 158.95C97.665 158.583 96.8197 158.264 95.9902 157.993C95.1608 157.722 94.2197 157.586 93.167 157.586C91.8112 157.586 90.583 158.097 89.4824 159.118C88.3978 160.139 87.5444 161.542 86.9224 163.329C86.3162 165.099 86.0132 167.005 86.0132 169.047C86.0132 170.578 86.3721 171.735 87.0898 172.516C87.8236 173.282 88.8364 173.665 90.1284 173.665C91.3407 173.665 92.4652 173.481 93.502 173.114C94.5387 172.731 95.6074 172.261 96.708 171.703V177.588C94.2835 178.848 91.6038 179.479 88.6689 179.479ZM123.625 179H116.423L119.701 163.376C119.956 162.292 120.083 161.343 120.083 160.529C120.083 158.567 119.222 157.586 117.5 157.586C116.032 157.586 114.7 158.496 113.504 160.314C112.308 162.132 111.367 164.668 110.681 167.922L108.336 179H101.134L109.03 141.771H116.231C115.609 144.659 115.131 146.876 114.796 148.423C114.461 149.97 113.775 152.434 112.738 155.816H112.93C113.919 154.588 115.019 153.607 116.231 152.873C117.444 152.123 118.847 151.749 120.442 151.749C122.644 151.749 124.342 152.418 125.539 153.758C126.751 155.082 127.357 156.98 127.357 159.453C127.357 160.617 127.174 162.053 126.807 163.759L123.625 179ZM146.521 156.94C145.118 156.94 143.794 157.578 142.55 158.854C141.306 160.131 140.492 161.686 140.109 163.52H141.186C143.658 163.52 145.58 163.137 146.952 162.372C148.34 161.59 149.034 160.537 149.034 159.213C149.034 157.698 148.196 156.94 146.521 156.94ZM142.598 179.479C139.248 179.479 136.648 178.577 134.798 176.775C132.948 174.972 132.022 172.428 132.022 169.143C132.022 165.841 132.676 162.834 133.984 160.123C135.308 157.395 137.095 155.321 139.344 153.902C141.593 152.466 144.137 151.749 146.976 151.749C149.799 151.749 152 152.403 153.58 153.71C155.159 155.002 155.948 156.781 155.948 159.046C155.948 162.029 154.616 164.333 151.953 165.96C149.289 167.571 145.485 168.377 140.54 168.377H139.32L139.272 168.879V169.358C139.272 170.809 139.679 171.958 140.492 172.803C141.322 173.633 142.502 174.047 144.033 174.047C145.421 174.047 146.681 173.896 147.813 173.593C148.946 173.29 150.318 172.755 151.929 171.99V177.421C149.185 178.793 146.075 179.479 142.598 179.479ZM177.338 151.749C178.279 151.749 179.045 151.836 179.635 152.012L178.056 158.95C177.338 158.695 176.54 158.567 175.663 158.567C173.813 158.567 172.186 159.301 170.782 160.769C169.395 162.22 168.406 164.31 167.815 167.037L165.279 179H158.078L163.748 152.251H169.251L168.749 157.204H168.892C171.237 153.567 174.052 151.749 177.338 151.749ZM197.651 170.171C197.651 173.17 196.654 175.475 194.66 177.086C192.682 178.681 189.923 179.479 186.382 179.479C184.675 179.479 183.184 179.359 181.908 179.12C180.648 178.88 179.467 178.482 178.367 177.923V171.99C180.871 173.425 183.415 174.143 185.999 174.143C187.275 174.143 188.32 173.888 189.133 173.377C189.947 172.851 190.354 172.141 190.354 171.248C190.354 170.562 190.058 169.948 189.468 169.406C188.878 168.863 187.833 168.178 186.334 167.348C184.404 166.264 183.056 165.187 182.291 164.118C181.525 163.034 181.142 161.757 181.142 160.29C181.142 157.578 182.019 155.481 183.774 153.998C185.544 152.498 188.065 151.749 191.334 151.749C194.541 151.749 197.436 152.506 200.02 154.021L197.651 159.166C195.418 157.826 193.36 157.156 191.478 157.156C190.569 157.156 189.835 157.363 189.277 157.778C188.719 158.177 188.439 158.719 188.439 159.405C188.439 160.027 188.695 160.577 189.205 161.056C189.715 161.518 190.673 162.108 192.076 162.826C194.038 163.831 195.458 164.924 196.335 166.104C197.212 167.284 197.651 168.64 197.651 170.171Z" fill="#4F4F4F"/>
<path d="M59.0234 2.51953C58.0208 2.51953 57.1257 2.80924 56.3379 3.38867C55.5501 3.9681 54.9186 4.81445 54.4434 5.92773C53.9746 7.03451 53.7402 8.25195 53.7402 9.58008C53.7402 10.752 54.0072 11.6504 54.541 12.2754C55.0814 12.8939 55.8757 13.2031 56.9238 13.2031C57.8418 13.2031 58.9128 12.9818 60.1367 12.5391V14.541C58.9648 14.9772 57.7474 15.1953 56.4844 15.1953C54.8698 15.1953 53.6035 14.7135 52.6855 13.75C51.7741 12.7799 51.3184 11.4225 51.3184 9.67773C51.3184 7.98503 51.6602 6.41276 52.3438 4.96094C53.0339 3.50911 53.9518 2.4056 55.0977 1.65039C56.2435 0.895182 57.5521 0.517578 59.0234 0.517578C60.4362 0.517578 61.7025 0.817057 62.8223 1.41602L61.9043 3.32031C61.4941 3.09896 61.0579 2.91016 60.5957 2.75391C60.1335 2.59766 59.6094 2.51953 59.0234 2.51953ZM70.1953 8.14453C70.1953 7.44792 70.0358 6.9043 69.7168 6.51367C69.3978 6.11654 68.9421 5.91797 68.3496 5.91797C67.7441 5.91797 67.2005 6.15234 66.7188 6.62109C66.2435 7.08333 65.8724 7.71484 65.6055 8.51562C65.3451 9.3099 65.2148 10.1595 65.2148 11.0645C65.2148 11.7871 65.3743 12.3405 65.6934 12.7246C66.0189 13.1087 66.4974 13.3008 67.1289 13.3008C67.7148 13.3008 68.2422 13.0794 68.7109 12.6367C69.1797 12.194 69.5443 11.5755 69.8047 10.7812C70.0651 9.98047 70.1953 9.10156 70.1953 8.14453ZM72.5098 8.24219C72.5098 9.55729 72.2721 10.7552 71.7969 11.8359C71.3216 12.9102 70.6673 13.737 69.834 14.3164C69.0072 14.8893 68.0534 15.1758 66.9727 15.1758C65.7227 15.1758 64.7298 14.8047 63.9941 14.0625C63.2585 13.3138 62.8906 12.2982 62.8906 11.0156C62.8906 9.72005 63.1217 8.5319 63.584 7.45117C64.0527 6.37044 64.707 5.5306 65.5469 4.93164C66.3867 4.32617 67.3568 4.02344 68.457 4.02344C69.7266 4.02344 70.7194 4.40104 71.4355 5.15625C72.1517 5.91146 72.5098 6.9401 72.5098 8.24219ZM80.293 15L81.6797 8.4375C81.7969 7.85156 81.8555 7.42513 81.8555 7.1582C81.8555 6.30534 81.4355 5.87891 80.5957 5.87891C80.127 5.87891 79.6647 6.06445 79.209 6.43555C78.7533 6.80664 78.3431 7.34375 77.9785 8.04688C77.6139 8.74349 77.3405 9.53451 77.1582 10.4199L76.2012 15H73.8965L76.2012 4.19922H77.998L77.793 6.20117H77.8809C78.4212 5.43294 78.9779 4.8763 79.5508 4.53125C80.1237 4.17969 80.7454 4.00391 81.416 4.00391C82.2884 4.00391 82.9622 4.2513 83.4375 4.74609C83.9193 5.24089 84.1602 5.94401 84.1602 6.85547C84.1602 7.30469 84.0853 7.89388 83.9355 8.62305L82.5977 15H80.293ZM92.0898 15L93.4766 8.4375C93.5938 7.85156 93.6523 7.42513 93.6523 7.1582C93.6523 6.30534 93.2324 5.87891 92.3926 5.87891C91.9238 5.87891 91.4616 6.06445 91.0059 6.43555C90.5501 6.80664 90.14 7.34375 89.7754 8.04688C89.4108 8.74349 89.1374 9.53451 88.9551 10.4199L87.998 15H85.6934L87.998 4.19922H89.7949L89.5898 6.20117H89.6777C90.2181 5.43294 90.7747 4.8763 91.3477 4.53125C91.9206 4.17969 92.5423 4.00391 93.2129 4.00391C94.0853 4.00391 94.7591 4.2513 95.2344 4.74609C95.7161 5.24089 95.957 5.94401 95.957 6.85547C95.957 7.30469 95.8822 7.89388 95.7324 8.62305L94.3945 15H92.0898ZM103.516 5.76172C102.891 5.76172 102.301 6.04167 101.748 6.60156C101.201 7.16146 100.807 7.90039 100.566 8.81836H100.85C102.074 8.81836 103.031 8.64583 103.721 8.30078C104.411 7.94922 104.756 7.45443 104.756 6.81641C104.756 6.48438 104.652 6.22721 104.443 6.04492C104.235 5.85612 103.926 5.76172 103.516 5.76172ZM102.031 15.1953C100.749 15.1953 99.7461 14.834 99.0234 14.1113C98.3073 13.3887 97.9492 12.3796 97.9492 11.084C97.9492 9.79492 98.1999 8.59701 98.7012 7.49023C99.209 6.37695 99.8926 5.51758 100.752 4.91211C101.618 4.30664 102.585 4.00391 103.652 4.00391C104.701 4.00391 105.514 4.24154 106.094 4.7168C106.68 5.18555 106.973 5.85286 106.973 6.71875C106.973 7.90365 106.429 8.83138 105.342 9.50195C104.261 10.166 102.718 10.498 100.713 10.498H100.293L100.273 10.8008V11.084C100.273 11.8066 100.456 12.373 100.82 12.7832C101.191 13.1934 101.742 13.3984 102.471 13.3984C102.939 13.3984 103.405 13.3366 103.867 13.2129C104.329 13.0892 104.876 12.8776 105.508 12.5781V14.4043C104.883 14.6908 104.307 14.8926 103.779 15.0098C103.258 15.1335 102.676 15.1953 102.031 15.1953ZM112.48 15.1953C111.204 15.1953 110.215 14.8503 109.512 14.1602C108.809 13.4701 108.457 12.4837 108.457 11.2012C108.457 9.85352 108.695 8.62956 109.17 7.5293C109.652 6.42253 110.326 5.5599 111.191 4.94141C112.057 4.31641 113.04 4.00391 114.141 4.00391C115.208 4.00391 116.175 4.20247 117.041 4.59961L116.357 6.39648C115.563 6.05143 114.844 5.87891 114.199 5.87891C113.223 5.87891 112.409 6.38021 111.758 7.38281C111.107 8.37891 110.781 9.61263 110.781 11.084C110.781 11.8066 110.964 12.3633 111.328 12.7539C111.693 13.1445 112.197 13.3398 112.842 13.3398C113.324 13.3398 113.773 13.2682 114.189 13.125C114.613 12.9818 115.036 12.806 115.459 12.5977V14.502C114.548 14.9642 113.555 15.1953 112.48 15.1953ZM121.299 13.3398C121.742 13.3398 122.233 13.2389 122.773 13.0371V14.7754C122.546 14.8861 122.236 14.9837 121.846 15.0684C121.455 15.153 121.064 15.1953 120.674 15.1953C118.89 15.1953 117.998 14.3913 117.998 12.7832C117.998 12.4121 118.05 11.9857 118.154 11.5039L119.336 5.9375H117.754L117.959 4.86328L119.814 4.0625L121.074 1.79688H122.5L121.992 4.19922H124.717L124.336 5.9375H121.631L120.439 11.5234C120.355 11.8815 120.312 12.181 120.312 12.4219C120.312 12.7018 120.394 12.9264 120.557 13.0957C120.719 13.2585 120.967 13.3398 121.299 13.3398ZM127.422 1.54297C127.422 1.10026 127.549 0.742188 127.803 0.46875C128.057 0.195312 128.415 0.0585938 128.877 0.0585938C129.222 0.0585938 129.502 0.146484 129.717 0.322266C129.932 0.491536 130.039 0.751953 130.039 1.10352C130.039 1.56576 129.909 1.93034 129.648 2.19727C129.388 2.46419 129.046 2.59766 128.623 2.59766C128.278 2.59766 127.992 2.51302 127.764 2.34375C127.536 2.17448 127.422 1.90755 127.422 1.54297ZM126.963 15H124.658L126.963 4.19922H129.258L126.963 15ZM136.562 15L137.949 8.4375C138.066 7.85156 138.125 7.42513 138.125 7.1582C138.125 6.30534 137.705 5.87891 136.865 5.87891C136.396 5.87891 135.934 6.06445 135.479 6.43555C135.023 6.80664 134.613 7.34375 134.248 8.04688C133.883 8.74349 133.61 9.53451 133.428 10.4199L132.471 15H130.166L132.471 4.19922H134.268L134.062 6.20117H134.15C134.691 5.43294 135.247 4.8763 135.82 4.53125C136.393 4.17969 137.015 4.00391 137.686 4.00391C138.558 4.00391 139.232 4.2513 139.707 4.74609C140.189 5.24089 140.43 5.94401 140.43 6.85547C140.43 7.30469 140.355 7.89388 140.205 8.62305L138.867 15H136.562ZM152.666 4.19922L152.363 5.53711L150.488 5.85938C150.671 6.23698 150.762 6.68294 150.762 7.19727C150.762 8.45378 150.374 9.45312 149.6 10.1953C148.825 10.931 147.786 11.2988 146.484 11.2988C146.146 11.2988 145.846 11.2728 145.586 11.2207C144.863 11.4811 144.502 11.8197 144.502 12.2363C144.502 12.4837 144.603 12.653 144.805 12.7441C145.013 12.8353 145.312 12.9069 145.703 12.959L146.943 13.1152C148.089 13.2585 148.91 13.5449 149.404 13.9746C149.899 14.3978 150.146 15.0065 150.146 15.8008C150.146 17.0768 149.655 18.0632 148.672 18.7598C147.689 19.4564 146.292 19.8047 144.482 19.8047C143.161 19.8047 142.139 19.5605 141.416 19.0723C140.687 18.584 140.322 17.9134 140.322 17.0605C140.322 16.39 140.55 15.8105 141.006 15.3223C141.455 14.834 142.181 14.4206 143.184 14.082C142.689 13.7891 142.441 13.3757 142.441 12.8418C142.441 12.3926 142.591 12.0052 142.891 11.6797C143.197 11.3477 143.675 11.0286 144.326 10.7227C143.447 10.1953 143.008 9.375 143.008 8.26172C143.008 6.98568 143.405 5.95703 144.199 5.17578C145 4.39453 146.055 4.00391 147.363 4.00391C147.884 4.00391 148.405 4.06901 148.926 4.19922H152.666ZM144.668 14.8242C143.939 14.9414 143.379 15.1725 142.988 15.5176C142.598 15.8626 142.402 16.2891 142.402 16.7969C142.402 17.2201 142.581 17.5553 142.939 17.8027C143.304 18.0566 143.857 18.1836 144.6 18.1836C145.661 18.1836 146.491 18.0078 147.09 17.6562C147.689 17.3047 147.988 16.8001 147.988 16.1426C147.988 15.8105 147.842 15.5501 147.549 15.3613C147.256 15.1725 146.742 15.0391 146.006 14.9609L144.668 14.8242ZM147.305 5.53711C146.882 5.53711 146.51 5.66406 146.191 5.91797C145.872 6.16536 145.625 6.50716 145.449 6.94336C145.273 7.37305 145.186 7.84505 145.186 8.35938C145.186 8.82161 145.299 9.17969 145.527 9.43359C145.762 9.68099 146.094 9.80469 146.523 9.80469C146.947 9.80469 147.311 9.67773 147.617 9.42383C147.93 9.16992 148.171 8.82161 148.34 8.37891C148.516 7.9362 148.604 7.45117 148.604 6.92383C148.604 5.99935 148.171 5.53711 147.305 5.53711Z" fill="#6F6C6C"/>
<path d="M99.2266 100.254C98.4336 100.254 97.8229 100.5 97.3945 100.992C96.9661 101.484 96.752 102.132 96.752 102.934C96.752 103.927 97.0345 104.843 97.5996 105.682C98.9395 104.998 99.8464 104.392 100.32 103.863C100.803 103.326 101.045 102.747 101.045 102.127C101.045 101.525 100.881 101.065 100.553 100.746C100.225 100.418 99.7826 100.254 99.2266 100.254ZM95.9453 115.594C96.6471 115.594 97.3171 115.471 97.9551 115.225C98.5931 114.979 99.2493 114.605 99.9238 114.104L96.3145 108.895C95.1022 109.569 94.2728 110.216 93.8262 110.836C93.3887 111.447 93.1699 112.144 93.1699 112.928C93.1699 113.712 93.4251 114.354 93.9355 114.855C94.446 115.348 95.1159 115.594 95.9453 115.594ZM89.9023 113.215C89.9023 111.875 90.2897 110.717 91.0645 109.742C91.8483 108.767 93.1562 107.833 94.9883 106.939C94.1862 105.563 93.7852 104.273 93.7852 103.07C93.7852 101.43 94.2956 100.126 95.3164 99.1602C96.3464 98.1849 97.7044 97.6973 99.3906 97.6973C100.849 97.6973 101.997 98.0664 102.836 98.8047C103.674 99.543 104.094 100.536 104.094 101.785C104.094 102.961 103.684 104.009 102.863 104.93C102.052 105.85 100.717 106.725 98.8574 107.555L102.07 112.012C103.064 110.991 103.889 109.646 104.545 107.979H107.73C106.701 110.439 105.347 112.508 103.67 114.186L106.473 118H102.686L101.4 116.209C100.434 116.938 99.4727 117.467 98.5156 117.795C97.5586 118.114 96.515 118.273 95.3848 118.273C93.653 118.273 92.304 117.831 91.3379 116.947C90.3809 116.054 89.9023 114.81 89.9023 113.215Z" fill="#BDBDBD"/>
<path fill-rule="evenodd" clip-rule="evenodd" d="M15.8025 82.2986C16.1348 83.1291 16.4884 83.9394 16.8622 84.73L20.4784 83.0204C20.1394 82.3034 19.8183 81.5676 19.5162 80.8125L15.8025 82.2986ZM19.4243 89.3761C20.3892 90.8923 21.4342 92.32 22.548 93.6638L25.6276 91.1111C24.6179 89.893 23.6719 88.6003 22.7989 87.2285L19.4243 89.3761ZM26.1699 97.5282C27.459 98.7485 28.8085 99.882 30.2055 100.934L32.612 97.7391C31.329 96.7727 30.0947 95.7355 28.9196 94.6233L26.1699 97.5282ZM34.5666 103.877C36.0709 104.785 37.6112 105.615 39.1745 106.373L40.9191 102.773C39.4595 102.066 38.0274 101.294 36.6342 100.452L34.5666 103.877ZM43.9647 108.451C45.5984 109.083 47.2436 109.646 48.8867 110.145L50.0493 106.318C48.4952 105.845 46.9437 105.315 45.4075 104.721L43.9647 108.451ZM74.4963 113.589C75.4065 113.562 76.2758 113.517 77.0983 113.457L76.8055 109.467C76.0437 109.523 75.2325 109.565 74.3773 109.591L74.4963 113.589ZM64.1242 113.18C65.9156 113.365 67.6473 113.487 69.2969 113.554L69.4601 109.557C67.8924 109.493 66.2436 109.378 64.5361 109.201L64.1242 113.18ZM53.9026 111.483C55.6205 111.88 57.3222 112.213 58.9918 112.49L59.6452 108.544C58.0548 108.28 56.4359 107.963 54.8039 107.585L53.9026 111.483Z" fill="#BDBDBD"/>
<path d="M116.419 114.746C136.316 113.326 177.437 115.439 182.75 135.244" stroke="#BDBDBD" stroke-width="4" stroke-linejoin="round" stroke-dasharray="5 5"/>
<path d="M187.352 139.589L185.863 128.179L176.726 135.173L187.352 139.589Z" fill="#C4C4C4"/>
<path fill-rule="evenodd" clip-rule="evenodd" d="M30.891 103.776C28.5055 101.979 26.2012 100.044 24 97.9602L28.6953 93C30.7016 94.8992 32.8092 96.6702 35 98.3202L30.891 103.776Z" fill="#1DBA8D"/>
</svg>
