<svg width="174" height="115" viewBox="0 0 174 115" fill="none"
  xmlns="http://www.w3.org/2000/svg">
  <g filter="url(#filter0_d)">
    <path d="M47.0049 9.19721C47.0049 4.11773 50.7358 0 55.3381 0H117.517C122.119 0 125.85 4.11773 125.85 9.19721V69.6865C125.85 74.766 122.119 78.8837 117.517 78.8837H55.3381C50.7358 78.8837 47.0049 74.766 47.0049 69.6865V9.19721Z" fill="#1D6650" />
    <path fill-rule="evenodd" clip-rule="evenodd" d="M126.011 35.1357V69.3327C126.011 74.4122 122.28 78.53 117.677 78.53H108.965L86.9085 66.8566L86.4277 49.1696L124.248 34.3126L126.011 35.1357Z" fill="#0F392D" />
    <mask id="mask0" mask-type="alpha" maskUnits="userSpaceOnUse" x="47" y="0" width="80" height="79">
      <path d="M47.3252 9.19721C47.3252 4.11773 51.0561 0 55.6584 0H117.837C122.44 0 126.171 4.11773 126.171 9.19721V69.6865C126.171 74.766 122.44 78.8837 117.837 78.8837H55.6584C51.0561 78.8837 47.3252 74.766 47.3252 69.6865V9.19721Z" fill="#27D19E" />
    </mask>
    <g mask="url(#mask0)">
      <path fill-rule="evenodd" clip-rule="evenodd" d="M57.582 85.9585H62.7109H67.4058H70.3037L121.043 -5.30603H108.321L57.582 85.9585Z" fill="#359276" />
      <path opacity="0.9" fill-rule="evenodd" clip-rule="evenodd" d="M31.2998 88.4346H46.412H51.1031H53.9986L104.697 -2.82996H89.3883H86.0592H81.9977L31.2998 88.4346Z" fill="#59DE7E" />
      <path fill-rule="evenodd" clip-rule="evenodd" d="M65.8083 -6.20016L30.5903 54.9772L30.4385 55.1737V71.1909H26.0362C24.6948 71.1909 23.6074 72.3883 23.6074 73.8653V82.2229C23.6074 83.6999 24.6948 84.8973 26.0363 84.8973H33.6467L84.5043 -6.36731H65.8083V-6.20016Z" fill="#37A081" />
    </g>
    <path d="M86.3157 51.7245L48.6074 34.4306L86.3157 16.9795L124.248 34.4306L86.3157 51.7245Z" fill="white" />
    <path fill-rule="evenodd" clip-rule="evenodd" d="M86.5464 67.2082C86.5859 67.2088 86.6255 67.2093 86.6649 67.2097V67.2059C94.9206 67.0184 105.025 60.9783 109.101 57.9345V43.1561L86.5464 53.0981L63.9922 43.1561V57.9345C68.0677 60.9783 78.1722 67.0184 86.4279 67.2059V67.2097C86.4673 67.2093 86.5068 67.2088 86.5464 67.2082Z" fill="white" />
  </g>
  <g filter="url(#filter1_d)">
    <path d="M12.627 105.078C12.0671 105.026 11.4128 105 10.6641 105H9.89258L14.1406 93.0957C14.3294 92.5618 14.4238 92.2526 14.4238 92.168C14.4238 92.0768 14.4206 92.0215 14.4141 92.002L14.4238 91.9824C14.847 92.002 15.2962 92.0117 15.7715 92.0117C16.1621 92.0117 16.6309 92.0052 17.1777 91.9922L17.1875 92.0117C17.1745 92.0378 17.168 92.0736 17.168 92.1191C17.168 92.2428 17.2656 92.5716 17.4609 93.1055L21.7969 105.029C21.6667 105.023 21.5137 105.02 21.3379 105.02C21.3379 105.02 21.1686 105.013 20.8301 105C20.6673 105 20.5208 105 20.3906 105H18.877L17.959 102.188H13.5449L12.627 105.078ZM17.1973 99.8438L15.7227 95.3027L14.2871 99.8438H17.1973ZM30.1367 104.453C29.3099 104.915 28.4831 105.146 27.6562 105.146C26.8294 105.146 26.1068 105.016 25.4883 104.756C24.8698 104.495 24.3424 104.137 23.9062 103.682C23.0078 102.744 22.5586 101.527 22.5586 100.029C22.5586 98.4798 23.0794 97.1908 24.1211 96.1621C25.1693 95.1204 26.5104 94.5996 28.1445 94.5996C28.6458 94.5996 29.1374 94.6647 29.6191 94.7949V90.4492H32.0117V100.889C32.0117 101.755 32.0508 102.321 32.1289 102.588C32.2135 102.855 32.3047 103.05 32.4023 103.174C32.5065 103.298 32.6367 103.415 32.793 103.525L30.957 105.146C30.6185 104.964 30.3451 104.733 30.1367 104.453ZM28.1152 102.9C28.6621 102.9 29.1634 102.796 29.6191 102.588V97.1777C29.1634 96.9889 28.6686 96.8945 28.1348 96.8945C27.6009 96.8945 27.1419 96.9661 26.7578 97.1094C26.3802 97.2526 26.0547 97.4512 25.7812 97.7051C25.2083 98.2389 24.9219 98.9323 24.9219 99.7852C24.9219 100.716 25.1823 101.458 25.7031 102.012C26.263 102.604 27.0671 102.9 28.1152 102.9ZM34.0918 99.9512C34.0918 99.235 34.2122 98.5514 34.4531 97.9004C34.7005 97.2428 35.0521 96.6699 35.5078 96.1816C36.5039 95.127 37.7962 94.5996 39.3848 94.5996C40.9668 94.5996 42.2233 95.0977 43.1543 96.0938C44.0462 97.0443 44.4922 98.278 44.4922 99.7949C44.4922 101.312 44.0332 102.568 43.1152 103.564C42.1452 104.619 40.8594 105.146 39.2578 105.146C37.6042 105.146 36.3086 104.629 35.3711 103.594C34.5182 102.65 34.0918 101.436 34.0918 99.9512ZM36.4648 99.8926C36.4648 100.303 36.5332 100.7 36.6699 101.084C36.8066 101.468 37.002 101.797 37.2559 102.07C37.7962 102.663 38.5059 102.959 39.3848 102.959C40.1986 102.959 40.8398 102.669 41.3086 102.09C41.7643 101.53 41.9922 100.801 41.9922 99.9023C41.9922 98.9909 41.7578 98.2552 41.2891 97.6953C40.7878 97.0964 40.1009 96.7969 39.2285 96.7969C38.3431 96.7969 37.6497 97.1159 37.1484 97.7539C36.6927 98.3398 36.4648 99.0527 36.4648 99.8926ZM49.0723 104.795V107.666C49.0723 108.226 49.0853 108.59 49.1113 108.76H46.6797V94.7949H49.0723V95.4297C49.86 94.8763 50.6152 94.5996 51.3379 94.5996C52.0605 94.5996 52.7018 94.7005 53.2617 94.9023C53.8216 95.1042 54.3132 95.4167 54.7363 95.8398C55.6673 96.7578 56.1328 98.0664 56.1328 99.7656C56.1328 100.892 55.8691 101.898 55.3418 102.783C54.8926 103.532 54.2708 104.131 53.4766 104.58C52.7734 104.977 52.0117 105.176 51.1914 105.176C50.3711 105.176 49.6647 105.049 49.0723 104.795ZM49.0723 102.334C49.5671 102.751 50.2083 102.959 50.9961 102.959C52.2852 102.959 53.1185 102.337 53.4961 101.094C53.6263 100.671 53.6914 100.218 53.6914 99.7363C53.6914 99.248 53.6458 98.8607 53.5547 98.5742C53.4635 98.2812 53.3431 98.0306 53.1934 97.8223C53.0501 97.6074 52.8874 97.4316 52.7051 97.2949C52.5228 97.1517 52.3372 97.0378 52.1484 96.9531C51.8164 96.8034 51.4746 96.7285 51.123 96.7285C50.7715 96.7285 50.4069 96.8099 50.0293 96.9727C49.6517 97.1354 49.3327 97.3535 49.0723 97.627V102.334ZM62.7246 102.852C63.5645 102.852 64.1406 102.633 64.4531 102.197H64.5312L64.5605 104.463C64.2415 104.782 63.6491 104.993 62.7832 105.098C62.5488 105.13 62.2559 105.146 61.9043 105.146C61.5592 105.146 61.1816 105.081 60.7715 104.951C60.3678 104.821 60.0228 104.609 59.7363 104.316C59.1439 103.711 58.8477 102.764 58.8477 101.475V97.041H57.373C57.3665 96.8522 57.3633 96.6602 57.3633 96.4648V94.9609C57.3633 94.8503 57.3665 94.7949 57.373 94.7949H58.8477V92.0117H61.2402V94.7949H63.9258V97.041H61.2402V101.025C61.2402 102.048 61.5234 102.63 62.0898 102.773C62.2721 102.826 62.4837 102.852 62.7246 102.852ZM79.9316 104.395C79.0072 104.896 78.1706 105.146 77.4219 105.146C76.6732 105.146 76.0319 105.078 75.498 104.941C74.9642 104.798 74.5117 104.59 74.1406 104.316C73.3854 103.763 73.0078 102.962 73.0078 101.914C73.0078 100.977 73.4701 100.195 74.3945 99.5703C75.3971 98.8932 76.7578 98.5547 78.4766 98.5547L78.8672 98.5645C78.9453 98.571 79.0332 98.5775 79.1309 98.584C79.2285 98.584 79.3164 98.5905 79.3945 98.6035C79.3424 97.5618 78.8932 96.9531 78.0469 96.7773C77.7669 96.7188 77.4674 96.6895 77.1484 96.6895C76.8359 96.6895 76.5267 96.7188 76.2207 96.7773C75.9212 96.8294 75.6283 96.901 75.3418 96.9922C74.7103 97.194 74.2578 97.4251 73.9844 97.6855L73.9551 97.666L73.6621 95.5078C74.8145 94.9023 76.0742 94.5996 77.4414 94.5996C79.5638 94.5996 80.9212 95.3646 81.5137 96.8945C81.7025 97.3828 81.7969 97.9329 81.7969 98.5449V102.08C81.7969 102.835 82.0638 103.35 82.5977 103.623L80.8301 105.244C80.459 105.049 80.1595 104.766 79.9316 104.395ZM79.4043 100.361C79.2285 100.329 79.0462 100.312 78.8574 100.312H78.4668C77.028 100.312 76.1133 100.632 75.7227 101.27C75.6055 101.458 75.5469 101.657 75.5469 101.865C75.5469 102.074 75.5827 102.259 75.6543 102.422C75.7324 102.578 75.8594 102.708 76.0352 102.812C76.3737 103.008 76.875 103.105 77.5391 103.105C78.2096 103.105 78.8346 102.946 79.4141 102.627C79.4076 102.555 79.4043 102.48 79.4043 102.402V100.361ZM99.5801 92.7344L99.3945 95.6055L99.3262 95.625C98.8444 94.9023 98.0241 94.4336 96.8652 94.2188C96.5007 94.1471 96.1491 94.1113 95.8105 94.1113C95.4785 94.1113 95.1921 94.1406 94.9512 94.1992C94.7168 94.2578 94.515 94.3424 94.3457 94.4531C93.9876 94.6875 93.8086 94.9935 93.8086 95.3711C93.8086 95.8659 93.9648 96.237 94.2773 96.4844C94.668 96.7839 95.3158 96.9954 96.2207 97.1191C97.1257 97.2363 97.8516 97.3991 98.3984 97.6074C98.9453 97.8158 99.3945 98.0794 99.7461 98.3984C100.41 98.9974 100.742 99.8438 100.742 100.938C100.742 102.37 100.202 103.473 99.1211 104.248C98.1966 104.912 97.0312 105.244 95.625 105.244C94.4922 105.244 93.3724 105.029 92.2656 104.6C91.901 104.456 91.582 104.29 91.3086 104.102L91.416 100.84L91.4551 100.811C92.2624 102.204 93.5872 102.9 95.4297 102.9C96.7383 102.9 97.6042 102.585 98.0273 101.953C98.1706 101.738 98.2422 101.501 98.2422 101.24C98.2422 100.973 98.1999 100.755 98.1152 100.586C98.0306 100.41 97.8906 100.26 97.6953 100.137C97.3177 99.8893 96.6829 99.7233 95.791 99.6387C94.8991 99.554 94.1699 99.3945 93.6035 99.1602C93.0371 98.9258 92.5846 98.6361 92.2461 98.291C91.6341 97.666 91.3281 96.7936 91.3281 95.6738C91.3281 94.515 91.735 93.5775 92.5488 92.8613C93.3757 92.1322 94.4889 91.7676 95.8887 91.7676C97.2949 91.7676 98.5254 92.0898 99.5801 92.7344ZM107.686 102.852C108.525 102.852 109.102 102.633 109.414 102.197H109.492L109.521 104.463C109.202 104.782 108.61 104.993 107.744 105.098C107.51 105.13 107.217 105.146 106.865 105.146C106.52 105.146 106.143 105.081 105.732 104.951C105.329 104.821 104.984 104.609 104.697 104.316C104.105 103.711 103.809 102.764 103.809 101.475V97.041H102.334C102.327 96.8522 102.324 96.6602 102.324 96.4648V94.9609C102.324 94.8503 102.327 94.7949 102.334 94.7949H103.809V92.0117H106.201V94.7949H108.887V97.041H106.201V101.025C106.201 102.048 106.484 102.63 107.051 102.773C107.233 102.826 107.445 102.852 107.686 102.852ZM117.627 104.111C116.794 104.801 115.885 105.146 114.902 105.146C113.848 105.146 113.021 104.792 112.422 104.082C111.849 103.392 111.562 102.445 111.562 101.24V97.3633C111.562 96.0612 111.533 95.3158 111.475 95.127C111.423 94.9316 111.383 94.8079 111.357 94.7559C111.657 94.7819 111.969 94.7949 112.295 94.7949H113.105C113.32 94.7949 113.604 94.7852 113.955 94.7656V100.42C113.955 101.761 114.32 102.539 115.049 102.754C115.27 102.819 115.511 102.852 115.771 102.852C116.54 102.852 117.158 102.572 117.627 102.012V94.7949H120.049V103.75C120.049 104.323 120.075 104.74 120.127 105H117.627V104.111ZM130.176 104.453C129.349 104.915 128.522 105.146 127.695 105.146C126.868 105.146 126.146 105.016 125.527 104.756C124.909 104.495 124.382 104.137 123.945 103.682C123.047 102.744 122.598 101.527 122.598 100.029C122.598 98.4798 123.118 97.1908 124.16 96.1621C125.208 95.1204 126.549 94.5996 128.184 94.5996C128.685 94.5996 129.176 94.6647 129.658 94.7949V90.4492H132.051V100.889C132.051 101.755 132.09 102.321 132.168 102.588C132.253 102.855 132.344 103.05 132.441 103.174C132.546 103.298 132.676 103.415 132.832 103.525L130.996 105.146C130.658 104.964 130.384 104.733 130.176 104.453ZM128.154 102.9C128.701 102.9 129.202 102.796 129.658 102.588V97.1777C129.202 96.9889 128.708 96.8945 128.174 96.8945C127.64 96.8945 127.181 96.9661 126.797 97.1094C126.419 97.2526 126.094 97.4512 125.82 97.7051C125.247 98.2389 124.961 98.9323 124.961 99.7852C124.961 100.716 125.221 101.458 125.742 102.012C126.302 102.604 127.106 102.9 128.154 102.9ZM134.385 99.9805C134.385 99.2188 134.515 98.5124 134.775 97.8613C135.036 97.2103 135.404 96.6406 135.879 96.1523C136.895 95.1172 138.223 94.5996 139.863 94.5996C141.25 94.5996 142.363 95.0586 143.203 95.9766C144.03 96.862 144.443 97.9753 144.443 99.3164C144.443 99.8307 144.404 100.182 144.326 100.371C143.675 100.553 142.35 100.645 140.352 100.645H136.914C137.083 101.341 137.477 101.885 138.096 102.275C138.714 102.66 139.518 102.852 140.508 102.852C141.543 102.852 142.432 102.666 143.174 102.295C143.369 102.197 143.516 102.106 143.613 102.021C143.6 102.295 143.584 102.575 143.564 102.861L143.457 104.385C142.962 104.723 142.161 104.958 141.055 105.088C140.729 105.127 140.417 105.146 140.117 105.146C138.464 105.146 137.096 104.665 136.016 103.701C134.928 102.731 134.385 101.491 134.385 99.9805ZM141.846 98.75C141.579 97.3503 140.817 96.6504 139.561 96.6504C138.571 96.6504 137.819 97.0768 137.305 97.9297C137.148 98.1901 137.028 98.4766 136.943 98.7891C137.1 98.7956 137.292 98.8021 137.52 98.8086H138.242C138.483 98.8151 138.714 98.8184 138.936 98.8184H139.492C139.824 98.8184 140.15 98.8151 140.469 98.8086L141.27 98.7793C141.484 98.7728 141.676 98.763 141.846 98.75ZM149.141 103.75C149.141 104.323 149.167 104.74 149.219 105H146.768V94.7949H149.141V95.6641C150 94.9544 150.918 94.5996 151.895 94.5996C152.962 94.5996 153.815 94.9642 154.453 95.6934C155.091 96.416 155.41 97.3698 155.41 98.5547V102.441C155.41 103.542 155.426 104.202 155.459 104.424C155.492 104.645 155.534 104.788 155.586 104.854C155.645 104.919 155.693 104.977 155.732 105.029L155.713 105.068C155.186 105.023 154.801 105 154.561 105H153.877C153.669 105 153.389 105.01 153.037 105.029V99.707C153.037 97.7995 152.458 96.8457 151.299 96.8457C150.439 96.8457 149.72 97.2884 149.141 98.1738V103.75ZM162.803 102.852C163.643 102.852 164.219 102.633 164.531 102.197H164.609L164.639 104.463C164.32 104.782 163.727 104.993 162.861 105.098C162.627 105.13 162.334 105.146 161.982 105.146C161.637 105.146 161.26 105.081 160.85 104.951C160.446 104.821 160.101 104.609 159.814 104.316C159.222 103.711 158.926 102.764 158.926 101.475V97.041H157.451C157.445 96.8522 157.441 96.6602 157.441 96.4648V94.9609C157.441 94.8503 157.445 94.7949 157.451 94.7949H158.926V92.0117H161.318V94.7949H164.004V97.041H161.318V101.025C161.318 102.048 161.602 102.63 162.168 102.773C162.35 102.826 162.562 102.852 162.803 102.852Z" fill="#4F4F4F" />
  </g>
  <defs>
    <filter id="filter0_d" x="43.0049" y="0" width="87.0058" height="86.8837" filterUnits="userSpaceOnUse" color-interpolation-filters="sRGB">
      <feFlood flood-opacity="0" result="BackgroundImageFix" />
      <feColorMatrix in="SourceAlpha" type="matrix" values="0 0 0 0 0 0 0 0 0 0 0 0 0 0 0 0 0 0 127 0" />
      <feOffset dy="4" />
      <feGaussianBlur stdDeviation="2" />
      <feColorMatrix type="matrix" values="0 0 0 0 0 0 0 0 0 0 0 0 0 0 0 0 0 0 0.25 0" />
      <feBlend mode="normal" in2="BackgroundImageFix" result="effect1_dropShadow" />
      <feBlend mode="normal" in="SourceGraphic" in2="effect1_dropShadow" result="shape" />
    </filter>
    <filter id="filter1_d" x="5.89258" y="88.4492" width="162.746" height="26.3105" filterUnits="userSpaceOnUse" color-interpolation-filters="sRGB">
      <feFlood flood-opacity="0" result="BackgroundImageFix" />
      <feColorMatrix in="SourceAlpha" type="matrix" values="0 0 0 0 0 0 0 0 0 0 0 0 0 0 0 0 0 0 127 0" />
      <feOffset dy="2" />
      <feGaussianBlur stdDeviation="2" />
      <feColorMatrix type="matrix" values="0 0 0 0 0 0 0 0 0 0 0 0 0 0 0 0 0 0 0.25 0" />
      <feBlend mode="normal" in2="BackgroundImageFix" result="effect1_dropShadow" />
      <feBlend mode="normal" in="SourceGraphic" in2="effect1_dropShadow" result="shape" />
    </filter>
  </defs>
</svg>
