<svg width="408" height="231" viewBox="0 0 408 231" fill="none"
  xmlns="http://www.w3.org/2000/svg">
  <path d="M-10 0.00012207H292.5C354.08 0.00012207 404 49.9204 404 111.5C404 173.08 354.08 223 292.5 223H-10V0.00012207Z" fill="#D3EDF1" />
  <g filter="url(#filter0_d)">
    <path fill-rule="evenodd" clip-rule="evenodd" d="M-10 0H292.5C354.08 0 404 49.9203 404 111.5C404 162.625 369.591 205.714 322.668 218.871C320.824 213.542 318.915 208.232 317.007 202.923L316.823 202.41C315.062 197.512 313.266 192.628 311.47 187.742L311.47 187.741L311.469 187.74L311.469 187.738L311.468 187.737L311.468 187.736L311.467 187.735L311.467 187.734L311.466 187.732L311.466 187.731L311.465 187.73L311.465 187.729L311.465 187.727L311.464 187.726L311.464 187.725L311.463 187.724L311.463 187.722L311.462 187.721L311.462 187.72L311.461 187.719L311.461 187.717L311.46 187.716L311.46 187.715L311.459 187.714L311.459 187.713L311.459 187.711L311.458 187.71L311.458 187.709L311.457 187.708L311.457 187.706L311.456 187.705L311.456 187.704L311.455 187.703L311.455 187.701L311.451 187.691C310.682 185.6 309.913 183.508 309.147 181.416C308.282 180.25 307.827 178.904 307.371 177.558L307.371 177.557C307.127 176.837 306.883 176.117 306.577 175.424C306.414 175.06 306.241 174.757 306.031 174.516L307.426 174.581C309.561 180.474 317.051 189.771 317.453 190.267C318.365 191.6 319.268 192.94 320.142 194.298C320.946 195.548 321.361 195.538 322.412 194.445C326.105 190.595 329.862 186.808 333.619 183.021L333.619 183.021L333.62 183.021L333.62 183.021L333.62 183.02L333.62 183.02L333.62 183.02L333.62 183.02L333.621 183.02L333.621 183.019L333.621 183.019L333.621 183.019L333.621 183.019L333.622 183.018L333.622 183.018L333.622 183.018L333.622 183.018L333.622 183.017L333.622 183.017L333.623 183.017L333.623 183.017L333.623 183.017L333.623 183.016L333.623 183.016C334.856 181.774 336.088 180.531 337.318 179.287C338.353 178.307 339.324 177.262 340.295 176.217L340.295 176.217L340.296 176.216C341.818 174.578 343.342 172.939 345.11 171.548C346.73 170.032 345.682 169.099 344.693 168.217C344.527 168.07 344.363 167.923 344.213 167.776C337.519 161.177 331.25 154.204 325.36 146.88C316.418 135.762 308.408 124.049 301.853 111.353C298.734 105.315 295.863 98.4159 293.616 92.0085C293.55 91.2562 293.468 90.9966 293.383 91.0313C294.561 87.2164 296.554 82.0005 296.554 82.0005L289.968 81.0642L288.489 80.8832C288.817 80.4715 288.954 79.6806 289.107 78.3679L289.148 76.0966C289.616 75.7108 290.109 75.397 290.407 75.2185C290.882 75.4481 291.357 75.6755 291.833 75.903C293.117 76.5176 294.402 77.132 295.666 77.7869C300.076 80.0671 303.896 78.8859 305.369 74.5625C306.857 70.1957 307.947 65.6978 307.983 61.0666C307.989 60.186 307.944 59.3034 307.898 58.4193V58.4185V58.4177V58.417V58.4162V58.4154V58.4147V58.4139V58.4131V58.4123V58.4115V58.4107V58.4099V58.4091V58.4083V58.4075V58.4067V58.4059V58.4051V58.4043V58.4035V58.4026V58.4018V58.401V58.4001V58.3993V58.3985V58.3976V58.3968V58.3959V58.3951V58.3948V58.3945V58.3943V58.394V58.3937V58.3934V58.3931V58.3928V58.3925V58.3923V58.392V58.3917V58.3914V58.3911V58.3908V58.3905V58.3902V58.39V58.3897V58.3894V58.3891V58.3888V58.3885V58.3883V58.388V58.3877V58.3874V58.3871V58.3868V58.3865C307.825 56.9571 307.752 55.5239 307.892 54.0887C308.733 54.0913 309.38 53.5465 309.65 52.9376C310.573 50.8557 311.164 48.6574 311.754 46.461C311.856 46.0798 311.959 45.6986 312.063 45.3181C312.3 44.4773 312.096 43.6982 311.895 42.9291C311.747 42.3663 311.601 41.8089 311.631 41.2364C311.79 38.2361 310.698 35.5692 308.912 33.4368C304.738 28.4552 299.658 24.7255 292.915 23.9629C292.44 23.9107 292.054 23.8173 291.83 23.5792C290.301 23.7997 288.643 23.8511 286.921 23.7061C285.671 23.6009 284.47 23.3982 283.34 23.1122C283.046 23.1849 282.688 23.1385 282.335 23.0438C280.111 22.4383 277.774 22.9401 275.878 23.5563C268.484 25.9515 261.838 29.673 258.226 37.0737C256.41 40.7996 254.9 44.6447 254.483 48.8702C254.401 49.7251 254.567 50.5157 254.732 51.3009C254.878 51.9995 255.024 52.6939 254.993 53.4256C254.902 55.6152 255.561 57.7826 256.459 59.6575C257.958 62.7853 259.73 65.8588 262.534 68.1134C265.947 70.8539 269.394 73.5688 274.004 73.8473C274.867 73.9006 275.525 74.2615 276.196 74.6297C276.35 74.7142 276.504 74.7992 276.663 74.8808C276.513 75.6106 276.418 76.2907 276.396 76.8918L276.464 76.8786L276.291 78.142C276.618 78.1757 276.954 78.1876 277.29 78.1995C278.048 78.2264 278.808 78.2534 279.463 78.5308C279.76 78.6564 280.12 78.6865 280.483 78.717C281.324 78.7874 282.185 78.8596 282.343 80.1177C282.402 80.1302 282.461 80.1425 282.52 80.1546L282.522 80.1591C282.462 80.1468 282.401 80.1344 282.341 80.1218C282.181 78.8714 281.321 78.7994 280.482 78.7291C280.119 78.6986 279.759 78.6685 279.462 78.5429C278.802 78.2632 278.035 78.2361 277.27 78.2092C276.94 78.1975 276.61 78.1859 276.29 78.1541C274.681 77.7709 273.461 78.4643 272.34 79.5355C271.472 80.3639 270.607 81.1947 269.742 82.0259C268.675 82.1072 267.648 82.3015 266.692 82.5586C266.033 82.7358 265.354 83.1159 264.664 83.6475C264.56 83.4225 264.372 83.2359 264.122 83.1382L237.977 72.8934C236.694 72.2701 234.692 71.9024 232.622 72.6989C230.653 73.4567 228.871 75.1694 227.617 78.1495C227.403 78.6585 227.679 79.2318 228.199 79.416L229.373 79.8311C229.689 79.9428 230.022 79.8851 230.284 79.7095C228.588 84.3946 217.797 112.782 210.295 132.475C209.594 138.752 212.455 146.293 225.206 150.324C222.484 157.784 220.196 165.404 218.407 173.176C218.187 174.122 218.018 175.078 217.849 176.032C217.61 177.385 217.371 178.735 216.991 180.05C216.329 182.339 215.865 184.67 215.402 187C215.14 188.318 214.877 189.637 214.579 190.948C214.199 192.617 214.75 193.354 216.472 193.154L216.397 193.48C215.575 197.043 214.744 200.645 211.831 203.181C210.293 204.523 208.583 205.672 206.879 206.818C206.616 206.995 206.353 207.171 206.091 207.349C204.729 208.27 203.354 209.169 201.978 210.067L201.976 210.068C200.306 211.16 198.636 212.251 196.993 213.382C195.035 214.732 194.823 216.907 196.543 217.994C199.328 219.756 202.397 220.396 205.563 219.261C207.644 218.516 209.687 217.669 211.731 216.821L211.734 216.82L211.736 216.819L211.738 216.818C212.922 216.328 214.106 215.837 215.298 215.365C217.436 214.518 219.314 214.936 220.865 216.675C221.149 216.993 221.439 217.307 221.73 217.62L221.73 217.62L221.73 217.62L221.73 217.621L221.731 217.621L221.731 217.621L221.731 217.621L221.731 217.621L221.731 217.622L221.731 217.622L221.732 217.622L221.732 217.622L221.732 217.622L221.732 217.622L221.732 217.623L221.733 217.623L221.733 217.623L221.733 217.623L221.733 217.623L221.733 217.624L221.734 217.624L221.734 217.624L221.734 217.624L221.734 217.624L221.734 217.624L221.734 217.625L221.735 217.625L221.735 217.625C222.203 218.13 222.671 218.635 223.109 219.163C223.984 220.211 225.329 220.251 226.194 219.816C226.955 219.434 226.542 218.77 226.171 218.173C226.046 217.973 225.925 217.779 225.856 217.607C224.53 214.303 223.353 210.865 223.758 207.353C224.281 202.824 226.301 198.692 228.298 194.609L228.514 194.168L228.515 194.168C230.381 194.343 232.247 194.518 234.114 194.692L234.121 194.693L234.128 194.693L234.135 194.694L234.142 194.695L234.149 194.695C235.991 194.868 237.834 195.04 239.678 195.213C239.996 195.229 240.316 195.236 240.635 195.243C241.169 195.255 241.703 195.266 242.229 195.32C241.708 195.269 241.181 195.258 240.654 195.247C240.326 195.24 239.999 195.233 239.674 195.217C239.651 195.388 239.637 195.561 239.622 195.735C239.591 196.091 239.561 196.448 239.464 196.787C238.61 199.745 237.758 202.728 237.145 205.714C236.672 208.016 236.075 210.286 235.479 212.554L235.479 212.555L235.479 212.555L235.478 212.555L235.478 212.555L235.478 212.556L235.478 212.556L235.478 212.556L235.478 212.557L235.478 212.557L235.478 212.557L235.478 212.558L235.478 212.558L235.478 212.558L235.477 212.559L235.477 212.559L235.477 212.559L235.477 212.56L235.477 212.56L235.477 212.56L235.477 212.561L235.477 212.561L235.477 212.561L235.477 212.562L235.477 212.562L235.476 212.562L235.476 212.563L235.476 212.563L235.476 212.563L235.476 212.563L235.476 212.564L235.476 212.564L235.476 212.564L235.476 212.565L235.476 212.565L235.476 212.565L235.475 212.566L235.475 212.566L235.475 212.566L235.475 212.567L235.475 212.567L235.475 212.567L235.475 212.568L235.475 212.568L235.475 212.568L235.475 212.569L235.475 212.569L235.474 212.569L235.474 212.57L235.474 212.57L235.474 212.57L235.474 212.571L235.474 212.571L235.474 212.571L235.474 212.572L235.474 212.572L235.474 212.572L235.474 212.572L235.473 212.573L235.473 212.573L235.473 212.573L235.473 212.574L235.473 212.574C235.003 214.36 234.534 216.145 234.125 217.945C234.066 218.203 234.008 218.462 233.949 218.721C233.633 220.129 233.309 221.566 232.825 222.917L232.796 223H-10V0ZM233.787 75.7272C234.285 75.5357 234.776 75.4741 235.222 75.492C234.436 75.5664 233.615 75.79 232.855 76.2461C233.181 76.0044 233.497 75.8391 233.787 75.7272ZM293.012 92.2868C292.99 92.521 292.97 92.7383 292.951 92.9332C292.923 93.2256 292.901 93.4675 292.886 93.6399C292.921 93.2483 293.002 92.5452 293.103 91.9672C293.086 92.0245 293.07 92.0813 293.054 92.1375C293.039 92.1877 293.025 92.2375 293.012 92.2868ZM281.617 60.232C280.973 58.2034 281.705 56.0677 283.137 54.8601C281.711 56.069 280.983 58.2001 281.625 60.2246C281.66 60.3335 281.701 60.4402 281.741 60.5455C281.915 61.0051 282.08 61.4372 281.703 61.9045C280.907 62.8921 280.446 64.0122 280.078 65.1667L280.055 65.2187C280.425 64.0485 280.888 62.9122 281.695 61.9119C282.071 61.4446 281.907 61.0125 281.732 60.5529C281.692 60.4476 281.651 60.3409 281.617 60.232ZM296.265 174.059L296.269 174.059C296.146 175.243 295.721 176.345 295.294 177.451C294.971 178.287 294.647 179.126 294.453 180.004C293.643 183.697 292.431 187.331 291.143 190.858C290.33 193.081 289.626 195.336 288.922 197.59L288.922 197.593C288.348 199.432 287.773 201.271 287.14 203.092C286.14 205.965 285.094 208.821 284.049 211.676C283.338 213.619 282.627 215.562 281.93 217.51L281.818 217.825L281.722 218.094C281.606 218.419 281.491 218.745 281.375 219.07L281.359 219.114L281.359 219.116L281.358 219.118L281.357 219.12L281.357 219.122L281.356 219.124L281.355 219.125L281.355 219.127L281.354 219.129L281.353 219.131L281.353 219.133L281.352 219.135L281.352 219.136L281.351 219.138L281.35 219.14L281.35 219.142L281.349 219.144L281.348 219.146L281.348 219.147L281.347 219.149L281.346 219.151L281.346 219.153L281.345 219.155L281.345 219.156L281.344 219.157C280.889 220.441 280.433 221.724 279.961 223H279.956C280.44 221.694 280.906 220.381 281.373 219.067C281.557 218.55 281.741 218.032 281.926 217.514C282.628 215.55 283.344 213.593 284.06 211.636L284.061 211.635L284.062 211.633L284.062 211.631L284.063 211.629L284.064 211.627L284.064 211.626L284.066 211.621C285.104 208.785 286.142 205.95 287.136 203.095C287.769 201.274 288.344 199.434 288.918 197.594L288.918 197.593C289.622 195.339 290.326 193.085 291.139 190.862C292.427 187.335 293.639 183.696 294.449 180.008C294.643 179.13 294.966 178.291 295.29 177.454C295.717 176.348 296.142 175.245 296.265 174.059ZM286.135 171.538L286.145 173.168L286.144 173.17C286.141 172.637 286.137 172.092 286.133 171.535L286.135 171.538ZM244.673 190.248L244.67 190.324C244.66 190.306 244.664 190.278 244.673 190.248ZM244.857 186.738C244.902 186.241 244.946 185.905 244.979 185.69L244.899 185.686C244.868 184.342 244.868 182.996 244.905 181.651C244.868 182.997 244.868 184.345 244.899 185.69L244.896 185.756L244.896 185.762L244.896 185.763L244.896 185.764L244.896 185.765L244.896 185.766L244.896 185.767L244.896 185.768L244.895 185.77L244.857 186.738ZM250.531 146.251C250.364 146.733 250.341 147.234 250.319 147.725C250.305 148.028 250.292 148.328 250.244 148.617C250.291 148.33 250.304 148.033 250.317 147.731C250.339 147.239 250.361 146.735 250.531 146.251ZM249.724 150.206C249.033 152.323 248.719 154.516 248.405 156.71L248.405 156.711C248.199 158.147 247.994 159.583 247.682 160.998C247.99 159.59 248.195 158.162 248.399 156.734L248.399 156.734L248.399 156.733C248.714 154.531 249.028 152.33 249.724 150.206ZM275.062 154.644C275.847 154.314 276.347 154.286 276.607 154.592C276.348 154.282 275.847 154.308 275.058 154.639L274.614 154.826C272.761 155.605 270.898 156.388 268.968 156.929C265.686 157.857 262.493 158.986 259.397 160.541C262.495 158.986 265.689 157.858 268.972 156.934C270.908 156.39 272.783 155.601 274.646 154.818L275.062 154.644ZM337.318 179.291C338.349 178.312 339.318 177.271 340.285 176.229C341.812 174.587 343.337 172.946 345.11 171.552C349.041 177.345 354.213 181.672 360.415 184.907C362.411 185.949 364.112 187.456 365.809 188.96C366.43 189.511 367.051 190.061 367.686 190.588C368.347 191.135 368.458 191.892 368.227 192.603C367.997 193.305 367.45 193.217 366.923 193.132C366.773 193.107 366.624 193.083 366.485 193.078C364.954 193.014 363.491 192.611 362.027 192.207C360.573 191.806 359.117 191.404 357.591 191.334C354.925 191.211 354.811 191.303 355.076 193.901C355.093 194.066 355.116 194.24 355.139 194.419L355.14 194.42C355.282 195.499 355.446 196.742 354.381 197.189C353.586 197.522 352.886 196.722 352.236 195.979C352.088 195.809 351.942 195.643 351.798 195.493C349.667 193.267 348.138 190.632 346.94 187.875C345.225 183.893 341.853 181.932 338.453 179.955C338.074 179.734 337.695 179.514 337.318 179.291ZM251.001 146.934C251.028 146.707 251.063 146.481 251.106 146.255C251.106 146.253 251.107 146.252 251.107 146.251C251.063 146.478 251.029 146.706 251.001 146.934Z" fill="url(#paint0_angular)" />
  </g>
  <mask id="mask0" mask-type="alpha" maskUnits="userSpaceOnUse" x="-10" y="0" width="414" height="224">
    <path fill-rule="evenodd" clip-rule="evenodd" d="M-10 0H292.5C354.08 0 404 49.9203 404 111.5C404 162.625 369.591 205.714 322.668 218.871C320.824 213.542 318.915 208.232 317.007 202.923L316.823 202.41C315.062 197.512 313.266 192.628 311.47 187.742L311.47 187.741L311.469 187.74L311.469 187.738L311.468 187.737L311.468 187.736L311.467 187.735L311.467 187.734L311.466 187.732L311.466 187.731L311.465 187.73L311.465 187.729L311.465 187.727L311.464 187.726L311.464 187.725L311.463 187.724L311.463 187.722L311.462 187.721L311.462 187.72L311.461 187.719L311.461 187.717L311.46 187.716L311.46 187.715L311.459 187.714L311.459 187.713L311.459 187.711L311.458 187.71L311.458 187.709L311.457 187.708L311.457 187.706L311.456 187.705L311.456 187.704L311.455 187.703L311.455 187.701L311.451 187.691C310.682 185.6 309.913 183.508 309.147 181.416C308.282 180.25 307.827 178.904 307.371 177.558L307.371 177.557C307.127 176.837 306.883 176.117 306.577 175.424C306.414 175.06 306.241 174.757 306.031 174.516L307.426 174.581C309.561 180.474 317.051 189.771 317.453 190.267C318.365 191.6 319.268 192.94 320.142 194.298C320.946 195.548 321.361 195.538 322.412 194.445C326.105 190.595 329.862 186.808 333.619 183.021L333.619 183.021L333.62 183.021L333.62 183.021L333.62 183.02L333.62 183.02L333.62 183.02L333.62 183.02L333.621 183.02L333.621 183.019L333.621 183.019L333.621 183.019L333.621 183.019L333.622 183.018L333.622 183.018L333.622 183.018L333.622 183.018L333.622 183.017L333.622 183.017L333.623 183.017L333.623 183.017L333.623 183.017L333.623 183.016L333.623 183.016C334.856 181.774 336.088 180.531 337.318 179.287C338.353 178.307 339.324 177.262 340.295 176.217L340.295 176.217L340.296 176.216C341.818 174.578 343.342 172.939 345.11 171.548C346.73 170.032 345.682 169.099 344.693 168.217C344.527 168.07 344.363 167.923 344.213 167.776C337.519 161.177 331.25 154.204 325.36 146.88C316.418 135.762 308.408 124.049 301.853 111.353C298.734 105.315 295.863 98.4159 293.616 92.0085C293.55 91.2562 293.468 90.9966 293.383 91.0313C294.561 87.2164 296.554 82.0005 296.554 82.0005L289.968 81.0642L288.489 80.8832C288.817 80.4715 288.954 79.6806 289.107 78.3679L289.148 76.0966C289.616 75.7108 290.109 75.397 290.407 75.2185C290.882 75.4481 291.357 75.6755 291.833 75.903C293.117 76.5176 294.402 77.132 295.666 77.7869C300.076 80.0671 303.896 78.8859 305.369 74.5625C306.857 70.1957 307.947 65.6978 307.983 61.0666C307.989 60.186 307.944 59.3034 307.898 58.4193V58.4185V58.4177V58.417V58.4162V58.4154V58.4147V58.4139V58.4131V58.4123V58.4115V58.4107V58.4099V58.4091V58.4083V58.4075V58.4067V58.4059V58.4051V58.4043V58.4035V58.4026V58.4018V58.401V58.4001V58.3993V58.3985V58.3976V58.3968V58.3959V58.3951V58.3948V58.3945V58.3943V58.394V58.3937V58.3934V58.3931V58.3928V58.3925V58.3923V58.392V58.3917V58.3914V58.3911V58.3908V58.3905V58.3902V58.39V58.3897V58.3894V58.3891V58.3888V58.3885V58.3883V58.388V58.3877V58.3874V58.3871V58.3868V58.3865C307.825 56.9571 307.752 55.5239 307.892 54.0887C308.733 54.0913 309.38 53.5465 309.65 52.9376C310.573 50.8557 311.164 48.6574 311.754 46.461C311.856 46.0798 311.959 45.6986 312.063 45.3181C312.3 44.4773 312.096 43.6982 311.895 42.9291C311.747 42.3663 311.601 41.8089 311.631 41.2364C311.79 38.2361 310.698 35.5692 308.912 33.4368C304.738 28.4552 299.658 24.7255 292.915 23.9629C292.44 23.9107 292.054 23.8173 291.83 23.5792C290.301 23.7997 288.643 23.8511 286.921 23.7061C285.671 23.6009 284.47 23.3982 283.34 23.1122C283.046 23.1849 282.688 23.1385 282.335 23.0438C280.111 22.4383 277.774 22.9401 275.878 23.5563C268.484 25.9515 261.838 29.673 258.226 37.0737C256.41 40.7996 254.9 44.6447 254.483 48.8702C254.401 49.7251 254.567 50.5157 254.732 51.3009C254.878 51.9995 255.024 52.6939 254.993 53.4256C254.902 55.6152 255.561 57.7826 256.459 59.6575C257.958 62.7853 259.73 65.8588 262.534 68.1134C265.947 70.8539 269.394 73.5688 274.004 73.8473C274.867 73.9006 275.525 74.2615 276.196 74.6297C276.35 74.7142 276.504 74.7992 276.663 74.8808C276.513 75.6106 276.418 76.2907 276.396 76.8918L276.464 76.8786L276.291 78.142C276.618 78.1757 276.954 78.1876 277.29 78.1995C278.048 78.2264 278.808 78.2534 279.463 78.5308C279.76 78.6564 280.12 78.6865 280.483 78.717C281.324 78.7874 282.185 78.8596 282.343 80.1177C282.402 80.1302 282.461 80.1425 282.52 80.1546L282.522 80.1591C282.462 80.1468 282.401 80.1344 282.341 80.1218C282.181 78.8714 281.321 78.7994 280.482 78.7291C280.119 78.6986 279.759 78.6685 279.462 78.5429C278.802 78.2632 278.035 78.2361 277.27 78.2092C276.94 78.1975 276.61 78.1859 276.29 78.1541C274.681 77.7709 273.461 78.4643 272.34 79.5355C271.472 80.3639 270.607 81.1947 269.742 82.0259C268.675 82.1072 267.648 82.3015 266.692 82.5586C266.033 82.7358 265.354 83.1159 264.664 83.6475C264.56 83.4225 264.372 83.2359 264.122 83.1382L237.977 72.8934C236.694 72.2701 234.692 71.9024 232.622 72.6989C230.653 73.4567 228.871 75.1694 227.617 78.1495C227.403 78.6585 227.679 79.2318 228.199 79.416L229.373 79.8311C229.689 79.9428 230.022 79.8851 230.284 79.7095C228.588 84.3946 217.797 112.782 210.295 132.475C209.594 138.752 212.455 146.293 225.206 150.324C222.484 157.784 220.196 165.404 218.407 173.176C218.187 174.122 218.018 175.078 217.849 176.032C217.61 177.385 217.371 178.735 216.991 180.05C216.329 182.339 215.865 184.67 215.402 187C215.14 188.318 214.877 189.637 214.579 190.948C214.199 192.617 214.75 193.354 216.472 193.154L216.397 193.48C215.575 197.043 214.744 200.645 211.831 203.181C210.293 204.523 208.583 205.672 206.879 206.818C206.616 206.995 206.353 207.171 206.091 207.349C204.729 208.27 203.354 209.169 201.978 210.067L201.976 210.068C200.306 211.16 198.636 212.251 196.993 213.382C195.035 214.732 194.823 216.907 196.543 217.994C199.328 219.756 202.397 220.396 205.563 219.261C207.644 218.516 209.687 217.669 211.731 216.821L211.734 216.82L211.736 216.819L211.738 216.818C212.922 216.328 214.106 215.837 215.298 215.365C217.436 214.518 219.314 214.936 220.865 216.675C221.149 216.993 221.439 217.307 221.73 217.62L221.73 217.62L221.73 217.62L221.73 217.621L221.731 217.621L221.731 217.621L221.731 217.621L221.731 217.621L221.731 217.622L221.731 217.622L221.732 217.622L221.732 217.622L221.732 217.622L221.732 217.622L221.732 217.623L221.733 217.623L221.733 217.623L221.733 217.623L221.733 217.623L221.733 217.624L221.734 217.624L221.734 217.624L221.734 217.624L221.734 217.624L221.734 217.624L221.734 217.625L221.735 217.625L221.735 217.625C222.203 218.13 222.671 218.635 223.109 219.163C223.984 220.211 225.329 220.251 226.194 219.816C226.955 219.434 226.542 218.77 226.171 218.173C226.046 217.973 225.925 217.779 225.856 217.607C224.53 214.303 223.353 210.865 223.758 207.353C224.281 202.824 226.301 198.692 228.298 194.609L228.514 194.168L228.515 194.168C230.381 194.343 232.247 194.518 234.114 194.692L234.121 194.693L234.128 194.693L234.135 194.694L234.142 194.695L234.149 194.695C235.991 194.868 237.834 195.04 239.678 195.213C239.996 195.229 240.316 195.236 240.635 195.243C241.169 195.255 241.703 195.266 242.229 195.32C241.708 195.269 241.181 195.258 240.654 195.247C240.326 195.24 239.999 195.233 239.674 195.217C239.651 195.388 239.637 195.561 239.622 195.735C239.591 196.091 239.561 196.448 239.464 196.787C238.61 199.745 237.758 202.728 237.145 205.714C236.672 208.016 236.075 210.286 235.479 212.554L235.479 212.555L235.479 212.555L235.478 212.555L235.478 212.555L235.478 212.556L235.478 212.556L235.478 212.556L235.478 212.557L235.478 212.557L235.478 212.557L235.478 212.558L235.478 212.558L235.478 212.558L235.477 212.559L235.477 212.559L235.477 212.559L235.477 212.56L235.477 212.56L235.477 212.56L235.477 212.561L235.477 212.561L235.477 212.561L235.477 212.562L235.477 212.562L235.476 212.562L235.476 212.563L235.476 212.563L235.476 212.563L235.476 212.563L235.476 212.564L235.476 212.564L235.476 212.564L235.476 212.565L235.476 212.565L235.476 212.565L235.475 212.566L235.475 212.566L235.475 212.566L235.475 212.567L235.475 212.567L235.475 212.567L235.475 212.568L235.475 212.568L235.475 212.568L235.475 212.569L235.475 212.569L235.474 212.569L235.474 212.57L235.474 212.57L235.474 212.57L235.474 212.571L235.474 212.571L235.474 212.571L235.474 212.572L235.474 212.572L235.474 212.572L235.474 212.572L235.473 212.573L235.473 212.573L235.473 212.573L235.473 212.574L235.473 212.574C235.003 214.36 234.534 216.145 234.125 217.945C234.066 218.203 234.008 218.462 233.949 218.721C233.633 220.129 233.309 221.566 232.825 222.917L232.796 223H-10V0ZM233.787 75.7272C234.285 75.5357 234.776 75.4741 235.222 75.492C234.436 75.5664 233.615 75.79 232.855 76.2461C233.181 76.0044 233.497 75.8391 233.787 75.7272ZM293.012 92.2868C292.99 92.521 292.97 92.7383 292.951 92.9332C292.923 93.2256 292.901 93.4675 292.886 93.6399C292.921 93.2483 293.002 92.5452 293.103 91.9672C293.086 92.0245 293.07 92.0813 293.054 92.1375C293.039 92.1877 293.025 92.2375 293.012 92.2868ZM281.617 60.232C280.973 58.2034 281.705 56.0677 283.137 54.8601C281.711 56.069 280.983 58.2001 281.625 60.2246C281.66 60.3335 281.701 60.4402 281.741 60.5455C281.915 61.0051 282.08 61.4372 281.703 61.9045C280.907 62.8921 280.446 64.0122 280.078 65.1667L280.055 65.2187C280.425 64.0485 280.888 62.9122 281.695 61.9119C282.071 61.4446 281.907 61.0125 281.732 60.5529C281.692 60.4476 281.651 60.3409 281.617 60.232ZM296.265 174.059L296.269 174.059C296.146 175.243 295.721 176.345 295.294 177.451C294.971 178.287 294.647 179.126 294.453 180.004C293.643 183.697 292.431 187.331 291.143 190.858C290.33 193.081 289.626 195.336 288.922 197.59L288.922 197.593C288.348 199.432 287.773 201.271 287.14 203.092C286.14 205.965 285.094 208.821 284.049 211.676C283.338 213.619 282.627 215.562 281.93 217.51L281.818 217.825L281.722 218.094C281.606 218.419 281.491 218.745 281.375 219.07L281.359 219.114L281.359 219.116L281.358 219.118L281.357 219.12L281.357 219.122L281.356 219.124L281.355 219.125L281.355 219.127L281.354 219.129L281.353 219.131L281.353 219.133L281.352 219.135L281.352 219.136L281.351 219.138L281.35 219.14L281.35 219.142L281.349 219.144L281.348 219.146L281.348 219.147L281.347 219.149L281.346 219.151L281.346 219.153L281.345 219.155L281.345 219.156L281.344 219.157C280.889 220.441 280.433 221.724 279.961 223H279.956C280.44 221.694 280.906 220.381 281.373 219.067C281.557 218.55 281.741 218.032 281.926 217.514C282.628 215.55 283.344 213.593 284.06 211.636L284.061 211.635L284.062 211.633L284.062 211.631L284.063 211.629L284.064 211.627L284.064 211.626L284.066 211.621C285.104 208.785 286.142 205.95 287.136 203.095C287.769 201.274 288.344 199.434 288.918 197.594L288.918 197.593C289.622 195.339 290.326 193.085 291.139 190.862C292.427 187.335 293.639 183.696 294.449 180.008C294.643 179.13 294.966 178.291 295.29 177.454C295.717 176.348 296.142 175.245 296.265 174.059ZM286.135 171.538L286.145 173.168L286.144 173.17C286.141 172.637 286.137 172.092 286.133 171.535L286.135 171.538ZM244.673 190.248L244.67 190.324C244.66 190.306 244.664 190.278 244.673 190.248ZM244.857 186.738C244.902 186.241 244.946 185.905 244.979 185.69L244.899 185.686C244.868 184.342 244.868 182.996 244.905 181.651C244.868 182.997 244.868 184.345 244.899 185.69L244.896 185.756L244.896 185.762L244.896 185.763L244.896 185.764L244.896 185.765L244.896 185.766L244.896 185.767L244.896 185.768L244.895 185.77L244.857 186.738ZM250.531 146.251C250.364 146.733 250.341 147.234 250.319 147.725C250.305 148.028 250.292 148.328 250.244 148.617C250.291 148.33 250.304 148.033 250.317 147.731C250.339 147.239 250.361 146.735 250.531 146.251ZM249.724 150.206C249.033 152.323 248.719 154.516 248.405 156.71L248.405 156.711C248.199 158.147 247.994 159.583 247.682 160.998C247.99 159.59 248.195 158.162 248.399 156.734L248.399 156.734L248.399 156.733C248.714 154.531 249.028 152.33 249.724 150.206ZM275.062 154.644C275.847 154.314 276.347 154.286 276.607 154.592C276.348 154.282 275.847 154.308 275.058 154.639L274.614 154.826C272.761 155.605 270.898 156.388 268.968 156.929C265.686 157.857 262.493 158.986 259.397 160.541C262.495 158.986 265.689 157.858 268.972 156.934C270.908 156.39 272.783 155.601 274.646 154.818L275.062 154.644ZM337.318 179.291C338.349 178.312 339.318 177.271 340.285 176.229C341.812 174.587 343.337 172.946 345.11 171.552C349.041 177.345 354.213 181.672 360.415 184.907C362.411 185.949 364.112 187.456 365.809 188.96C366.43 189.511 367.051 190.061 367.686 190.588C368.347 191.135 368.458 191.892 368.227 192.603C367.997 193.305 367.45 193.217 366.923 193.132C366.773 193.107 366.624 193.083 366.485 193.078C364.954 193.014 363.491 192.611 362.027 192.207C360.573 191.806 359.117 191.404 357.591 191.334C354.925 191.211 354.811 191.303 355.076 193.901C355.093 194.066 355.116 194.24 355.139 194.419L355.14 194.42C355.282 195.499 355.446 196.742 354.381 197.189C353.586 197.522 352.886 196.722 352.236 195.979C352.088 195.809 351.942 195.643 351.798 195.493C349.667 193.267 348.138 190.632 346.94 187.875C345.225 183.893 341.853 181.932 338.453 179.955C338.074 179.734 337.695 179.514 337.318 179.291ZM251.001 146.934C251.028 146.707 251.063 146.481 251.106 146.255C251.106 146.253 251.107 146.252 251.107 146.251C251.063 146.478 251.029 146.706 251.001 146.934Z" fill="url(#paint1_angular)" />
  </mask>
  <g mask="url(#mask0)">
    <path d="M279 274C366.813 274 438 202.813 438 115C438 27.1867 366.813 -44 279 -44C191.187 -44 120 27.1867 120 115C120 202.813 191.187 274 279 274Z" fill="#099BA8" />
    <path d="M279 247.5C352.178 247.5 411.5 188.178 411.5 115C411.5 41.8223 352.178 -17.5 279 -17.5C205.822 -17.5 146.5 41.8223 146.5 115C146.5 188.178 205.822 247.5 279 247.5Z" fill="#18A5B2" />
    <path d="M279 221C337.542 221 385 173.542 385 115C385 56.4578 337.542 9 279 9C220.458 9 173 56.4578 173 115C173 173.542 220.458 221 279 221Z" fill="#23AFBC" />
    <path d="M279 194.5C322.907 194.5 358.5 158.907 358.5 115C358.5 71.0934 322.907 35.5 279 35.5C235.093 35.5 199.5 71.0934 199.5 115C199.5 158.907 235.093 194.5 279 194.5Z" fill="#2CB9C6" />
    <path d="M279 168C308.271 168 332 144.271 332 115C332 85.7289 308.271 62 279 62C249.729 62 226 85.7289 226 115C226 144.271 249.729 168 279 168Z" fill="#35C4D1" />
    <path d="M279 141.5C293.636 141.5 305.5 129.636 305.5 115C305.5 100.364 293.636 88.5 279 88.5C264.364 88.5 252.5 100.364 252.5 115C252.5 129.636 264.364 141.5 279 141.5Z" fill="#3DCEDB" />
  </g>
  <path fill-rule="evenodd" clip-rule="evenodd" d="M101.398 223H132.523C110.172 192.072 97 154.075 97 113C97 70.5874 111.045 31.455 134.737 0L103.232 0C82.8025 32.7935 71 71.5184 71 113C71 153.223 82.0974 190.855 101.398 223Z" fill="#18A5B2" />
  <path d="M87.2246 107.035C87.2246 108.324 86.7591 109.34 85.8281 110.082C84.9036 110.824 83.6146 111.195 81.9609 111.195C80.4375 111.195 79.0898 110.909 77.918 110.336V107.523C78.8815 107.953 79.6953 108.256 80.3594 108.432C81.0299 108.607 81.6419 108.695 82.1953 108.695C82.8594 108.695 83.3672 108.568 83.7188 108.314C84.0768 108.061 84.2559 107.683 84.2559 107.182C84.2559 106.902 84.1777 106.654 84.0215 106.439C83.8652 106.218 83.6341 106.007 83.3281 105.805C83.0286 105.603 82.4134 105.281 81.4824 104.838C80.61 104.428 79.9557 104.034 79.5195 103.656C79.0833 103.279 78.735 102.839 78.4746 102.338C78.2142 101.837 78.084 101.251 78.084 100.58C78.084 99.3171 78.5104 98.3242 79.3633 97.6016C80.2227 96.8789 81.4076 96.5176 82.918 96.5176C83.6602 96.5176 84.3665 96.6055 85.0371 96.7812C85.7142 96.957 86.4206 97.2044 87.1562 97.5234L86.1797 99.877C85.418 99.5645 84.7865 99.3464 84.2852 99.2227C83.7904 99.099 83.3021 99.0371 82.8203 99.0371C82.2474 99.0371 81.8079 99.1706 81.502 99.4375C81.196 99.7044 81.043 100.053 81.043 100.482C81.043 100.749 81.1048 100.984 81.2285 101.186C81.3522 101.381 81.5475 101.573 81.8145 101.762C82.0879 101.944 82.7292 102.276 83.7383 102.758C85.0729 103.396 85.9876 104.037 86.4824 104.682C86.9772 105.32 87.2246 106.104 87.2246 107.035ZM94.1777 108.822C94.6986 108.822 95.3236 108.708 96.0527 108.48V110.697C95.3105 111.029 94.3991 111.195 93.3184 111.195C92.127 111.195 91.2578 110.896 90.7109 110.297C90.1706 109.691 89.9004 108.786 89.9004 107.582V102.318H88.4746V101.059L90.1152 100.062L90.9746 97.7578H92.8789V100.082H95.9355V102.318H92.8789V107.582C92.8789 108.005 92.9961 108.318 93.2305 108.52C93.4714 108.721 93.7871 108.822 94.1777 108.822ZM106.004 111L105.604 109.604H105.447C105.128 110.111 104.676 110.505 104.09 110.785C103.504 111.059 102.837 111.195 102.088 111.195C100.805 111.195 99.8385 110.854 99.1875 110.17C98.5365 109.48 98.2109 108.49 98.2109 107.201V100.082H101.189V106.459C101.189 107.247 101.329 107.839 101.609 108.236C101.889 108.627 102.335 108.822 102.947 108.822C103.781 108.822 104.383 108.546 104.754 107.992C105.125 107.432 105.311 106.508 105.311 105.219V100.082H108.289V111H106.004ZM114.871 111.195C113.589 111.195 112.579 110.697 111.844 109.701C111.115 108.705 110.75 107.325 110.75 105.561C110.75 103.77 111.121 102.377 111.863 101.381C112.612 100.378 113.641 99.877 114.949 99.877C116.323 99.877 117.371 100.411 118.094 101.479H118.191C118.042 100.665 117.967 99.9388 117.967 99.3008V95.8047H120.955V111H118.67L118.094 109.584H117.967C117.29 110.658 116.258 111.195 114.871 111.195ZM115.916 108.822C116.678 108.822 117.234 108.601 117.586 108.158C117.944 107.715 118.139 106.964 118.172 105.902V105.58C118.172 104.408 117.99 103.568 117.625 103.061C117.267 102.553 116.681 102.299 115.867 102.299C115.203 102.299 114.686 102.582 114.314 103.148C113.95 103.708 113.768 104.525 113.768 105.6C113.768 106.674 113.953 107.481 114.324 108.021C114.695 108.555 115.226 108.822 115.916 108.822ZM128.592 101.996C127.96 101.996 127.465 102.198 127.107 102.602C126.749 102.999 126.544 103.565 126.492 104.301H130.672C130.659 103.565 130.467 102.999 130.096 102.602C129.725 102.198 129.223 101.996 128.592 101.996ZM129.012 111.195C127.254 111.195 125.88 110.71 124.891 109.74C123.901 108.77 123.406 107.396 123.406 105.619C123.406 103.79 123.862 102.377 124.773 101.381C125.691 100.378 126.958 99.877 128.572 99.877C130.115 99.877 131.316 100.316 132.176 101.195C133.035 102.074 133.465 103.288 133.465 104.838V106.283H126.424C126.456 107.13 126.707 107.79 127.176 108.266C127.645 108.741 128.302 108.979 129.148 108.979C129.806 108.979 130.428 108.91 131.014 108.773C131.6 108.637 132.212 108.419 132.85 108.119V110.424C132.329 110.684 131.772 110.876 131.18 111C130.587 111.13 129.865 111.195 129.012 111.195ZM145.965 111H142.986V104.623C142.986 103.835 142.846 103.246 142.566 102.855C142.286 102.458 141.84 102.26 141.229 102.26C140.395 102.26 139.793 102.54 139.422 103.1C139.051 103.653 138.865 104.574 138.865 105.863V111H135.887V100.082H138.162L138.562 101.479H138.729C139.061 100.951 139.516 100.554 140.096 100.287C140.682 100.014 141.346 99.877 142.088 99.877C143.357 99.877 144.321 100.222 144.979 100.912C145.636 101.596 145.965 102.585 145.965 103.881V111ZM153.631 108.822C154.152 108.822 154.777 108.708 155.506 108.48V110.697C154.764 111.029 153.852 111.195 152.771 111.195C151.58 111.195 150.711 110.896 150.164 110.297C149.624 109.691 149.354 108.786 149.354 107.582V102.318H147.928V101.059L149.568 100.062L150.428 97.7578H152.332V100.082H155.389V102.318H152.332V107.582C152.332 108.005 152.449 108.318 152.684 108.52C152.924 108.721 153.24 108.822 153.631 108.822Z" fill="#F7F8F4" />
  <defs>
    <filter id="filter0_d" x="-14" y="0" width="422" height="231" filterUnits="userSpaceOnUse" color-interpolation-filters="sRGB">
      <feFlood flood-opacity="0" result="BackgroundImageFix" />
      <feColorMatrix in="SourceAlpha" type="matrix" values="0 0 0 0 0 0 0 0 0 0 0 0 0 0 0 0 0 0 127 0" />
      <feOffset dy="4" />
      <feGaussianBlur stdDeviation="2" />
      <feColorMatrix type="matrix" values="0 0 0 0 0 0 0 0 0 0 0 0 0 0 0 0 0 0 0.25 0" />
      <feBlend mode="normal" in2="BackgroundImageFix" result="effect1_dropShadow" />
      <feBlend mode="normal" in="SourceGraphic" in2="effect1_dropShadow" result="shape" />
    </filter>
    <radialGradient id="paint0_angular" cx="0" cy="0" r="1" gradientUnits="userSpaceOnUse" gradientTransform="translate(227 147) rotate(79.167) scale(329.879 334.108)">
      <stop stop-color="#099BA8" />
      <stop offset="1" stop-color="#3DCEDB" />
    </radialGradient>
    <radialGradient id="paint1_angular" cx="0" cy="0" r="1" gradientUnits="userSpaceOnUse" gradientTransform="translate(227 147) rotate(79.167) scale(329.879 334.108)">
      <stop stop-color="#099BA8" />
      <stop offset="1" stop-color="#3DCEDB" />
    </radialGradient>
  </defs>
</svg>
