<svg width="414" height="591" viewBox="0 0 414 591" fill="none" xmlns="http://www.w3.org/2000/svg">
  <g filter="url(#filter0_d)">
    <rect y="237" width="414" height="346" rx="33" fill="#0B8C98" />
  </g>
  <g filter="url(#filter1_f)">
    <path d="M-3 -3H417V356C417 471.98 322.98 566 207 566C91.0202 566 -3 471.98 -3 356V-3Z" fill="#0D97A4" />
  </g>
  <g filter="url(#filter2_f)">
    <path fill-rule="evenodd" clip-rule="evenodd"
      d="M7.29492 411.241C31.8398 498.17 111.744 561.875 206.528 561.875C301.311 561.875 381.216 498.17 405.761 411.241H7.29492Z"
      fill="#0D98A5" />
  </g>
  <rect x="59" y="127" width="296" height="348" rx="148" fill="url(#paint0_angular)" />
  <path fill-rule="evenodd" clip-rule="evenodd"
    d="M197.048 238.724C198.677 234.455 201.305 227.57 198 225C194.4 222.2 176.833 216.167 168.5 213.5C166.166 212.667 161 212.4 159 218C157.284 222.804 143.67 258.618 134.258 283.327C133.242 292.412 138.282 303.646 162 307.5C163.022 307.666 163.995 307.833 164.92 308.001L194 257L196 242C196 241.469 196.458 240.267 197.048 238.724Z"
    fill="#302A2A" />
  <path fill-rule="evenodd" clip-rule="evenodd"
    d="M168.246 209.833C166.664 209.064 164.195 208.611 161.644 209.593C159.17 210.545 156.935 212.72 155.385 216.526C155.177 217.038 155.452 217.611 155.973 217.796L157.858 218.462C158.379 218.647 158.947 218.372 159.161 217.863C160.383 214.952 161.898 213.781 163.081 213.326C164.452 212.798 165.785 213.07 166.536 213.449L166.62 213.492L199.233 226.271C199.747 226.472 200.327 226.219 200.529 225.705L201.259 223.843C201.46 223.328 201.207 222.748 200.692 222.547L168.246 209.833Z"
    fill="#434343" />
  <circle cx="89.5" cy="173.5" r="26.5" fill="#109EAB" />
  <path fill-rule="evenodd" clip-rule="evenodd"
    d="M106.071 193.862L74.3574 151.483C78.5743 148.652 83.6493 147 89.1101 147C103.746 147 115.61 158.864 115.61 173.5C115.61 181.684 111.901 189.001 106.071 193.862Z"
    fill="#12ACBB" />
  <g clip-path="url(#clip0)">
    <path
      d="M362.159 567.409C362.136 567.742 362.112 568.081 362.089 568.414C343.212 566.825 324.335 565.236 305.462 563.647C305.49 563.319 305.513 562.991 305.541 562.658C324.413 564.246 343.286 565.83 362.159 567.409Z"
      fill="#EEEEEE" />
    <path
      d="M263.978 337.611C267.138 346.239 270.333 354.849 273.441 363.492C276.495 371.991 279.555 380.489 282.445 389.039C286.334 400.537 290.171 412.055 293.823 423.628C297.056 433.874 300.032 444.198 303.075 454.503C306.554 466.291 310.099 478.06 313.388 489.903C316.22 500.1 318.733 510.385 321.381 520.632C322.061 523.258 322.602 525.927 323.416 528.509C324.056 530.54 323.798 531.705 321.414 531.835C320.694 531.875 319.99 532.216 319.277 532.416C314.779 532.793 310.424 533.849 306.131 535.185C304.635 535.89 302.902 535.183 301.367 536.105C300.55 536.597 299.779 535.827 299.2 534.967C288.15 518.615 277.585 501.97 267.719 484.867C260.279 471.964 253.204 458.881 246.408 445.637C238.842 430.895 231.735 415.938 225.154 400.734C225.567 399.457 223.893 398.58 224.549 397.208C226.879 392.317 228.606 387.2 230.427 382.106C232.548 376.177 234.777 370.286 236.85 364.332C238.587 359.336 239.964 354.23 241.785 349.251C243.372 344.904 244.866 340.423 245.865 335.871C246.488 333.05 248.2 330.555 248.145 327.577C251.53 327.817 254.907 328.081 258.296 328.276C259.636 328.354 260.271 329.018 260.81 330.225C261.895 332.68 262.342 335.406 263.978 337.611Z"
      fill="#E77715" />
    <path
      d="M178.342 354.62C173.752 354.189 169.167 353.763 164.582 353.332C159.635 352.915 154.683 352.498 149.736 352.082C147.613 352.329 146.933 351.42 147.402 349.362C148.419 344.891 149.097 340.347 150.375 335.929C151.174 333.162 151.467 330.273 152.12 327.454C154.551 316.894 157.729 306.562 161.548 296.469C166.808 282.582 173.244 269.225 181.056 256.545C188.983 243.683 197.938 231.7 208.95 221.266C212.182 218.204 215.382 215.099 218.605 212.02C219.988 210.7 221.492 209.845 223.475 210.318C224.786 210.448 226.22 210.303 227.385 210.797C228.599 211.31 230.657 210.532 230.935 212.753C233.09 220.104 235.142 227.492 234.915 235.243C234.735 241.487 234.336 247.712 234.29 253.971C234.244 260.466 234.497 266.976 234.204 273.486C234.074 276.339 233.983 279.385 234.548 282.307C234.058 284.263 233.84 286.202 234.843 288.084C234.495 289.662 234.187 291.239 234.753 292.833C234.105 294.766 234.286 296.659 235.056 298.517C234.463 300.274 234.669 302.049 234.919 303.827C234.346 305.767 234.557 307.657 235.281 309.52C234.652 311.105 234.471 312.717 235.024 314.365C234.459 316.261 234.624 318.107 235.408 319.91C235.061 321.538 234.903 323.177 235.154 324.836C234.524 326.55 235.131 328.258 235.202 329.967C235.179 331.968 235.156 333.968 235.133 335.969C234.83 337.606 235.16 339.211 235.375 340.821C235.277 342.881 235.783 345.016 234.615 346.936C230.41 346.567 226.195 346.202 221.981 345.822C213.976 345.103 205.966 344.379 197.96 343.66C197.965 342.598 197.882 341.615 197.547 340.536C196.267 336.412 194.742 332.283 194.44 327.967C194.214 324.764 193.233 321.722 193.228 318.447C193.221 314.491 192.169 310.517 192.575 306.526C192.995 302.421 191.655 298.363 192.43 294.267C192.441 294.198 192.216 294.079 191.911 293.828C191.21 295.146 191.67 296.637 191.186 297.863C189.241 302.776 189.269 308.085 188.047 313.149C187.142 316.883 187.071 320.758 186.273 324.581C185.032 330.52 184.635 336.725 184.778 342.88C184.706 344.682 184.634 346.488 184.578 348.291C184.576 348.371 184.287 348.772 184.761 348.557C184.787 348.544 184.759 348.401 184.75 348.32C184.696 349.803 184.576 351.285 184.607 352.764C184.646 354.44 184.074 355.173 182.277 354.861C180.995 354.628 179.658 354.686 178.342 354.62ZM200.026 313.292C207.2 313.896 214.382 314.47 221.551 315.129C223.027 315.263 223.43 314.641 223.505 313.326C223.642 310.929 223.869 308.535 224.1 306.141C224.278 304.328 223.664 303.886 221.956 304.604C219.491 305.638 217.018 306.706 214.449 307.426C209.469 308.835 204.657 310.617 200.026 313.292Z"
      fill="#3A4082" />
    <path
      d="M234.606 346.93C235.779 345.006 235.273 342.87 235.375 340.826C235.245 339.213 236.102 337.543 235.134 335.959C235.157 333.958 235.18 331.958 235.202 329.972C235.558 326.522 235.558 326.517 239.028 326.809C242.066 327.065 245.103 327.326 248.141 327.581C248.195 330.56 246.483 333.054 245.86 335.876C244.862 340.423 243.368 344.909 241.78 349.256C239.959 354.235 238.583 359.341 236.845 364.337C234.772 370.291 232.544 376.176 230.422 382.111C228.602 387.205 226.869 392.321 224.545 397.213C223.893 398.585 225.562 399.461 225.149 400.738C224.433 400.568 223.7 399.575 223.194 401.184C221.432 406.774 218.923 412.075 216.411 417.341C213.025 424.441 209.326 431.385 204.777 437.846C201.041 443.149 196.293 446.915 190.035 448.927C179.619 452.276 168.936 452.673 158.119 452.699C147.117 452.724 136.231 451.552 125.353 450.286C116.462 449.252 107.639 447.598 98.7879 446.222C98.7546 445.904 98.7217 445.581 98.6934 445.263C98.7909 441.726 97.7687 438.346 97.0021 434.962C96.7132 433.696 97.2942 432.087 95.9037 431.119C95.3205 428.887 97.0132 428.289 98.4993 427.883C108.766 425.112 119.116 422.609 129.336 419.674C139.003 416.898 148.728 414.262 158.147 410.679C160.029 409.966 161.95 409.097 163.506 407.861C165.239 406.485 165.277 404.069 165.912 402.065C167.309 397.656 168.33 393.141 169.895 388.772C170.602 386.798 171.031 384.677 171.497 382.643C172.643 377.598 174.176 372.645 175.22 367.565C175.975 363.884 177.026 360.207 178.079 356.561C178.256 355.94 178.253 355.269 178.337 354.625C179.653 354.691 180.99 354.633 182.278 354.856C184.074 355.168 184.642 354.435 184.607 352.759C184.572 351.279 184.696 349.798 184.749 348.335C184.773 347.942 184.792 347.528 184.822 347.115C185.121 343.145 185.121 343.145 189.203 343.488C203.889 344.729 218.574 345.971 233.26 347.217C233.921 347.273 234.614 347.481 235.227 347.338C235.712 347.223 235.154 347.141 235.073 347.089C234.94 347.003 234.767 346.978 234.606 346.93Z"
      fill="#FDA435" />
    <path
      d="M230.937 212.738C230.658 210.517 228.6 211.295 227.387 210.782C226.222 210.288 224.787 210.438 223.477 210.303C223.659 208.971 223.841 207.645 224.023 206.313C225.802 204.39 225.437 201.701 226.462 199.464C227.83 196.48 227.974 192.982 230.148 190.286C230.719 189.578 230.282 188.936 230.052 188.215C228.759 184.136 231.975 179.705 236.092 180.463C239.189 181.029 241.401 179.913 243.726 178.457C248.241 175.622 253.15 173.687 258.178 172.013C259.429 171.597 260.228 171.925 260.559 173.285C261.025 175.191 262.198 176.832 261.797 179.042C262.069 179.735 262.096 179.648 262.433 180.642C262.151 183.522 262.565 186.396 262.544 189.253C262.499 194.962 261.156 200.507 259.321 205.89C257.506 211.22 252.797 212.676 247.361 209.865C245.144 208.717 242.879 207.67 240.633 206.58C240.701 205.354 239.58 205.345 239.121 205.622C238.156 206.206 238.645 206.998 239.329 207.612C239.311 208.602 239.293 209.591 239.275 210.581C238.824 214.444 238.492 214.641 234.773 213.567C233.527 213.201 232.221 213.011 230.937 212.738Z"
      fill="#593623" />
    <path
      d="M81.4982 446.95C81.4429 448.142 82.391 448.477 83.2107 448.791C84.9325 449.452 85.1601 450.793 84.6741 452.224C83.6415 455.271 82.3803 458.239 81.3092 461.268C80.1973 464.424 79.0992 467.596 78.1779 470.808C77.631 472.725 76.7462 474.493 76.0982 476.361C75.0844 479.305 75.9317 482.265 75.4656 485.185C75.0394 487.868 71.8243 490.316 69.1909 489.718C68.1051 489.472 67.3326 488.716 67.3086 487.692C67.1265 480.638 65.966 473.665 65.4056 466.644C65.037 462.041 64.6506 457.413 63.8801 452.827C63.4958 450.551 63.2895 448.066 63.4344 445.81C63.6146 442.896 62.2869 440.17 62.9195 437.295C63.1216 436.38 62.2248 435.734 62.1365 434.76C61.8121 431.298 64.8127 431.756 66.5048 431.283C68.0531 430.852 69.839 430.632 71.4977 430.557C74.3169 430.434 76.8998 431.392 78.7598 433.742C79.0135 434.058 79.385 434.285 79.7034 434.547C76.2704 437.322 76.4816 444.39 80.072 447C80.3053 447.5 80.5395 447.395 80.7826 447.005C81.0237 446.995 81.2607 446.975 81.4982 446.95Z"
      fill="#E3E3E3" />
    <path
      d="M362.159 567.409C343.287 565.825 324.414 564.241 305.541 562.658C304.07 558.308 305.168 554.125 306.544 550.035C307.225 548.009 309.038 547.356 311.113 547.505C313.142 550.585 316.343 550.389 319.351 550.161C323.09 549.88 323.664 549.123 323.503 546.155C323.584 546.152 323.696 546.186 323.75 546.141C327.569 542.882 330.014 546.733 333.022 547.868C335.987 548.988 338.482 550.936 341.31 552.315C344.243 553.749 347.171 555.307 349.998 556.997C352.362 558.413 355.046 559.13 357.723 559.495C362.03 560.083 362.747 560.784 362.372 565.179C362.304 565.929 362.232 566.669 362.159 567.409Z"
      fill="#E3E3E3" />
    <path
      d="M149.737 352.077C154.689 352.494 159.635 352.91 164.582 353.327C162.035 358.54 159.385 363.799 158.717 369.586C158.218 373.915 159.668 378.153 161.303 382.226C161.643 383.07 162.974 384.319 161.72 384.949C160.653 385.485 158.995 385.436 157.917 384.143C157.04 383.088 156.066 382.105 155.151 381.077C153.239 378.933 150.924 378.418 148.288 379.463C144.279 381.048 140.34 382.814 136.288 384.265C132.385 385.664 128.601 384.875 125.169 382.703C123.048 381.363 123.309 378.682 125.722 377.017C129.416 374.474 133.221 372.096 136.938 369.58C139.354 367.946 141.826 366.351 144.015 364.443C147.716 361.22 148.69 356.6 149.737 352.077Z"
      fill="#5A3825" />
    <path
      d="M80.0705 447.015C76.4805 444.399 76.2694 437.332 79.7019 434.562C82.6204 434.627 85.2728 433.333 88.0985 432.895C90.7311 432.491 93.3051 431.712 95.8993 431.109C97.289 432.087 96.708 433.695 96.9969 434.961C97.7631 438.35 98.7857 441.726 98.6882 445.263C97.6962 445.449 96.5267 444.77 95.7187 445.864C94.2183 445.903 92.7126 445.946 91.2123 445.985C90.4779 445.728 89.7629 445.598 89.1827 446.305C87.8729 446.34 86.5636 446.37 85.2489 446.404C84.002 446.109 82.7815 445.976 81.7548 446.991C81.6707 446.979 81.5812 446.972 81.4975 446.955C81.2605 446.975 81.0181 446.999 80.7807 447.024C80.5458 447.02 80.3109 447.015 80.0705 447.015Z"
      fill="#5D3925" />
    <path
      d="M99.1963 445.235C99.1963 445.235 85.8283 447.85 80.076 447.01C80.076 447.01 79.3453 443.854 79.5886 443.76C79.8323 443.66 89.0159 442.696 89.2865 442.634C89.5575 442.566 95.4778 442.183 95.4955 442.33C95.5132 442.477 95.9048 431.104 95.9048 431.104C95.9048 431.104 107.819 439.337 99.1963 445.235Z"
      fill="#5D3925" />
    <path
      d="M323.503 546.16C323.664 549.128 323.089 549.885 319.35 550.166C316.342 550.394 313.146 550.59 311.112 547.51C311.022 547.212 310.937 546.915 310.848 546.612C310.903 546.016 311.13 545.334 310.166 545.248C309.319 541.692 307.332 538.59 306.127 535.179C310.425 533.844 314.78 532.788 319.278 532.411C320.684 536.996 322.091 541.58 323.503 546.16Z"
      fill="#44291C" />
    <path
      d="M244.833 227.396C247.603 235.295 251.143 243.799 254.987 251.243C263.068 266.893 272.942 281.333 283.965 295.038C291.226 304.066 298.954 312.663 307.206 320.797C308.492 322.062 310.644 323.265 308.312 325.447C304.741 328.255 301.982 331.883 298.707 334.987C292.566 341.2 286.379 347.368 280.331 353.673C279.036 355.021 278.524 355.033 277.532 353.492C273.486 347.199 268.931 341.238 265.128 334.784C265.276 334.096 264.884 333.822 264.293 333.697C263.888 331.495 262.255 329.896 261.448 327.89C260.86 324.051 259.364 320.47 258.258 316.777C255.834 308.692 253.579 300.566 251.877 292.292C250.236 284.308 248.24 276.385 247.009 268.34C246.136 262.649 245.419 256.901 244.968 251.13C244.78 248.671 244.908 246.193 244.572 243.762C243.929 239.091 243.792 234.408 243.912 229.712C243.932 229.063 244.528 223.891 244.833 227.396Z"
      fill="#1C1B49" />
    <path
      d="M243.913 229.707C243.793 234.403 243.93 239.086 244.573 243.757C244.909 246.188 244.781 248.666 244.969 251.125C245.42 256.896 246.137 262.644 247.01 268.335C248.24 276.38 250.242 284.304 251.878 292.287C253.58 300.562 255.835 308.687 258.258 316.772C259.364 320.465 260.86 324.046 261.448 327.885C253.273 327.227 245.103 326.559 236.924 325.936C236.078 325.87 235.53 325.538 235.15 324.825C234.899 323.167 235.057 321.528 235.405 319.895C235.27 318.046 236.304 316.115 235.02 314.35C234.468 312.701 234.643 311.094 235.273 309.505C235.5 307.586 235.494 305.683 234.916 303.817C234.665 302.038 234.459 300.264 235.052 298.506C235.56 296.581 235.454 294.685 234.75 292.823C234.183 291.228 234.491 289.652 234.839 288.074C234.987 286.134 235.045 284.201 234.544 282.296C233.979 279.375 234.07 276.328 234.2 273.475C234.493 266.961 234.24 260.451 234.286 253.961C234.332 247.701 234.726 241.476 234.911 235.233C235.138 227.481 233.087 220.094 230.932 212.743C232.216 213.011 233.521 213.206 234.778 213.567C238.497 214.641 236.946 220.464 237.396 216.601C238.132 216.783 240.805 212.502 242.826 215.021C243.456 215.805 243.531 215.751 243.767 216.872C244.067 218.305 244.267 219.498 244.39 220.89C244.608 223.352 243.932 229.063 243.913 229.707Z"
      fill="#C3CCD5" />
    <path
      d="M298.706 334.992C301.982 331.884 304.74 328.26 308.311 325.452C313.158 332.594 319.533 337.927 327.178 341.915C330.54 343.67 333.221 346.495 336.142 348.918C336.956 349.593 337.093 350.526 336.809 351.403C336.445 352.514 335.435 352.018 334.661 351.988C330.899 351.832 327.473 350.011 323.697 349.839C320.41 349.687 320.271 349.8 320.597 353.002C320.742 354.436 321.271 356.414 319.74 357.056C318.536 357.56 317.509 355.957 316.556 354.965C313.929 352.221 312.044 348.973 310.568 345.574C308.218 340.119 303.346 337.741 298.706 334.992Z"
      fill="#5D3B28" />
    <path
      d="M184.779 342.875C184.636 336.72 185.033 330.515 186.274 324.576C187.072 320.753 187.142 316.879 188.047 313.145C189.275 308.081 189.246 302.771 191.187 297.858C191.671 296.632 191.215 295.141 191.912 293.823C192.216 294.074 192.447 294.194 192.431 294.262C191.656 298.358 192.996 302.416 192.575 306.521C192.169 310.513 193.222 314.481 193.229 318.442C193.234 321.717 194.214 324.759 194.44 327.962C194.743 332.284 196.268 336.407 197.548 340.531C197.883 341.61 197.965 342.594 197.961 343.655C193.567 343.395 189.173 343.135 184.779 342.875Z"
      fill="#333975" />
    <path
      d="M200.026 313.292C204.657 310.617 209.473 308.835 214.453 307.432C217.017 306.711 219.495 305.643 221.961 304.609C223.668 303.892 224.282 304.334 224.104 306.146C223.873 308.54 223.647 310.929 223.509 313.331C223.434 314.646 223.031 315.268 221.555 315.134C214.381 314.47 207.2 313.896 200.026 313.292Z"
      fill="#5D6198" />
    <path
      d="M235.133 335.964C236.101 337.547 235.244 339.217 235.374 340.83C235.16 339.205 234.83 337.601 235.133 335.964Z"
      fill="#E7E0E0" />
    <path
      d="M234.759 292.829C235.459 294.69 235.569 296.587 235.062 298.512C234.292 296.655 234.111 294.762 234.759 292.829Z"
      fill="#E7E0E0" />
    <path
      d="M234.554 282.302C235.054 284.207 234.997 286.14 234.848 288.08C233.84 286.197 234.064 284.254 234.554 282.302Z"
      fill="#E7E0E0" />
    <path
      d="M235.025 314.355C236.308 316.126 235.269 318.051 235.409 319.9C234.624 318.102 234.459 316.256 235.025 314.355Z"
      fill="#E7E0E0" />
    <path
      d="M234.92 303.822C235.499 305.689 235.504 307.592 235.277 309.51C234.557 307.657 234.346 305.762 234.92 303.822Z"
      fill="#E7E0E0" />
    <path
      d="M80.0706 447.015C80.3055 447.02 80.5408 447.019 80.781 447.02C80.5433 447.405 80.3038 447.515 80.0706 447.015Z"
      fill="#FEFEFE" />
    <path d="M62.252 433.438C62.252 433.438 64.8197 470.024 67.3119 487.703L75.5935 459.746L62.252 433.438Z"
      fill="#E3E3E3" />
    <path
      d="M307.333 538.105C307.333 538.105 309.026 543.449 311.507 548.049L316.77 546.194C316.77 546.194 315.985 543.98 315.216 542.589C314.452 541.197 311.45 539.032 311.45 539.032C311.45 539.032 308.278 534.364 307.333 538.105Z"
      fill="#44291C" />
    <path
      d="M234.442 247.455C234.442 247.455 236.12 335.952 235.519 342.616C235.519 342.616 233.78 343.646 233.412 343.615C233.044 343.584 229.98 341.679 229.378 341.393C228.776 341.107 228.992 312.261 228.992 312.261L230.099 242.849L234.442 247.455Z"
      fill="#3A4082" />
    <path
      d="M234.605 346.93C234.605 346.93 192.905 341.737 184.952 342.479C184.952 342.479 184.352 344.727 184.455 355.395L197.99 352.764L231.704 351.772L238.09 348.715C238.09 348.715 237.815 347.1 237.358 346.946C236.894 346.797 234.605 346.93 234.605 346.93Z"
      fill="#FDA435" />
    <path
      d="M274.238 348.549C274.238 348.549 263.362 335.176 261.447 327.89L266.183 325.58C266.183 325.58 272.759 330.019 273.665 332.574C274.572 335.124 279.439 347.254 279.439 347.254L274.238 348.549Z"
      fill="#1C1B49" />
    <path
      d="M235.626 327.96L261.859 329.187C261.859 329.187 261.028 325.677 260.827 324.909C260.626 324.141 251.58 323.47 250.717 323.262C249.853 323.054 243.99 322.34 243.534 322.527C243.078 322.709 237.123 323.62 237.123 323.62L235.603 324.017L235.626 327.96Z"
      fill="#C3CCD5" />
    <path
      d="M241.225 206.5C241.225 206.5 238.231 208.105 237.862 209.691C237.494 211.277 236.454 205.067 236.71 204.467C236.966 203.868 238.777 202.994 239.481 203.374C240.189 203.759 241.225 206.5 241.225 206.5Z"
      fill="#593623" />
    <path
      d="M229.764 190.805C229.764 190.805 223.817 202.866 223.606 208.761L229.464 207.627L232.479 203.996L229.764 190.805Z"
      fill="#593623" />
    <path
      d="M262.438 180.643C262.438 180.643 261.819 173.846 260.224 172.45L259.041 172.17C259.041 172.17 258.454 171.525 258.707 173.755C258.96 175.984 259.645 176.527 259.862 177.101C260.08 177.67 260.945 178.694 260.945 178.694L262.438 180.643Z"
      fill="#593623" />
    <path
      d="M267.04 164.808C267.236 161.109 265.891 157.822 263.689 155.193C258.543 149.052 252.281 144.454 243.969 143.514C243.383 143.45 242.907 143.335 242.632 143.041C240.746 143.313 238.703 143.377 236.58 143.198C235.039 143.068 233.558 142.818 232.166 142.466C231.803 142.555 231.362 142.498 230.926 142.381C228.185 141.635 225.304 142.254 222.967 143.013C213.852 145.966 205.66 150.553 201.207 159.676C198.967 164.269 197.106 169.01 196.593 174.218C196.4 176.21 197.303 177.918 197.222 179.834C197.109 182.533 197.921 185.205 199.028 187.516C200.877 191.372 203.061 195.161 206.517 197.94C210.724 201.318 214.973 204.665 220.657 205.009C221.997 205.091 222.936 205.776 224.011 206.322C225.79 204.399 225.426 201.71 226.45 199.473C227.818 196.489 227.962 192.991 230.137 190.295C230.707 189.587 230.271 188.945 230.041 188.224C228.747 184.145 231.964 179.715 236.081 180.472C239.178 181.038 241.389 179.922 243.715 178.466C248.229 175.631 253.139 173.696 258.166 172.022C259.418 171.607 260.217 171.934 260.548 173.294C261.013 175.201 261.969 176.988 261.786 179.051C261.735 179.592 261.786 179.051 262.422 180.651C263.463 180.659 264.265 179.985 264.599 179.232C265.934 176.221 266.705 173.011 267.573 169.84C268.079 168.045 266.955 166.478 267.04 164.808Z"
      fill="#E7E0E0" />
    <path
      d="M240.336 213.905L248.455 215.059C248.455 215.059 243.639 227.661 243.507 230.484C243.374 233.307 239.093 227.609 239.093 227.609L231.153 212.781"
      fill="#C3CCD5" />
  </g>
  <path fill-rule="evenodd" clip-rule="evenodd"
    d="M212.983 242.853C215.077 233.655 208.518 229.942 203.5 230.5C200.038 230.885 194.898 235.216 191.27 239.166C190.74 239.704 190.257 240.205 189.834 240.645C189.276 241.224 188.822 241.696 188.5 242H187C188.099 240.964 189.671 238.526 191.505 235.682C195.126 230.067 199.765 222.873 203.78 221.793C206.882 220.959 210.581 220.661 214.23 222.025C218.023 223.442 220.952 226.35 222.903 230.392C227.746 240.423 224.123 250.911 219.312 258.471C214.454 266.105 195.628 279.686 190 282.5L196.317 264.633C199.689 262.947 205.296 258.145 209.188 252.029C211.233 248.814 212.521 245.716 212.983 242.853Z"
    fill="#302A2A" />
  <defs>
    <filter id="filter0_d" x="-4" y="237" width="422" height="354" filterUnits="userSpaceOnUse"
      color-interpolation-filters="sRGB">
      <feFlood flood-opacity="0" result="BackgroundImageFix" />
      <feColorMatrix in="SourceAlpha" type="matrix" values="0 0 0 0 0 0 0 0 0 0 0 0 0 0 0 0 0 0 127 0" />
      <feOffset dy="4" />
      <feGaussianBlur stdDeviation="2" />
      <feColorMatrix type="matrix" values="0 0 0 0 0 0 0 0 0 0 0 0 0 0 0 0 0 0 0.25 0" />
      <feBlend mode="normal" in2="BackgroundImageFix" result="effect1_dropShadow" />
      <feBlend mode="normal" in="SourceGraphic" in2="effect1_dropShadow" result="shape" />
    </filter>
    <filter id="filter1_f" x="-7" y="-7" width="428" height="577" filterUnits="userSpaceOnUse"
      color-interpolation-filters="sRGB">
      <feFlood flood-opacity="0" result="BackgroundImageFix" />
      <feBlend mode="normal" in="SourceGraphic" in2="BackgroundImageFix" result="shape" />
      <feGaussianBlur stdDeviation="2" result="effect1_foregroundBlur" />
    </filter>
    <filter id="filter2_f" x="-6.70508" y="397.241" width="426.466" height="178.633" filterUnits="userSpaceOnUse"
      color-interpolation-filters="sRGB">
      <feFlood flood-opacity="0" result="BackgroundImageFix" />
      <feBlend mode="normal" in="SourceGraphic" in2="BackgroundImageFix" result="shape" />
      <feGaussianBlur stdDeviation="7" result="effect1_foregroundBlur" />
    </filter>
    <radialGradient id="paint0_angular" cx="0" cy="0" r="1" gradientUnits="userSpaceOnUse"
      gradientTransform="translate(247 274) rotate(-51.7817) scale(263.473 195.477)">
      <stop offset="0.343151" stop-color="#19A4B1" />
      <stop offset="0.673619" stop-color="#1DC3D2" />
    </radialGradient>
    <clipPath id="clip0">
      <rect width="310.188" height="413.853" fill="white" transform="translate(87.7168 130) rotate(4.81201)" />
    </clipPath>
  </defs>
</svg>