<svg width="414" height="591" viewBox="0 0 414 591" fill="none" xmlns="http://www.w3.org/2000/svg">
  <g filter="url(#filter0_d)">
    <rect y="237" width="414" height="346" rx="33" fill="#EE5E55" />
  </g>
  <g filter="url(#filter1_f)">
    <path d="M-3 -3H417V356C417 471.98 322.98 566 207 566C91.0202 566 -3 471.98 -3 356V-3Z" fill="#EE7255" />
  </g>
  <g filter="url(#filter2_f)">
    <path fill-rule="evenodd" clip-rule="evenodd"
      d="M7.29492 411.241C31.8398 498.17 111.744 561.875 206.528 561.875C301.311 561.875 381.216 498.17 405.761 411.241H7.29492Z"
      fill="#ED7255" />
  </g>
  <rect x="59" y="127" width="296" height="348" rx="148" fill="url(#paint0_linear)" />
  <circle cx="207.5" cy="127.5" r="26.5" fill="#EF7356" />
  <path fill-rule="evenodd" clip-rule="evenodd"
    d="M224.071 147.862L192.357 105.483C196.574 102.652 201.649 101 207.11 101C221.746 101 233.61 112.864 233.61 127.5C233.61 135.684 229.901 143.001 224.071 147.862Z"
    fill="#F1876E" />
  <path
    d="M144.893 74.0615C144.893 76.3174 144.078 78.0947 142.449 79.3936C140.831 80.6924 138.576 81.3418 135.682 81.3418C133.016 81.3418 130.657 80.8405 128.606 79.8379V74.916C130.293 75.668 131.717 76.1978 132.879 76.5054C134.052 76.813 135.123 76.9668 136.092 76.9668C137.254 76.9668 138.143 76.7446 138.758 76.3003C139.384 75.856 139.698 75.1951 139.698 74.3179C139.698 73.828 139.561 73.395 139.288 73.019C139.014 72.6317 138.61 72.2614 138.074 71.9082C137.55 71.555 136.473 70.991 134.844 70.2163C133.318 69.4985 132.173 68.8092 131.409 68.1484C130.646 67.4876 130.036 66.7186 129.581 65.8413C129.125 64.964 128.897 63.9386 128.897 62.7651C128.897 60.5549 129.643 58.8174 131.136 57.5527C132.64 56.2881 134.713 55.6558 137.356 55.6558C138.655 55.6558 139.891 55.8096 141.065 56.1172C142.25 56.4248 143.486 56.8577 144.773 57.416L143.064 61.5347C141.731 60.9878 140.626 60.6061 139.749 60.3896C138.883 60.1732 138.029 60.0649 137.186 60.0649C136.183 60.0649 135.414 60.2985 134.878 60.7656C134.343 61.2327 134.075 61.8423 134.075 62.5942C134.075 63.0614 134.183 63.4715 134.4 63.8247C134.616 64.1665 134.958 64.5026 135.425 64.833C135.904 65.152 137.026 65.7331 138.792 66.5762C141.128 67.6927 142.728 68.8149 143.594 69.9429C144.46 71.0594 144.893 72.4323 144.893 74.0615ZM157.061 77.189C157.972 77.189 159.066 76.9896 160.342 76.5908V80.4702C159.043 81.0513 157.448 81.3418 155.557 81.3418C153.472 81.3418 151.951 80.8177 150.994 79.7695C150.049 78.71 149.576 77.1263 149.576 75.0186V65.8071H147.081V63.6025L149.952 61.8594L151.456 57.8262H154.788V61.8936H160.137V65.8071H154.788V75.0186C154.788 75.7591 154.993 76.306 155.403 76.6592C155.825 77.0124 156.377 77.189 157.061 77.189ZM177.757 81L177.056 78.5562H176.783C176.224 79.4448 175.433 80.1341 174.407 80.624C173.382 81.1025 172.214 81.3418 170.904 81.3418C168.659 81.3418 166.967 80.7437 165.828 79.5474C164.689 78.3397 164.119 76.6079 164.119 74.3521V61.8936H169.332V73.0532C169.332 74.4318 169.576 75.4686 170.066 76.1636C170.556 76.8472 171.337 77.189 172.408 77.189C173.866 77.189 174.92 76.7048 175.569 75.7363C176.219 74.7565 176.543 73.1387 176.543 70.8828V61.8936H181.756V81H177.757ZM193.274 81.3418C191.03 81.3418 189.264 80.4702 187.977 78.7271C186.701 76.9839 186.062 74.5685 186.062 71.481C186.062 68.3478 186.712 65.9097 188.011 64.1665C189.321 62.4119 191.121 61.5347 193.411 61.5347C195.815 61.5347 197.649 62.4689 198.914 64.3374H199.085C198.823 62.9132 198.692 61.6429 198.692 60.5264V54.4082H203.921V81H199.922L198.914 78.522H198.692C197.507 80.4019 195.701 81.3418 193.274 81.3418ZM195.103 77.189C196.436 77.189 197.41 76.8016 198.025 76.0269C198.652 75.2521 198.994 73.9362 199.051 72.0791V71.5151C199.051 69.4644 198.732 67.9946 198.094 67.106C197.467 66.2173 196.442 65.7729 195.018 65.7729C193.855 65.7729 192.95 66.2686 192.3 67.2598C191.662 68.2396 191.343 69.6694 191.343 71.5493C191.343 73.4292 191.668 74.842 192.317 75.7876C192.967 76.7218 193.895 77.189 195.103 77.189ZM217.286 65.2432C216.181 65.2432 215.315 65.5964 214.688 66.3027C214.061 66.9977 213.702 67.9889 213.611 69.2764H220.926C220.903 67.9889 220.567 66.9977 219.917 66.3027C219.268 65.5964 218.391 65.2432 217.286 65.2432ZM218.021 81.3418C214.944 81.3418 212.54 80.493 210.809 78.7954C209.077 77.0978 208.211 74.6938 208.211 71.5835C208.211 68.382 209.008 65.9097 210.604 64.1665C212.21 62.4119 214.426 61.5347 217.251 61.5347C219.952 61.5347 222.054 62.3037 223.558 63.8418C225.062 65.3799 225.813 67.5047 225.813 70.2163V72.7456H213.492C213.549 74.2267 213.987 75.3831 214.808 76.2148C215.628 77.0465 216.779 77.4624 218.26 77.4624C219.41 77.4624 220.499 77.3428 221.524 77.1035C222.549 76.8643 223.62 76.4826 224.737 75.9585V79.9917C223.825 80.4474 222.851 80.7835 221.814 81C220.778 81.2279 219.513 81.3418 218.021 81.3418ZM247.688 81H242.476V69.8403C242.476 68.4618 242.231 67.4307 241.741 66.7471C241.251 66.0521 240.471 65.7046 239.4 65.7046C237.942 65.7046 236.888 66.1945 236.238 67.1743C235.589 68.1427 235.264 69.7549 235.264 72.0107V81H230.052V61.8936H234.034L234.734 64.3374H235.025C235.606 63.4146 236.403 62.7196 237.417 62.2524C238.443 61.7739 239.605 61.5347 240.904 61.5347C243.125 61.5347 244.812 62.1385 245.962 63.3462C247.113 64.5425 247.688 66.2743 247.688 68.5415V81ZM261.104 77.189C262.015 77.189 263.109 76.9896 264.385 76.5908V80.4702C263.086 81.0513 261.491 81.3418 259.6 81.3418C257.515 81.3418 255.994 80.8177 255.037 79.7695C254.091 78.71 253.619 77.1263 253.619 75.0186V65.8071H251.124V63.6025L253.995 61.8594L255.499 57.8262H258.831V61.8936H264.18V65.8071H258.831V75.0186C258.831 75.7591 259.036 76.306 259.446 76.6592C259.868 77.0124 260.42 77.189 261.104 77.189Z"
    fill="#F7F8F4" />
  <g clip-path="url(#clip0)">
    <path
      d="M87.4033 537C87.487 533.649 87.3196 530.264 87.752 526.962C87.9751 525.231 88.254 523.018 90.5411 522.299C92.3192 522.935 94.0485 523.835 95.8823 524.149C100.192 524.889 103.085 522.711 103.915 518.439C110.4 518.991 115.553 523.004 121.389 525.245C125.287 526.739 128.843 529.098 133.201 529.329C138.026 529.58 140.041 532.191 139.142 537C121.891 537 104.647 537 87.4033 537Z"
      fill="#E4E3E3" />
    <path
      d="M20.7289 518.327C27.9458 521.441 35.1696 524.526 42.3656 527.688C44.1437 528.47 45.88 529.133 47.8672 529.273C52.5948 529.594 55.2863 531.793 54.2195 537C37.3033 537 20.3802 537 3.46405 537C2.51575 531.883 1.21879 526.718 5.4304 522.299C13.6723 525.594 14.0977 525.482 20.7289 518.327Z"
      fill="#E4E3E3" />
    <path
      d="M71.6796 420.609C66.2478 420.337 60.8159 420.03 55.391 420.784C45.8801 420.002 36.3551 420.428 26.8302 420.546C18.5465 420.49 10.2557 420.288 1.97198 420.455C-1.32619 420.525 -2.25358 419.674 -2.51157 416.183C-4.76381 386.189 0.926046 357.471 10.4719 329.257C14.2303 318.137 17.6958 306.919 21.8725 295.946C22.5419 294.18 23.6994 292.4 22.3955 289.503C11.3923 299.939 5.36078 313.195 -1.31224 325.983C-3.06243 325.348 -2.3512 323.986 -2.3512 323.03C-2.40698 309.977 -2.37212 296.917 -2.41395 283.863C-2.42093 281.692 -2.03742 279.773 -0.859006 277.853C12.2221 256.528 29.5008 239.3 49.9383 225.116C50.9633 224.404 51.9743 224.209 53.1109 224.16C55.3144 225.416 59.3935 222.164 60.0908 227.071C61.1925 244.417 62.0641 261.784 63.4586 279.11C64.7417 294.969 65.5714 310.884 67.9561 326.646C68.7789 339.748 70.3897 352.753 72.6349 365.68C72.4746 369.631 73.0951 373.449 74.5246 377.128C75.4171 388.018 78.0598 398.579 80.6398 409.147C81.4835 412.603 83.9031 417.14 82.5713 419.297C80.7583 422.235 75.7239 419.757 72.1538 420.518C72.0004 420.539 71.84 420.574 71.6796 420.609Z"
      fill="#FE4234" />
    <path
      d="M71.6797 420.609C71.8401 420.574 72.0004 420.539 72.1538 420.511C75.7239 419.75 80.7653 422.228 82.5713 419.29C83.9031 417.133 81.4905 412.589 80.6398 409.14C78.0529 398.572 75.4171 388.018 74.5246 377.128C80.347 377.128 86.1693 377.121 91.9916 377.121C94.6274 408.212 97.3189 439.296 99.8849 470.393C101.091 484.968 102.04 499.564 103.148 514.146C103.26 515.584 103.643 517.008 103.901 518.439C103.071 522.711 100.178 524.889 95.8685 524.149C94.0347 523.835 92.3054 522.935 90.5273 522.299C88.1147 507.599 85.7579 492.884 83.2756 478.19C80.8141 463.657 78.1993 449.145 75.71 434.612C74.8942 429.781 73.2416 425.216 71.6797 420.609Z"
      fill="#D2B398" />
    <path
      d="M26.8372 420.546C36.3552 420.428 45.8801 420.002 55.398 420.784C51.3677 435.847 46.1032 450.499 40.6295 465.067C34.7026 480.857 28.3573 496.486 22.27 512.22C21.5169 514.16 21.238 516.289 20.736 518.328C14.0978 525.482 13.6724 525.594 5.4375 522.299C6.81813 516.31 8.22664 510.328 9.56543 504.332C15.2832 478.679 21.0149 453.026 26.635 427.352C27.1091 425.174 26.7884 422.815 26.8372 420.546Z"
      fill="#EAC7A9" />
    <path
      d="M70.9758 227.35C79.65 247.942 90.2 267.473 103.971 285.127C113.176 296.93 123.161 308.015 134.736 317.572C136.256 318.828 137.964 319.924 136.807 322.318C134.694 324.726 133.09 327.428 132.086 330.485C129.98 334.604 127.484 333.822 124.137 331.686C116.125 326.569 107.834 321.885 99.711 316.936C97.9956 315.889 96.2664 315.247 94.2861 315.233C88.4219 301.328 83.1225 287.207 78.9179 272.709C74.6156 257.896 70.6411 242.993 70.9758 227.35Z"
      fill="#C11F19" />
    <path
      d="M70.9756 227.35C70.6409 242.993 74.6154 257.896 78.9177 272.709C83.1293 287.207 88.4217 301.328 94.2859 315.233C94.244 315.554 94.0976 315.903 94.1813 316.182C96.301 323.449 96.308 323.449 89.3212 325.285C86.6924 325.383 84.0079 324.964 81.5255 326.241C77.0001 326.374 72.4748 326.513 67.9494 326.646C65.5647 310.884 64.7279 294.969 63.4519 279.11C62.0573 261.784 61.1787 244.417 60.084 227.071C62.7197 227.001 65.4182 227.706 67.9424 226.373C68.9465 226.736 70.5224 225.312 70.9756 227.35Z"
      fill="#1C2031" />
    <path
      d="M54.136 213.808C43.8231 213.27 40.1833 209.313 40.5738 198.968C40.7481 194.354 41.5639 189.788 43.8441 185.789C45.2038 183.408 44.6947 182.738 42.5401 181.461C36.397 177.824 34.4377 171.842 34.9606 165.113C35.4627 158.551 45.5594 152.325 51.7792 154.412C52.3928 154.614 53.0413 155.222 53.5572 155.117C57.999 154.188 61.6318 154.991 63.7516 159.473C65.5087 163.193 67.1474 167.011 66.0944 171.221C65.4111 173.95 66.4291 174.676 68.8975 174.725C74.678 174.829 78.9315 177.929 82.8293 181.88C84.8445 183.918 85.0955 185.67 82.9897 187.659C82.2227 187.911 81.4487 188.176 80.6747 188.413C74.699 190.263 68.012 190.905 65.2228 198.018C64.665 199.442 63.2983 198.716 62.2315 198.346C59.7631 197.495 57.2529 197.209 55.7467 199.833C54.3591 202.262 54.3731 205.124 56.2209 207.198C59.533 210.904 57.6991 212.524 54.136 213.808Z"
      fill="#C9370A" />
    <path
      d="M54.1355 213.808C57.6986 212.524 59.5325 210.897 56.2204 207.198C54.3656 205.124 54.3516 202.255 55.7462 199.833C57.2523 197.209 59.7556 197.495 62.231 198.346C63.2978 198.716 64.6645 199.442 65.2223 198.018C68.0184 190.898 74.6984 190.263 80.6742 188.413C81.4482 188.176 82.2152 187.911 82.9892 187.659C87.5215 197.62 87.4239 207.84 84.3907 218.108C83.0938 222.499 80.0675 223.692 75.1377 222.338C74.3637 222.122 73.6316 221.731 72.8646 221.493C71.0656 220.942 69.1759 218.583 67.6001 219.965C65.6477 221.675 67.5443 224.209 67.9487 226.373C65.4245 227.713 62.726 227.001 60.0903 227.071C59.393 222.163 55.3209 225.423 53.1105 224.16C52.9292 220.656 54.9025 217.368 54.1355 213.808Z"
      fill="#E9C5A7" />
    <path
      d="M81.5324 326.234C84.0147 324.957 86.6993 325.376 89.328 325.278C91.1689 341.033 93.0097 356.787 94.8505 372.542C95.1225 374.839 95.6106 377.261 91.9986 377.114C86.1763 377.114 80.354 377.121 74.5316 377.121C73.0952 373.436 72.4746 369.617 72.635 365.666C76.742 352.781 79.0989 339.497 81.5324 326.234Z"
      fill="#5A939D" />
    <path
      d="M132.093 330.485C133.097 327.435 134.701 324.726 136.813 322.318C144.142 328.587 153.437 331.33 161.567 336.16C162.69 336.83 164.252 337.598 163.966 338.911C163.533 340.872 161.56 339.944 160.242 340.02C158.471 340.125 156.686 339.965 154.908 339.937C151.861 339.888 148.479 339.49 150.501 344.46C150.808 345.207 150.801 346.1 149.901 346.575C149.058 347.022 148.333 346.624 147.698 346.086C147.077 345.563 146.429 345.053 145.92 344.432C141.722 339.371 137.469 334.366 132.093 330.485Z"
      fill="#EAC8AB" />
    <path
      d="M81.5322 326.234C79.0917 339.497 76.7419 352.781 72.6348 365.666C70.3826 352.739 68.7789 339.734 67.9561 326.632C72.4884 326.506 77.0068 326.367 81.5322 326.234Z"
      fill="#88BFC5" />
  </g>
  <g clip-path="url(#clip1)">
    <path
      d="M352.435 190.84C360.555 194.709 367.223 200.672 374.003 206.385C389.139 219.14 401.628 234.22 411.957 251.115C412.985 252.792 413.826 254.455 413.819 256.543C413.756 272.485 413.77 288.427 413.749 304.369C413.749 304.78 413.575 305.191 413.256 306.624C405.497 289.582 396.967 274.079 383.575 260.892C383.123 265.018 385.506 267.419 386.339 270.265C387.249 273.376 388.493 276.396 389.576 279.458C399.155 306.415 407.97 333.61 413.207 361.813C414.701 369.843 413.596 378.04 413.763 386.161C413.895 392.5 413.631 398.854 413.86 405.193C413.971 408.269 412.943 409.034 409.998 408.985C402.225 408.846 394.452 409.055 386.68 409.124C384.915 410.565 382.797 410.628 380.678 410.634C369.495 410.669 358.318 410.662 347.135 410.641C345.002 410.634 342.918 410.467 341.119 409.124C340.605 409.124 340.091 409.124 339.577 409.124C332.853 411.769 325.935 410.44 319.092 409.987C316.821 409.841 316.613 407.774 317.022 405.84C317.592 403.147 318.245 400.461 319.044 397.838C322.413 386.808 324.524 375.521 326.15 364.13C328.901 348.967 330.401 333.623 332.492 318.37C333.131 313.722 333.582 309.025 333.916 304.335C335.729 286.91 336.986 269.437 338.445 251.985C339.994 233.405 340.265 214.735 342.647 196.219C344.641 189.448 345.884 188.766 352.435 190.84Z"
      fill="#FE4133" />
    <path
      d="M327.352 364.012C326.108 377.818 322.621 391.157 318.703 404.379C317.641 407.962 318.016 409.229 322.114 409.02C327.914 408.721 333.749 409.055 339.57 409.124C331.985 440.543 324.379 471.954 316.863 503.386C316.286 505.8 315.758 507.811 312.806 507.832C305.839 510.623 298.99 509.802 292.162 507.227C290.731 506.691 290.689 505.696 290.696 504.555C290.918 482.635 290.189 460.716 291.071 438.803C292.037 410.085 294.253 381.485 298.455 353.031C300.803 337.124 303.998 321.432 308.173 305.921C308.722 303.896 308.527 302.518 306.499 301.704C310.451 300.062 314.174 300.445 317.655 302.964C316.001 310.778 319.197 318.029 320.586 325.419C322.322 334.646 324.622 343.797 326.803 352.947C327.678 356.629 327.928 360.282 327.352 364.012Z"
      fill="#191847" />
    <path
      d="M341.119 409.118C356.304 409.118 371.495 409.118 386.68 409.118C390.445 439.047 396.182 468.6 403.163 497.923C403.76 500.442 404.261 502.996 404.983 505.48C405.705 507.979 404.462 508.674 402.35 508.779C395.786 511.173 389.229 511.221 382.679 508.73C380.379 508.605 378.643 508.264 377.455 505.557C363.632 474.055 351.24 442.018 341.119 409.118Z"
      fill="#393F82" />
    <path
      d="M258.056 299.575C257.333 297.487 258.507 296.395 259.987 295.135C292.016 267.781 315.224 234.073 331.117 195.133C331.645 194.771 332.096 194.848 332.485 195.349C333.992 200.54 332.506 205.682 331.832 210.727C328.352 236.718 319.676 261.212 309.917 285.365C309.271 286.966 308.847 288.866 306.791 289.422C294.531 296.798 282.291 304.209 269.983 311.502C268.718 312.254 266.822 314.898 265.725 311.147C261.703 308.28 259.348 304.279 258.056 299.575Z"
      fill="#C11B15" />
    <path
      d="M306.784 289.429C317.579 263.662 326.775 237.4 330.769 209.579C331.457 204.778 331.561 199.886 331.936 195.036C332.159 192.545 332.735 193.039 336.208 193.393C339.925 193.185 344.336 192.593 343.912 195.982C341.835 224.464 339.827 252.945 337.639 281.42C337.049 289.151 335.931 296.847 335.055 304.557C328.998 307.16 323.149 306.29 317.426 303.465C313.918 302.017 310.111 302.421 306.485 301.69C303.311 300.549 304.054 298.016 304.589 295.776C305.124 293.618 306.041 291.545 306.784 289.429Z"
      fill="#181F31" />
    <path
      d="M315.571 157.076C313.431 152.755 313.473 147.529 309.771 143.827C306.645 140.703 307.312 140.807 310.931 138.74C313.425 137.314 317.877 136.27 316.662 130.877C315.62 126.257 317.849 124.962 322.239 127.196C324.525 128.358 325.796 128.282 327.373 126.097C329.991 122.485 333.485 122.005 336.993 124.816C339.119 126.514 340.814 126.222 343.085 125.088C349.128 122.081 353.511 123.967 355.304 130.425C356.012 132.986 356.894 133.174 359.353 132.763C367.376 131.434 370.606 135.331 368.147 143.187C367.293 145.915 367.001 147.738 370.46 148.587C372.252 149.025 373.857 151.252 373.461 152.637C372.009 157.765 372.079 163.757 367.932 167.605C364.167 171.098 359.02 172.977 357.756 178.961C357.304 181.111 354.442 180.917 352.733 179.852C350.052 178.182 350.782 180.485 350.399 181.578C346.343 177.298 345.773 172.594 348.927 168.732C350.142 167.243 351.08 165.747 349.747 163.945C348.239 161.913 346.155 162.226 343.995 162.678C338.959 163.75 337.097 162.121 337.473 157.09C337.486 156.951 337.639 156.819 337.723 156.68C338.494 156.047 339.411 155.845 340.362 155.719C341.001 155.636 341.647 155.601 343.161 155.504C340.654 155.065 338.924 155.323 337.257 154.961C335.34 154.543 334.319 153.068 333.18 151.711C331.374 149.972 329.318 150.222 327.414 151.287C323.566 153.437 319.114 154.314 315.571 157.076Z"
      fill="#E7E0E0" />
    <path
      d="M337.966 157.076C338.543 160.938 339.21 164.105 344.44 161.161C346.927 159.762 349.914 160.451 351.463 163.499C352.894 166.317 352.005 168.725 349.407 170.117C347.08 171.362 347.205 172.643 348.15 174.716C349.143 176.895 349.671 179.281 350.407 181.571C351.088 184.66 351.769 187.75 352.442 190.84C351.803 190.923 351.136 191.181 350.539 191.069C346.538 190.318 344.322 191.904 343.919 195.989C342.079 192.099 338.397 195.015 335.834 193.783C335.57 193.595 335.466 193.386 335.514 193.157C335.57 192.92 335.632 192.802 335.709 192.802C336.459 184.89 336.459 184.89 329.263 187.736C320.983 191.014 317.378 189.016 315.516 180.228C313.884 172.497 314.613 164.794 315.572 157.076C316.315 154.502 317.857 153.145 320.698 153.04C324.303 152.901 326.484 148.97 330.381 149.199C332 149.29 333.694 148.677 334.007 151.078C334.618 152.393 334.813 153.987 336.369 154.676C337.202 155.274 338.571 155.518 337.966 157.076Z"
      fill="#915B3C" />
    <path
      d="M407.63 520.205C409.242 524.888 408.797 529.78 408.922 534.595C408.998 537.421 407.373 538.931 404.303 538.917C387.333 538.854 370.363 538.798 353.394 538.965C350.164 539 349.747 537.205 349.24 534.867C348.608 531.944 350.323 531.172 352.636 530.74C364.167 528.59 375.101 524.867 384.971 518.347C386.242 517.275 387.59 516.58 389.334 517.136C395.286 519.043 401.601 518.785 407.63 520.205Z"
      fill="#1A1947" />
    <path
      d="M313.258 520.191C313.654 524.54 314.092 528.882 314.439 533.238C314.738 536.968 313.321 538.958 309.222 538.93C292.558 538.826 275.887 538.736 259.23 539C255.312 539.063 255.076 536.711 254.625 534.226C254.055 531.081 256.736 530.984 258.647 530.643C270.073 528.59 280.729 524.554 290.592 518.396C298.303 516.969 305.749 519.029 313.258 520.191Z"
      fill="#1A1947" />
    <path
      d="M258.056 299.575C260.612 303.437 263.169 307.299 265.725 311.154C261.39 309.24 258.695 312.045 256.306 314.807C253.131 318.482 250.582 322.705 246.796 325.851C245.977 326.533 245.108 327.688 243.858 326.832C242.934 326.199 243.17 325.043 243.427 324.139C244.726 319.477 242.156 318.76 238.468 319.157C236.377 319.386 234.293 319.797 232.195 319.887C230.736 319.95 228.604 320.973 228.069 318.746C227.631 316.916 229.424 315.962 230.841 315.169C233.668 313.583 236.398 311.69 239.412 310.625C246.386 308.155 252.603 304.564 258.056 299.575Z"
      fill="#915C3D" />
    <path
      d="M407.63 520.205C401.343 520.803 395.119 520.504 389.153 518.312C387.604 517.741 386.353 518.34 384.971 518.34C386.645 514.547 382.957 512.049 382.679 508.73C389.236 508.744 395.793 508.765 402.351 508.779C404.33 512.488 403.129 517.679 407.63 520.205Z"
      fill="#905B3D" />
    <path
      d="M317.44 303.472C323.309 303.938 329.151 304.822 335.069 304.564C333.666 324.536 331.006 344.34 327.352 364.012C325.615 351.027 321.858 338.474 319.162 325.698C317.968 320.019 316.613 314.369 315.668 308.656C315.377 306.916 314.217 304.265 317.44 303.472Z"
      fill="#393F81" />
    <path
      d="M335.917 155.038C334.444 154.126 333.715 152.846 334.007 151.071C335.431 153.632 337.605 154.383 340.453 154.14C342.266 153.98 344.259 153.66 346.357 155.135C344.371 156.346 342.745 157.167 340.745 156.861C339.46 155.379 337.403 155.977 335.917 155.038Z"
      fill="#E7E0E0" />
    <path
      d="M335.917 155.037C337.362 156.081 340.376 152.922 340.738 156.861C339.814 156.93 338.89 157.007 337.966 157.076C337.285 156.401 336.598 155.719 335.917 155.037Z"
      fill="#E7E0E0" />
    <path
      d="M302.7 507.714C302.7 507.714 290.954 508.041 290.627 506.698C290.301 505.355 290.252 439.408 290.287 436.34C290.322 433.271 294.552 384.755 294.851 381.923C295.149 379.091 302.7 379.606 302.7 379.606C302.7 379.606 306.381 390.413 306.381 390.781C306.381 391.15 307.854 422.833 307.854 422.833L306.631 490.742L302.7 507.714Z"
      fill="#191847" />
    <path
      d="M311.507 515.967C312.091 513.288 312.39 510.546 312.806 507.825C308.124 507.77 303.443 507.735 298.754 507.652C297.184 507.624 295.941 507.589 294.947 507.478C295.156 507.512 295.336 507.54 295.461 507.561C296.441 507.693 296.913 517.08 290.995 518.173C290.981 518.173 290.967 518.173 290.953 518.18C290.821 518.249 290.703 518.326 290.571 518.396C298.15 518.73 305.527 521.666 313.251 520.191C311.445 519.293 311.091 517.908 311.507 515.967Z"
      fill="#825237" />
  </g>
  <defs>
    <filter id="filter0_d" x="-4" y="237" width="422" height="354" filterUnits="userSpaceOnUse"
      color-interpolation-filters="sRGB">
      <feFlood flood-opacity="0" result="BackgroundImageFix" />
      <feColorMatrix in="SourceAlpha" type="matrix" values="0 0 0 0 0 0 0 0 0 0 0 0 0 0 0 0 0 0 127 0" />
      <feOffset dy="4" />
      <feGaussianBlur stdDeviation="2" />
      <feColorMatrix type="matrix" values="0 0 0 0 0 0 0 0 0 0 0 0 0 0 0 0 0 0 0.25 0" />
      <feBlend mode="normal" in2="BackgroundImageFix" result="effect1_dropShadow" />
      <feBlend mode="normal" in="SourceGraphic" in2="effect1_dropShadow" result="shape" />
    </filter>
    <filter id="filter1_f" x="-7" y="-7" width="428" height="577" filterUnits="userSpaceOnUse"
      color-interpolation-filters="sRGB">
      <feFlood flood-opacity="0" result="BackgroundImageFix" />
      <feBlend mode="normal" in="SourceGraphic" in2="BackgroundImageFix" result="shape" />
      <feGaussianBlur stdDeviation="2" result="effect1_foregroundBlur" />
    </filter>
    <filter id="filter2_f" x="-6.70508" y="397.241" width="426.466" height="178.633" filterUnits="userSpaceOnUse"
      color-interpolation-filters="sRGB">
      <feFlood flood-opacity="0" result="BackgroundImageFix" />
      <feBlend mode="normal" in="SourceGraphic" in2="BackgroundImageFix" result="shape" />
      <feGaussianBlur stdDeviation="7" result="effect1_foregroundBlur" />
    </filter>
    <linearGradient id="paint0_linear" x1="158" y1="154" x2="335" y2="468" gradientUnits="userSpaceOnUse">
      <stop offset="0.359375" stop-color="#FC9981" />
      <stop offset="1" stop-color="#E46A4C" />
    </linearGradient>
    <clipPath id="clip0">
      <rect width="167" height="383" fill="white" transform="translate(-3 154)" />
    </clipPath>
    <clipPath id="clip1">
      <rect width="186" height="416" fill="white" transform="translate(228 123)" />
    </clipPath>
  </defs>
</svg>