<svg width="408" height="231" viewBox="0 0 408 231" fill="none"
  xmlns="http://www.w3.org/2000/svg">
  <path d="M7 111.5C7 49.9203 56.9203 0 118.5 0H421V223H118.5C56.9202 223 7 173.08 7 111.5Z" fill="#D1FFF1" />
  <g filter="url(#filter0_d)">
    <path fill-rule="evenodd" clip-rule="evenodd" d="M115.5 0C53.9203 0 4 49.9203 4 111.5C4 173.08 53.9202 223 115.5 223H118.557C118.854 221.664 119.142 220.325 119.398 218.978C119.592 217.952 119.561 216.925 119.531 215.899C119.52 215.521 119.508 215.144 119.508 214.766C119.508 214.051 119.021 213.853 118.43 213.735C115.594 213.122 112.798 212.336 110.057 211.384C109 211.048 108.294 210.541 108.294 209.369C108.304 208.489 107.794 208.116 107.052 207.817C104.943 206.999 102.897 206.029 100.929 204.915C100.096 204.425 99.5049 203.908 99.5452 202.836C99.5788 201.95 99.1388 201.47 98.1615 201.365C97.1686 201.26 96.18 201.108 95.191 200.956C94.1993 200.804 93.2072 200.652 92.2101 200.546C87.9514 200.086 84.0958 198.41 80.5122 196.277C77.6406 194.564 74.6247 194.161 71.4643 194.017C68.7472 193.893 66.1611 193.154 63.6019 192.338C61.9192 191.8 61.0023 190.719 61.2005 189.715C61.3987 188.71 62.5842 188.042 64.3542 188.082C65.9745 188.108 67.5922 188.22 69.2006 188.418C70.4048 188.572 71.5556 188.333 72.7461 188.085L72.7607 188.082C71.3793 187.571 69.9467 187.514 68.5135 187.458C67.8385 187.431 67.1635 187.404 66.4936 187.33C66.1262 187.29 65.7582 187.252 65.3902 187.215L65.3895 187.214L65.389 187.214C62.9147 186.962 60.4412 186.71 58.161 185.57C57.6245 185.306 57.112 184.996 56.6295 184.643C54.349 182.957 54.4632 180.791 56.9049 179.343C58.3754 178.471 60.0175 178.234 61.6586 177.997C62.0452 177.942 62.4317 177.886 62.816 177.822C65.5901 177.372 68.371 177.066 71.2124 177.278C70.5873 177.142 69.9625 177.004 69.3378 176.867L69.327 176.865C67.7232 176.513 66.1202 176.161 64.5154 175.824C63.1789 175.54 61.8637 175.164 60.5792 174.698C59.9645 174.501 59.4213 174.127 59.0174 173.624C58.161 172.515 58.4834 171.35 59.8101 170.893C62.0502 170.121 64.3945 170.195 66.6615 170.507C74.4601 171.578 82.0639 173.557 89.5165 176.059C92.2034 176.959 94.5342 178.725 96.5695 180.606C97.6986 181.65 98.7781 182.743 99.8596 183.838L99.8598 183.838C100.728 184.717 101.597 185.597 102.494 186.453L105.738 189.523L105.796 189.576L105.797 189.576C105.862 189.636 105.93 189.698 106 189.768L106.088 189.856L106.182 189.95C108.079 191.82 108.247 191.827 109.372 189.419C109.926 188.237 110.568 187.773 111.841 188.301C112.68 188.616 113.54 188.875 114.414 189.076C114.467 189.091 114.523 189.111 114.581 189.131C114.845 189.223 115.137 189.326 115.327 188.976C115.492 188.67 115.287 188.391 115.092 188.166C112.311 184.979 111.27 181.043 110.491 177.056C110.449 176.842 110.406 176.628 110.364 176.413C109.81 173.631 109.247 170.802 110.282 167.961C111.048 165.862 111.888 163.803 113.537 162.225C114.437 161.352 114.037 161.153 113.094 160.938C105.977 159.296 99.0011 157.153 92.0825 154.826C90.0947 154.17 88.1268 153.457 86.1811 152.688L86.1783 152.697C86.1783 152.697 75.1487 148.982 72.3007 147.921L70.8699 147.387L70.168 146.695C63.649 138.161 56.3072 113.166 56.3072 113.166L56.3302 113.177C55.095 109.512 54.2083 105.752 53.3219 101.993L53.3219 101.992L53.3214 101.99L53.3213 101.99C53.203 101.488 53.0846 100.986 52.9654 100.484C52.9044 100.233 52.9068 99.9712 52.9725 99.7214C53.0381 99.4716 53.165 99.2421 53.3416 99.0536C53.8347 98.4668 54.3582 97.9063 54.91 97.3743L54.9474 97.3397C56.4215 95.9739 56.4249 95.9707 55.6456 93.999C54.2282 90.4121 53.3685 86.7546 54.2618 82.8754C54.2644 82.8635 54.2678 82.8517 54.2715 82.8401C54.2732 82.8347 54.275 82.8294 54.2767 82.8241C54.2861 82.7955 54.2954 82.7673 54.2954 82.7377C54.6514 80.511 57.6338 74.9056 57.6338 74.9056C57.6842 74.7948 57.7379 74.6738 57.7782 74.5697C58.7834 71.9527 58.7134 69.0445 57.5834 66.479C56.1661 63.0935 56.6296 59.7081 58.7791 55.2983C59.5955 53.8329 60.5554 51.6287 61.5866 49.2607L61.5867 49.2606L61.5867 49.2605L61.5868 49.2602C61.9216 48.4915 62.2639 47.7056 62.6112 46.9221C63.0579 45.9145 63.1519 45.32 61.7548 44.9069C59.9981 44.4435 58.4773 43.3418 57.4894 41.817C57.083 41.1588 56.7707 41.1655 56.1863 41.5618C55.0294 42.3036 53.694 42.7201 52.3206 42.7675C51.9836 42.8173 51.6398 42.7932 51.313 42.697L51.1718 42.6369C50.2605 42.2503 49.2365 41.8158 49.0258 40.8229C48.8618 40.0501 49.5086 39.7719 50.1282 39.5053C50.3461 39.4116 50.5606 39.3193 50.7353 39.2074C50.9957 39.0405 51.2532 38.8678 51.5111 38.6948C52.3478 38.1335 53.1884 37.5697 54.1409 37.1923C54.4701 37.0647 54.7757 36.8934 54.6951 36.4534C54.4728 35.2873 55.2485 34.7267 56.0146 34.1732L56.1124 34.1024C56.3109 33.9598 56.5272 33.8426 56.7433 33.7254L56.7434 33.7254L56.7435 33.7254C56.9039 33.6384 57.0643 33.5515 57.2174 33.4542C57.6661 33.1664 58.1427 32.9299 58.6195 32.6933L58.6196 32.6932C59.606 32.2038 60.5935 31.7137 61.3383 30.7674C61.879 30.0822 62.9806 29.8337 63.9311 29.8337C64.8147 29.8397 65.6479 29.62 66.4795 29.4007C67.0387 29.2532 67.5971 29.106 68.1696 29.0276C68.9549 28.9219 68.9296 28.4215 68.9023 27.8826L68.8984 27.8051C68.839 25.3718 68.6021 22.9461 68.1898 20.5473C68.0285 19.7177 68.0991 19.2307 69.0025 19.046C69.906 18.8613 70.3963 19.2374 70.5777 20.0905C70.6566 20.4614 70.7441 20.8336 70.8319 21.2067L70.8319 21.2068C71.058 22.1684 71.2856 23.1362 71.3703 24.104C71.4233 24.7085 71.5612 25.3002 71.699 25.8915L71.699 25.8915C71.9279 26.8736 72.1564 27.8543 71.995 28.8899C71.9179 29.3853 72.3307 29.4432 72.6595 29.4893C72.703 29.4954 72.7451 29.5013 72.7843 29.5079C73.0124 29.5438 73.2405 29.5802 73.4686 29.6166L73.4688 29.6166C74.6716 29.8085 75.876 30.0006 77.09 30.1192C78.5341 30.2602 79.5719 30.764 80.0556 32.2754C80.6417 34.1377 81.2587 35.9914 81.8757 37.8451L81.8757 37.8453L81.8758 37.8454C82.7542 40.4845 83.6326 43.1235 84.4217 45.7869C84.8912 47.3566 84.0417 48.7164 83.2373 50.0039L83.2371 50.0041C83.1036 50.2179 82.9713 50.4296 82.8465 50.64C81.2812 53.2887 79.4238 55.7354 77.5658 58.1829C76.5096 59.5743 75.4532 60.9659 74.4501 62.3949C72.3544 65.3807 70.3057 68.4471 69.8892 72.2288H70.1377C70.3359 72.2019 70.3359 72.4438 70.3359 72.4438C70.0672 73.6159 73.2343 85.4447 73.6945 87.1576C73.7191 87.2276 73.7382 87.2995 73.7515 87.3726C73.7975 87.5944 73.9731 87.5045 74.1373 87.4205C74.1894 87.3938 74.2403 87.3678 74.2856 87.3524C75.9413 86.805 76.4417 87.0434 77.0799 88.6958C79.0144 93.662 80.9366 98.6327 82.8465 103.608C84.071 106.936 85.492 110.188 87.1018 113.348C87.8459 114.744 88.8596 115.979 90.0842 116.982C91.6772 118.319 93.004 119.764 92.7091 121.88C93.6994 122.15 94.6513 122.558 95.5351 123.098C102.198 127.299 109.661 129.247 117.275 130.715C120.605 131.319 123.971 131.707 127.351 131.877V131.319C126.832 131.038 126.394 130.627 126.081 130.127C124.133 127.39 122.951 124.367 122.87 120.975C122.802 116.323 123.367 111.684 124.55 107.185C125.779 102.288 127.854 97.8076 130.098 93.3407C131.855 89.868 133.819 86.5228 135.808 83.1911C136.802 81.5219 137.89 79.846 139.408 78.5664C140.168 77.9228 140.09 77.1643 140.011 76.394C139.996 76.2518 139.982 76.1092 139.972 75.9669C139.863 74.3083 139.697 72.6534 139.53 70.9987L139.53 70.9985C139.228 67.9858 138.926 64.9732 138.965 61.9382C139.008 58.4721 139.478 55.1405 141.269 52.0909L141.325 51.9937C141.763 51.2457 142.207 50.4885 142.85 49.938C143.49 49.4012 144.125 48.8586 144.761 48.3156L144.761 48.3152C147.781 45.7366 150.81 43.1505 154.27 41.142C157.954 39.0026 161.957 37.6827 166.098 36.7288C170.374 35.7448 174.68 35.3048 179.046 35.8858C179.854 35.9937 180.608 35.7341 181.372 35.4716C181.868 35.3009 182.368 35.1291 182.888 35.0563C185.793 34.6432 188.678 34.3946 191.523 35.204C195.244 36.262 198.589 37.8942 200.712 41.414C201.543 42.8206 202.751 43.9674 204.198 44.7256C205.978 45.6653 207.518 47.0003 208.702 48.6282C208.853 48.8292 209.004 49.0301 209.156 49.2311C211.857 52.8133 214.56 56.3987 216.074 60.6888C217.351 64.1788 218.084 67.8444 218.247 71.5571C218.408 75.356 217.876 79.1525 216.678 82.7612C216.126 84.3963 215.307 85.9191 214.486 87.4427L214.486 87.4429L214.486 87.4431C214.03 88.2917 213.573 89.1405 213.162 90.009C211.109 94.2341 208.795 98.3271 206.233 102.264C204.497 104.992 204.02 108.038 205.427 111.165C207.478 115.622 209.752 119.973 212.238 124.203C213.454 126.365 214.159 128.778 214.297 131.255C214.653 136.169 214.045 141.012 212.974 145.828C212.289 149.169 211.16 152.403 209.615 155.444C209.192 156.243 208.762 157.012 207.704 157.123C207.31 157.164 207.141 157.492 206.978 157.807C206.94 157.881 206.902 157.954 206.861 158.023C203.828 163.131 199.797 167.575 195.009 171.091C192.537 172.939 189.642 173.902 186.717 174.685L186.327 174.789L185.868 174.913C182.365 175.854 178.85 176.799 175.18 176.895C173.947 176.925 173.235 177.469 172.732 178.688C170.777 183.424 168.933 188.207 167.418 193.097C165.353 199.767 165.41 206.477 167.999 213.033C168.863 215.215 170.224 217.113 171.583 219.009C172.142 219.79 172.701 220.57 173.225 221.369C173.581 221.912 173.937 222.456 174.291 223H418V0H115.5ZM194.653 39.3718C194.881 39.391 195.11 39.4102 195.335 39.4425L195.425 39.0933C193.867 37.6457 191.916 36.9303 189.927 36.3426C187.724 35.6877 185.504 35.0731 183.153 35.6104C183.095 35.6237 183.029 35.6321 182.961 35.6408C182.683 35.6761 182.37 35.7159 182.411 36.1041C182.443 36.3908 182.723 36.4082 182.977 36.4239C183.041 36.4279 183.103 36.4318 183.16 36.44C186.61 36.9723 189.994 37.8731 193.252 39.1268C193.688 39.2909 194.169 39.3313 194.652 39.3718L194.653 39.3718Z" fill="url(#paint0_angular)" />
  </g>
  <mask id="mask0" mask-type="alpha" maskUnits="userSpaceOnUse" x="4" y="0" width="414" height="223">
    <path fill-rule="evenodd" clip-rule="evenodd" d="M115.5 0C53.9203 0 4 49.9203 4 111.5C4 173.08 53.9202 223 115.5 223H118.557C118.854 221.664 119.142 220.325 119.398 218.978C119.592 217.952 119.561 216.925 119.531 215.899C119.52 215.521 119.508 215.144 119.508 214.766C119.508 214.051 119.021 213.853 118.43 213.735C115.594 213.122 112.798 212.336 110.057 211.384C109 211.048 108.294 210.541 108.294 209.369C108.304 208.489 107.794 208.116 107.052 207.817C104.943 206.999 102.897 206.029 100.929 204.915C100.096 204.425 99.5049 203.908 99.5452 202.836C99.5788 201.95 99.1388 201.47 98.1615 201.365C97.1686 201.26 96.18 201.108 95.191 200.956C94.1993 200.804 93.2072 200.652 92.2101 200.546C87.9514 200.086 84.0958 198.41 80.5122 196.277C77.6406 194.564 74.6247 194.161 71.4643 194.017C68.7472 193.893 66.1611 193.154 63.6019 192.338C61.9192 191.8 61.0023 190.719 61.2005 189.715C61.3987 188.71 62.5842 188.042 64.3542 188.082C65.9745 188.108 67.5922 188.22 69.2006 188.418C70.4048 188.572 71.5556 188.333 72.7461 188.085L72.7607 188.082C71.3793 187.571 69.9467 187.514 68.5135 187.458C67.8385 187.431 67.1635 187.404 66.4936 187.33C66.1262 187.29 65.7582 187.252 65.3902 187.215L65.3895 187.214L65.389 187.214C62.9147 186.962 60.4412 186.71 58.161 185.57C57.6245 185.306 57.112 184.996 56.6295 184.643C54.349 182.957 54.4632 180.791 56.9049 179.343C58.3754 178.471 60.0175 178.234 61.6586 177.997C62.0452 177.942 62.4317 177.886 62.816 177.822C65.5901 177.372 68.371 177.066 71.2124 177.278C70.5873 177.142 69.9625 177.004 69.3378 176.867L69.327 176.865C67.7232 176.513 66.1202 176.161 64.5154 175.824C63.1789 175.54 61.8637 175.164 60.5792 174.698C59.9645 174.501 59.4213 174.127 59.0174 173.624C58.161 172.515 58.4834 171.35 59.8101 170.893C62.0502 170.121 64.3945 170.195 66.6615 170.507C74.4601 171.578 82.0639 173.557 89.5165 176.059C92.2034 176.959 94.5342 178.725 96.5695 180.606C97.6986 181.65 98.7781 182.743 99.8596 183.838L99.8598 183.838C100.728 184.717 101.597 185.597 102.494 186.453L105.738 189.523L105.796 189.576L105.797 189.576C105.862 189.636 105.93 189.698 106 189.768L106.088 189.856L106.182 189.95C108.079 191.82 108.247 191.827 109.372 189.419C109.926 188.237 110.568 187.773 111.841 188.301C112.68 188.616 113.54 188.875 114.414 189.076C114.467 189.091 114.523 189.111 114.581 189.131C114.845 189.223 115.137 189.326 115.327 188.976C115.492 188.67 115.287 188.391 115.092 188.166C112.311 184.979 111.27 181.043 110.491 177.056C110.449 176.842 110.406 176.628 110.364 176.413C109.81 173.631 109.247 170.802 110.282 167.961C111.048 165.862 111.888 163.803 113.537 162.225C114.437 161.352 114.037 161.153 113.094 160.938C105.977 159.296 99.0011 157.153 92.0825 154.826C90.0947 154.17 88.1268 153.457 86.1811 152.688L86.1783 152.697C86.1783 152.697 75.1487 148.982 72.3007 147.921L70.8699 147.387L70.168 146.695C63.649 138.161 56.3072 113.166 56.3072 113.166L56.3302 113.177C55.095 109.512 54.2083 105.752 53.3219 101.993L53.3219 101.992L53.3214 101.99L53.3213 101.99C53.203 101.488 53.0846 100.986 52.9654 100.484C52.9044 100.233 52.9068 99.9712 52.9725 99.7214C53.0381 99.4716 53.165 99.2421 53.3416 99.0536C53.8347 98.4668 54.3582 97.9063 54.91 97.3743L54.9474 97.3397C56.4215 95.9739 56.4249 95.9707 55.6456 93.999C54.2282 90.4121 53.3685 86.7546 54.2618 82.8754C54.2644 82.8635 54.2678 82.8517 54.2715 82.8401C54.2732 82.8347 54.275 82.8294 54.2767 82.8241C54.2861 82.7955 54.2954 82.7673 54.2954 82.7377C54.6514 80.511 57.6338 74.9056 57.6338 74.9056C57.6842 74.7948 57.7379 74.6738 57.7782 74.5697C58.7834 71.9527 58.7134 69.0445 57.5834 66.479C56.1661 63.0935 56.6296 59.7081 58.7791 55.2983C59.5955 53.8329 60.5554 51.6287 61.5866 49.2607L61.5867 49.2606L61.5867 49.2605L61.5868 49.2602C61.9216 48.4915 62.2639 47.7056 62.6112 46.9221C63.0579 45.9145 63.1519 45.32 61.7548 44.9069C59.9981 44.4435 58.4773 43.3418 57.4894 41.817C57.083 41.1588 56.7707 41.1655 56.1863 41.5618C55.0294 42.3036 53.694 42.7201 52.3206 42.7675C51.9836 42.8173 51.6398 42.7932 51.313 42.697L51.1718 42.6369C50.2605 42.2503 49.2365 41.8158 49.0258 40.8229C48.8618 40.0501 49.5086 39.7719 50.1282 39.5053C50.3461 39.4116 50.5606 39.3193 50.7353 39.2074C50.9957 39.0405 51.2532 38.8678 51.5111 38.6948C52.3478 38.1335 53.1884 37.5697 54.1409 37.1923C54.4701 37.0647 54.7757 36.8934 54.6951 36.4534C54.4728 35.2873 55.2485 34.7267 56.0146 34.1732L56.1124 34.1024C56.3109 33.9598 56.5272 33.8426 56.7433 33.7254L56.7434 33.7254L56.7435 33.7254C56.9039 33.6384 57.0643 33.5515 57.2174 33.4542C57.6661 33.1664 58.1427 32.9299 58.6195 32.6933L58.6196 32.6932C59.606 32.2038 60.5935 31.7137 61.3383 30.7674C61.879 30.0822 62.9806 29.8337 63.9311 29.8337C64.8147 29.8397 65.6479 29.62 66.4795 29.4007C67.0387 29.2532 67.5971 29.106 68.1696 29.0276C68.9549 28.9219 68.9296 28.4215 68.9023 27.8826L68.8984 27.8051C68.839 25.3718 68.6021 22.9461 68.1898 20.5473C68.0285 19.7177 68.0991 19.2307 69.0025 19.046C69.906 18.8613 70.3963 19.2374 70.5777 20.0905C70.6566 20.4614 70.7441 20.8336 70.8319 21.2067L70.8319 21.2068C71.058 22.1684 71.2856 23.1362 71.3703 24.104C71.4233 24.7085 71.5612 25.3002 71.699 25.8915L71.699 25.8915C71.9279 26.8736 72.1564 27.8543 71.995 28.8899C71.9179 29.3853 72.3307 29.4432 72.6595 29.4893C72.703 29.4954 72.7451 29.5013 72.7843 29.5079C73.0124 29.5438 73.2405 29.5802 73.4686 29.6166L73.4688 29.6166C74.6716 29.8085 75.876 30.0006 77.09 30.1192C78.5341 30.2602 79.5719 30.764 80.0556 32.2754C80.6417 34.1377 81.2587 35.9914 81.8757 37.8451L81.8757 37.8453L81.8758 37.8454C82.7542 40.4845 83.6326 43.1235 84.4217 45.7869C84.8912 47.3566 84.0417 48.7164 83.2373 50.0039L83.2371 50.0041C83.1036 50.2179 82.9713 50.4296 82.8465 50.64C81.2812 53.2887 79.4238 55.7354 77.5658 58.1829C76.5096 59.5743 75.4532 60.9659 74.4501 62.3949C72.3544 65.3807 70.3057 68.4471 69.8892 72.2288H70.1377C70.3359 72.2019 70.3359 72.4438 70.3359 72.4438C70.0672 73.6159 73.2343 85.4447 73.6945 87.1576C73.7191 87.2276 73.7382 87.2995 73.7515 87.3726C73.7975 87.5944 73.9731 87.5045 74.1373 87.4205C74.1894 87.3938 74.2403 87.3678 74.2856 87.3524C75.9413 86.805 76.4417 87.0434 77.0799 88.6958C79.0144 93.662 80.9366 98.6327 82.8465 103.608C84.071 106.936 85.492 110.188 87.1018 113.348C87.8459 114.744 88.8596 115.979 90.0842 116.982C91.6772 118.319 93.004 119.764 92.7091 121.88C93.6994 122.15 94.6513 122.558 95.5351 123.098C102.198 127.299 109.661 129.247 117.275 130.715C120.605 131.319 123.971 131.707 127.351 131.877V131.319C126.832 131.038 126.394 130.627 126.081 130.127C124.133 127.39 122.951 124.367 122.87 120.975C122.802 116.323 123.367 111.684 124.55 107.185C125.779 102.288 127.854 97.8076 130.098 93.3407C131.855 89.868 133.819 86.5228 135.808 83.1911C136.802 81.5219 137.89 79.846 139.408 78.5664C140.168 77.9228 140.09 77.1643 140.011 76.394C139.996 76.2518 139.982 76.1092 139.972 75.9669C139.863 74.3083 139.697 72.6534 139.53 70.9987L139.53 70.9985C139.228 67.9858 138.926 64.9732 138.965 61.9382C139.008 58.4721 139.478 55.1405 141.269 52.0909L141.325 51.9937C141.763 51.2457 142.207 50.4885 142.85 49.938C143.49 49.4012 144.125 48.8586 144.761 48.3156L144.761 48.3152C147.781 45.7366 150.81 43.1505 154.27 41.142C157.954 39.0026 161.957 37.6827 166.098 36.7288C170.374 35.7448 174.68 35.3048 179.046 35.8858C179.854 35.9937 180.608 35.7341 181.372 35.4716C181.868 35.3009 182.368 35.1291 182.888 35.0563C185.793 34.6432 188.678 34.3946 191.523 35.204C195.244 36.262 198.589 37.8942 200.712 41.414C201.543 42.8206 202.751 43.9674 204.198 44.7256C205.978 45.6653 207.518 47.0003 208.702 48.6282C208.853 48.8292 209.004 49.0301 209.156 49.2311C211.857 52.8133 214.56 56.3987 216.074 60.6888C217.351 64.1788 218.084 67.8444 218.247 71.5571C218.408 75.356 217.876 79.1525 216.678 82.7612C216.126 84.3963 215.307 85.9191 214.486 87.4427L214.486 87.4429L214.486 87.4431C214.03 88.2917 213.573 89.1405 213.162 90.009C211.109 94.2341 208.795 98.3271 206.233 102.264C204.497 104.992 204.02 108.038 205.427 111.165C207.478 115.622 209.752 119.973 212.238 124.203C213.454 126.365 214.159 128.778 214.297 131.255C214.653 136.169 214.045 141.012 212.974 145.828C212.289 149.169 211.16 152.403 209.615 155.444C209.192 156.243 208.762 157.012 207.704 157.123C207.31 157.164 207.141 157.492 206.978 157.807C206.94 157.881 206.902 157.954 206.861 158.023C203.828 163.131 199.797 167.575 195.009 171.091C192.537 172.939 189.642 173.902 186.717 174.685L186.327 174.789L185.868 174.913C182.365 175.854 178.85 176.799 175.18 176.895C173.947 176.925 173.235 177.469 172.732 178.688C170.777 183.424 168.933 188.207 167.418 193.097C165.353 199.767 165.41 206.477 167.999 213.033C168.863 215.215 170.224 217.113 171.583 219.009C172.142 219.79 172.701 220.57 173.225 221.369C173.581 221.912 173.937 222.456 174.291 223H418V0H115.5ZM194.653 39.3718C194.881 39.391 195.11 39.4102 195.335 39.4425L195.425 39.0933C193.867 37.6457 191.916 36.9303 189.927 36.3426C187.724 35.6877 185.504 35.0731 183.153 35.6104C183.095 35.6237 183.029 35.6321 182.961 35.6408C182.683 35.6761 182.37 35.7159 182.411 36.1041C182.443 36.3908 182.723 36.4082 182.977 36.4239C183.041 36.4279 183.103 36.4318 183.16 36.44C186.61 36.9723 189.994 37.8731 193.252 39.1268C193.688 39.2909 194.169 39.3313 194.652 39.3718L194.653 39.3718Z" fill="url(#paint1_angular)" />
  </mask>
  <g mask="url(#mask0)">
    <path d="M473 -40H4V297H473V-40Z" fill="#1EBB8C" />
    <path d="M43.0833 16.1666L4 72.3333H82.1667L43.0833 16.1666Z" fill="#444444" fill-opacity="0.1" />
    <path d="M43.0833 16.1667L82.1667 -40H4L43.0833 16.1667Z" fill="black" fill-opacity="0.1" />
    <path d="M121.25 16.1667L160.334 -40H82.167L121.25 16.1667Z" fill="#AAAAAA" fill-opacity="0.1" />
    <path d="M199.417 16.1666L160.334 72.3333H238.501L199.417 16.1666Z" fill="#DDDDDD" fill-opacity="0.1" />
    <path d="M199.417 16.1667L238.501 -40H160.334L199.417 16.1667Z" fill="#999999" fill-opacity="0.1" />
    <path d="M277.583 16.1666L238.5 72.3333H316.667L277.583 16.1666Z" fill="black" fill-opacity="0.1" />
    <path d="M277.583 16.1667L316.667 -40H238.5L277.583 16.1667Z" fill="#DDDDDD" fill-opacity="0.1" />
    <path d="M355.75 16.1666L316.667 72.3333H394.834L355.75 16.1666Z" fill="#444444" fill-opacity="0.1" />
    <path d="M355.75 16.1667L394.834 -40H316.667L355.75 16.1667Z" fill="white" fill-opacity="0.1" />
    <path d="M433.917 16.1666L394.834 72.3333H473.001L433.917 16.1666Z" fill="#DDDDDD" fill-opacity="0.1" />
    <path d="M433.917 16.1667L473.001 -40H394.834L433.917 16.1667Z" fill="#444444" fill-opacity="0.1" />
    <path d="M43.0833 128.5L4 184.667H82.1667L43.0833 128.5Z" fill="#DDDDDD" fill-opacity="0.1" />
    <path d="M43.0833 128.5L82.1667 72.3334H4L43.0833 128.5Z" fill="black" fill-opacity="0.1" />
    <path d="M121.25 128.5L82.167 184.667H160.334L121.25 128.5Z" fill="#666666" fill-opacity="0.1" />
    <path d="M121.25 128.5L160.334 72.3334H82.167L121.25 128.5Z" fill="#AAAAAA" fill-opacity="0.1" />
    <path d="M199.417 128.5L160.334 184.667H238.501L199.417 128.5Z" fill="#DDDDDD" fill-opacity="0.1" />
    <path d="M199.417 128.5L238.501 72.3334H160.334L199.417 128.5Z" fill="#999999" fill-opacity="0.1" />
    <path d="M277.583 128.5L238.5 184.667H316.667L277.583 128.5Z" fill="#999999" fill-opacity="0.1" />
    <path d="M277.583 128.5L316.667 72.3334H238.5L277.583 128.5Z" fill="white" fill-opacity="0.1" />
    <path d="M355.75 128.5L316.667 184.667H394.834L355.75 128.5Z" fill="black" fill-opacity="0.1" />
    <path d="M355.75 128.5L394.834 72.3334H316.667L355.75 128.5Z" fill="#DDDDDD" fill-opacity="0.1" />
    <path d="M433.917 128.5L394.834 184.667H473.001L433.917 128.5Z" fill="#AAAAAA" fill-opacity="0.1" />
    <path d="M433.917 128.5L473.001 72.3334H394.834L433.917 128.5Z" fill="#444444" fill-opacity="0.1" />
    <path d="M121.25 240.833L160.334 184.667H82.167L121.25 240.833Z" fill="#DDDDDD" fill-opacity="0.1" />
    <path d="M199.417 240.833L238.501 184.667H160.334L199.417 240.833Z" fill="black" fill-opacity="0.1" />
    <path d="M277.583 240.833L316.667 184.667H238.5L277.583 240.833Z" fill="#444444" fill-opacity="0.1" />
    <path d="M355.75 240.833L394.834 184.667H316.667L355.75 240.833Z" fill="#666666" fill-opacity="0.1" />
    <path d="M82.1673 -40L43.084 16.1667H121.251L82.1673 -40Z" fill="#999999" fill-opacity="0.1" />
    <path d="M160.333 -40L121.25 16.1667H199.417L160.333 -40Z" fill="#444444" fill-opacity="0.1" />
    <path d="M238.5 -40L199.417 16.1667H277.584L238.5 -40Z" fill="white" fill-opacity="0.1" />
    <path d="M394.833 -40L355.75 16.1667H433.917L394.833 -40Z" fill="black" fill-opacity="0.1" />
    <path d="M4.00033 72.3334L-35.083 128.5H43.0837L4.00033 72.3334Z" fill="#222222" fill-opacity="0.1" />
    <path d="M4.00033 72.3333L43.0837 16.1666H-35.083L4.00033 72.3333Z" fill="white" fill-opacity="0.1" />
    <path d="M82.1673 72.3334L43.084 128.5H121.251L82.1673 72.3334Z" fill="white" fill-opacity="0.1" />
    <path d="M82.1673 72.3333L121.251 16.1666H43.084L82.1673 72.3333Z" fill="#666666" fill-opacity="0.1" />
    <path d="M160.333 72.3334L121.25 128.5H199.417L160.333 72.3334Z" fill="#222222" fill-opacity="0.1" />
    <path d="M160.333 72.3333L199.417 16.1666H121.25L160.333 72.3333Z" fill="white" fill-opacity="0.1" />
    <path d="M238.5 72.3334L199.417 128.5H277.584L238.5 72.3334Z" fill="#444444" fill-opacity="0.1" />
    <path d="M238.5 72.3333L277.584 16.1666H199.417L238.5 72.3333Z" fill="#222222" fill-opacity="0.1" />
    <path d="M316.667 72.3334L277.584 128.5H355.751L316.667 72.3334Z" fill="#AAAAAA" fill-opacity="0.1" />
    <path d="M316.667 72.3333L355.751 16.1666H277.584L316.667 72.3333Z" fill="#666666" fill-opacity="0.1" />
    <path d="M394.833 72.3334L355.75 128.5H433.917L394.833 72.3334Z" fill="white" fill-opacity="0.1" />
    <path d="M394.833 72.3333L433.917 16.1666H355.75L394.833 72.3333Z" fill="#999999" fill-opacity="0.1" />
    <path d="M4.00033 184.667L-35.083 240.833H43.0837L4.00033 184.667Z" fill="black" fill-opacity="0.1" />
    <path d="M4.00033 184.667L43.0837 128.5H-35.083L4.00033 184.667Z" fill="#666666" fill-opacity="0.1" />
    <path d="M82.1673 184.667L43.084 240.833H121.251L82.1673 184.667Z" fill="#AAAAAA" fill-opacity="0.1" />
    <path d="M82.1673 184.667L121.251 128.5H43.084L82.1673 184.667Z" fill="#444444" fill-opacity="0.1" />
    <path d="M160.333 184.667L121.25 240.833H199.417L160.333 184.667Z" fill="#444444" fill-opacity="0.1" />
    <path d="M160.333 184.667L199.417 128.5H121.25L160.333 184.667Z" fill="#999999" fill-opacity="0.1" />
    <path d="M238.5 184.667L277.584 128.5H199.417L238.5 184.667Z" fill="#666666" fill-opacity="0.1" />
    <path d="M316.667 184.667L277.584 240.833H355.751L316.667 184.667Z" fill="#222222" fill-opacity="0.1" />
    <path d="M394.833 184.667L355.75 240.833H433.917L394.833 184.667Z" fill="white" fill-opacity="0.1" />
    <path d="M394.833 184.667L433.917 128.5H355.75L394.833 184.667Z" fill="#222222" fill-opacity="0.1" />
  </g>
  <rect x="237" width="181" height="223" fill="url(#paint2_linear)" />
  <path d="M258.305 111H255.277V99.2422H251.4V96.7227H262.182V99.2422H258.305V111ZM268.666 101.996C268.035 101.996 267.54 102.198 267.182 102.602C266.824 102.999 266.618 103.565 266.566 104.301H270.746C270.733 103.565 270.541 102.999 270.17 102.602C269.799 102.198 269.298 101.996 268.666 101.996ZM269.086 111.195C267.328 111.195 265.954 110.71 264.965 109.74C263.975 108.77 263.48 107.396 263.48 105.619C263.48 103.79 263.936 102.377 264.848 101.381C265.766 100.378 267.032 99.877 268.646 99.877C270.189 99.877 271.391 100.316 272.25 101.195C273.109 102.074 273.539 103.288 273.539 104.838V106.283H266.498C266.531 107.13 266.781 107.79 267.25 108.266C267.719 108.741 268.376 108.979 269.223 108.979C269.88 108.979 270.502 108.91 271.088 108.773C271.674 108.637 272.286 108.419 272.924 108.119V110.424C272.403 110.684 271.846 110.876 271.254 111C270.661 111.13 269.939 111.195 269.086 111.195ZM282.895 111L282.318 109.516H282.24C281.739 110.147 281.221 110.587 280.688 110.834C280.16 111.075 279.47 111.195 278.617 111.195C277.569 111.195 276.742 110.896 276.137 110.297C275.538 109.698 275.238 108.845 275.238 107.738C275.238 106.579 275.642 105.727 276.449 105.18C277.263 104.626 278.487 104.32 280.121 104.262L282.016 104.203V103.725C282.016 102.618 281.449 102.064 280.316 102.064C279.444 102.064 278.419 102.328 277.24 102.855L276.254 100.844C277.51 100.186 278.904 99.8574 280.434 99.8574C281.898 99.8574 283.021 100.176 283.803 100.814C284.584 101.452 284.975 102.423 284.975 103.725V111H282.895ZM282.016 105.941L280.863 105.98C279.997 106.007 279.353 106.163 278.93 106.449C278.507 106.736 278.295 107.172 278.295 107.758C278.295 108.598 278.777 109.018 279.74 109.018C280.43 109.018 280.98 108.819 281.391 108.422C281.807 108.025 282.016 107.497 282.016 106.84V105.941ZM292.484 111.195C289.086 111.195 287.387 109.33 287.387 105.6C287.387 103.744 287.849 102.328 288.773 101.352C289.698 100.368 291.023 99.877 292.748 99.877C294.011 99.877 295.144 100.124 296.146 100.619L295.268 102.924C294.799 102.735 294.363 102.582 293.959 102.465C293.555 102.341 293.152 102.279 292.748 102.279C291.199 102.279 290.424 103.38 290.424 105.58C290.424 107.715 291.199 108.783 292.748 108.783C293.321 108.783 293.852 108.708 294.34 108.559C294.828 108.402 295.316 108.161 295.805 107.836V110.385C295.323 110.691 294.835 110.902 294.34 111.02C293.852 111.137 293.233 111.195 292.484 111.195ZM308.422 111H305.443V104.623C305.443 103.048 304.857 102.26 303.686 102.26C302.852 102.26 302.25 102.543 301.879 103.109C301.508 103.676 301.322 104.594 301.322 105.863V111H298.344V95.8047H301.322V98.9004C301.322 99.1413 301.299 99.7077 301.254 100.6L301.186 101.479H301.342C302.006 100.411 303.061 99.877 304.506 99.877C305.788 99.877 306.762 100.222 307.426 100.912C308.09 101.602 308.422 102.592 308.422 103.881V111ZM316.01 101.996C315.378 101.996 314.883 102.198 314.525 102.602C314.167 102.999 313.962 103.565 313.91 104.301H318.09C318.077 103.565 317.885 102.999 317.514 102.602C317.143 102.198 316.641 101.996 316.01 101.996ZM316.43 111.195C314.672 111.195 313.298 110.71 312.309 109.74C311.319 108.77 310.824 107.396 310.824 105.619C310.824 103.79 311.28 102.377 312.191 101.381C313.109 100.378 314.376 99.877 315.99 99.877C317.533 99.877 318.734 100.316 319.594 101.195C320.453 102.074 320.883 103.288 320.883 104.838V106.283H313.842C313.874 107.13 314.125 107.79 314.594 108.266C315.062 108.741 315.72 108.979 316.566 108.979C317.224 108.979 317.846 108.91 318.432 108.773C319.018 108.637 319.63 108.419 320.268 108.119V110.424C319.747 110.684 319.19 110.876 318.598 111C318.005 111.13 317.283 111.195 316.43 111.195ZM329.398 99.877C329.802 99.877 330.137 99.9062 330.404 99.9648L330.18 102.758C329.939 102.693 329.646 102.66 329.301 102.66C328.35 102.66 327.608 102.904 327.074 103.393C326.547 103.881 326.283 104.564 326.283 105.443V111H323.305V100.082H325.561L326 101.918H326.146C326.485 101.306 326.941 100.814 327.514 100.443C328.093 100.066 328.721 99.877 329.398 99.877Z" fill="#F7F8F4" />
  <defs>
    <filter id="filter0_d" x="0" y="0" width="422" height="231" filterUnits="userSpaceOnUse" color-interpolation-filters="sRGB">
      <feFlood flood-opacity="0" result="BackgroundImageFix" />
      <feColorMatrix in="SourceAlpha" type="matrix" values="0 0 0 0 0 0 0 0 0 0 0 0 0 0 0 0 0 0 127 0" />
      <feOffset dy="4" />
      <feGaussianBlur stdDeviation="2" />
      <feColorMatrix type="matrix" values="0 0 0 0 0 0 0 0 0 0 0 0 0 0 0 0 0 0 0.25 0" />
      <feBlend mode="normal" in2="BackgroundImageFix" result="effect1_dropShadow" />
      <feBlend mode="normal" in="SourceGraphic" in2="effect1_dropShadow" result="shape" />
    </filter>
    <radialGradient id="paint0_angular" cx="0" cy="0" r="1" gradientUnits="userSpaceOnUse" gradientTransform="translate(199 76) rotate(102.783) scale(244.049 231.576)">
      <stop offset="0.03595" stop-color="#1EBB8C" />
      <stop offset="1" stop-color="#1C9C76" />
    </radialGradient>
    <radialGradient id="paint1_angular" cx="0" cy="0" r="1" gradientUnits="userSpaceOnUse" gradientTransform="translate(199 76) rotate(102.783) scale(244.049 231.576)">
      <stop offset="0.03595" stop-color="#1EBB8C" />
      <stop offset="1" stop-color="#1C9C76" />
    </radialGradient>
    <linearGradient id="paint2_linear" x1="397" y1="112" x2="231" y2="112" gradientUnits="userSpaceOnUse">
      <stop stop-color="#1DA67D" />
      <stop offset="1" stop-color="#1DA67D" stop-opacity="0" />
    </linearGradient>
  </defs>
</svg>
